%TF.GenerationSoftware,KiCad,Pcbnew,6.0.3-a3aad9c10e~116~ubuntu20.04.1*%
%TF.CreationDate,2022-03-24T21:59:22+11:00*%
%TF.ProjectId,sea-picro,7365612d-7069-4637-926f-2e6b69636164,0.2*%
%TF.SameCoordinates,Original*%
%TF.FileFunction,Paste,Top*%
%TF.FilePolarity,Positive*%
%FSLAX46Y46*%
G04 Gerber Fmt 4.6, Leading zero omitted, Abs format (unit mm)*
G04 Created by KiCad (PCBNEW 6.0.3-a3aad9c10e~116~ubuntu20.04.1) date 2022-03-24 21:59:22*
%MOMM*%
%LPD*%
G01*
G04 APERTURE LIST*
G04 Aperture macros list*
%AMRoundRect*
0 Rectangle with rounded corners*
0 $1 Rounding radius*
0 $2 $3 $4 $5 $6 $7 $8 $9 X,Y pos of 4 corners*
0 Add a 4 corners polygon primitive as box body*
4,1,4,$2,$3,$4,$5,$6,$7,$8,$9,$2,$3,0*
0 Add four circle primitives for the rounded corners*
1,1,$1+$1,$2,$3*
1,1,$1+$1,$4,$5*
1,1,$1+$1,$6,$7*
1,1,$1+$1,$8,$9*
0 Add four rect primitives between the rounded corners*
20,1,$1+$1,$2,$3,$4,$5,0*
20,1,$1+$1,$4,$5,$6,$7,0*
20,1,$1+$1,$6,$7,$8,$9,0*
20,1,$1+$1,$8,$9,$2,$3,0*%
G04 Aperture macros list end*
%ADD10RoundRect,0.140000X0.170000X-0.140000X0.170000X0.140000X-0.170000X0.140000X-0.170000X-0.140000X0*%
%ADD11RoundRect,0.135000X0.185000X-0.135000X0.185000X0.135000X-0.185000X0.135000X-0.185000X-0.135000X0*%
%ADD12R,0.340000X0.700000*%
%ADD13RoundRect,0.140000X-0.170000X0.140000X-0.170000X-0.140000X0.170000X-0.140000X0.170000X0.140000X0*%
%ADD14RoundRect,0.140000X0.140000X0.170000X-0.140000X0.170000X-0.140000X-0.170000X0.140000X-0.170000X0*%
%ADD15RoundRect,0.150000X-0.512500X-0.150000X0.512500X-0.150000X0.512500X0.150000X-0.512500X0.150000X0*%
%ADD16RoundRect,0.135000X-0.135000X-0.185000X0.135000X-0.185000X0.135000X0.185000X-0.135000X0.185000X0*%
%ADD17RoundRect,0.250000X-0.435000X-0.555000X0.435000X-0.555000X0.435000X0.555000X-0.435000X0.555000X0*%
%ADD18RoundRect,0.125000X-0.262500X-0.125000X0.262500X-0.125000X0.262500X0.125000X-0.262500X0.125000X0*%
%ADD19RoundRect,0.135000X-0.185000X0.135000X-0.185000X-0.135000X0.185000X-0.135000X0.185000X0.135000X0*%
%ADD20RoundRect,0.300000X-0.450000X-0.600000X0.450000X-0.600000X0.450000X0.600000X-0.450000X0.600000X0*%
%ADD21RoundRect,0.300000X-0.450000X-0.800000X0.450000X-0.800000X0.450000X0.800000X-0.450000X0.800000X0*%
%ADD22R,0.540000X0.800000*%
%ADD23R,0.300000X0.800000*%
%ADD24RoundRect,0.140000X-0.140000X-0.170000X0.140000X-0.170000X0.140000X0.170000X-0.140000X0.170000X0*%
%ADD25RoundRect,0.218750X-0.218750X-0.256250X0.218750X-0.256250X0.218750X0.256250X-0.218750X0.256250X0*%
%ADD26RoundRect,0.135000X0.135000X0.185000X-0.135000X0.185000X-0.135000X-0.185000X0.135000X-0.185000X0*%
%ADD27R,0.700000X0.340000*%
%ADD28RoundRect,0.250000X-0.292217X-0.292217X0.292217X-0.292217X0.292217X0.292217X-0.292217X0.292217X0*%
%ADD29RoundRect,0.050000X-0.387500X-0.050000X0.387500X-0.050000X0.387500X0.050000X-0.387500X0.050000X0*%
%ADD30RoundRect,0.050000X-0.050000X-0.387500X0.050000X-0.387500X0.050000X0.387500X-0.050000X0.387500X0*%
%ADD31RoundRect,0.250000X0.250000X-0.325000X0.250000X0.325000X-0.250000X0.325000X-0.250000X-0.325000X0*%
%ADD32RoundRect,0.218750X0.256250X-0.218750X0.256250X0.218750X-0.256250X0.218750X-0.256250X-0.218750X0*%
%ADD33R,0.450000X0.600000*%
G04 APERTURE END LIST*
D10*
%TO.C,C19*%
X124400000Y-104500000D03*
X124400000Y-103540000D03*
%TD*%
D11*
%TO.C,R6*%
X122500000Y-91510000D03*
X122500000Y-90490000D03*
%TD*%
D12*
%TO.C,U4*%
X131000000Y-86800000D03*
X131500000Y-86800000D03*
X132000000Y-86800000D03*
X132000000Y-85300000D03*
X131500000Y-85300000D03*
X131000000Y-85300000D03*
%TD*%
D10*
%TO.C,C10*%
X131550000Y-91490000D03*
X131550000Y-90530000D03*
%TD*%
D13*
%TO.C,C8*%
X126250000Y-101320000D03*
X126250000Y-102280000D03*
%TD*%
D14*
%TO.C,C11*%
X121280000Y-97600000D03*
X120320000Y-97600000D03*
%TD*%
D15*
%TO.C,U1*%
X125312500Y-82810000D03*
X125312500Y-83760000D03*
X125312500Y-84710000D03*
X127587500Y-84710000D03*
X127587500Y-82810000D03*
%TD*%
D16*
%TO.C,R16*%
X120490000Y-91600000D03*
X121510000Y-91600000D03*
%TD*%
D11*
%TO.C,R10*%
X122500000Y-89610000D03*
X122500000Y-88590000D03*
%TD*%
D17*
%TO.C,U2*%
X125500000Y-89150000D03*
X127200000Y-89150000D03*
X127200000Y-87150000D03*
X125500000Y-87150000D03*
D18*
X123687500Y-86245000D03*
X123687500Y-87515000D03*
X123687500Y-88785000D03*
X123687500Y-90055000D03*
X129012500Y-90055000D03*
X129012500Y-88785000D03*
X129012500Y-87515000D03*
X129012500Y-86245000D03*
%TD*%
D11*
%TO.C,R9*%
X125300000Y-102310000D03*
X125300000Y-101290000D03*
%TD*%
D19*
%TO.C,R7*%
X130250000Y-88202973D03*
X130250000Y-89222973D03*
%TD*%
D13*
%TO.C,C2*%
X129050000Y-82830000D03*
X129050000Y-83790000D03*
%TD*%
D20*
%TO.C,J1*%
X120375000Y-80000000D03*
X132025000Y-80000000D03*
D21*
X132000000Y-76100000D03*
X120375000Y-76100000D03*
D22*
X123000000Y-80900000D03*
X129400000Y-80900000D03*
X128600000Y-80900000D03*
X123800000Y-80900000D03*
D23*
X127450000Y-80900000D03*
X126450000Y-80900000D03*
X125950000Y-80900000D03*
X124950000Y-80900000D03*
X124450000Y-80900000D03*
X125450000Y-80900000D03*
X126950000Y-80900000D03*
X127958000Y-80900000D03*
%TD*%
D16*
%TO.C,R4*%
X131040000Y-82050000D03*
X132060000Y-82050000D03*
%TD*%
D10*
%TO.C,C15*%
X121200000Y-93530000D03*
X121200000Y-92570000D03*
%TD*%
D24*
%TO.C,C7*%
X122320000Y-104750000D03*
X123280000Y-104750000D03*
%TD*%
D19*
%TO.C,R15*%
X131800000Y-100790000D03*
X131800000Y-101810000D03*
%TD*%
D14*
%TO.C,C12*%
X127830000Y-91460000D03*
X126870000Y-91460000D03*
%TD*%
D10*
%TO.C,C5*%
X125300000Y-104500000D03*
X125300000Y-103540000D03*
%TD*%
D14*
%TO.C,C1*%
X123930000Y-84960000D03*
X122970000Y-84960000D03*
%TD*%
D16*
%TO.C,R12*%
X127140000Y-102500000D03*
X128160000Y-102500000D03*
%TD*%
D19*
%TO.C,R5*%
X128150000Y-103540000D03*
X128150000Y-104560000D03*
%TD*%
D16*
%TO.C,R17*%
X120440000Y-104750000D03*
X121460000Y-104750000D03*
%TD*%
%TO.C,R1*%
X128890000Y-84850000D03*
X129910000Y-84850000D03*
%TD*%
D25*
%TO.C,F1*%
X122112500Y-83760000D03*
X123687500Y-83760000D03*
%TD*%
D26*
%TO.C,R11*%
X127210000Y-103500000D03*
X126190000Y-103500000D03*
%TD*%
D27*
%TO.C,Q1*%
X130150000Y-103700000D03*
X130150000Y-104200000D03*
X130150000Y-104700000D03*
X131650000Y-104700000D03*
X131650000Y-104200000D03*
X131650000Y-103700000D03*
%TD*%
D26*
%TO.C,R14*%
X127210000Y-104500000D03*
X126190000Y-104500000D03*
%TD*%
D10*
%TO.C,C6*%
X124350000Y-102230000D03*
X124350000Y-101270000D03*
%TD*%
D28*
%TO.C,U3*%
X126837500Y-96897500D03*
X125562500Y-95622500D03*
X125562500Y-96897500D03*
X126837500Y-95622500D03*
D29*
X122762500Y-93660000D03*
X122762500Y-94060000D03*
X122762500Y-94460000D03*
X122762500Y-94860000D03*
X122762500Y-95260000D03*
X122762500Y-95660000D03*
X122762500Y-96060000D03*
X122762500Y-96460000D03*
X122762500Y-96860000D03*
X122762500Y-97260000D03*
X122762500Y-97660000D03*
X122762500Y-98060000D03*
X122762500Y-98460000D03*
X122762500Y-98860000D03*
D30*
X123600000Y-99697500D03*
X124000000Y-99697500D03*
X124400000Y-99697500D03*
X124800000Y-99697500D03*
X125200000Y-99697500D03*
X125600000Y-99697500D03*
X126000000Y-99697500D03*
X126400000Y-99697500D03*
X126800000Y-99697500D03*
X127200000Y-99697500D03*
X127600000Y-99697500D03*
X128000000Y-99697500D03*
X128400000Y-99697500D03*
X128800000Y-99697500D03*
D29*
X129637500Y-98860000D03*
X129637500Y-98460000D03*
X129637500Y-98060000D03*
X129637500Y-97660000D03*
X129637500Y-97260000D03*
X129637500Y-96860000D03*
X129637500Y-96460000D03*
X129637500Y-96060000D03*
X129637500Y-95660000D03*
X129637500Y-95260000D03*
X129637500Y-94860000D03*
X129637500Y-94460000D03*
X129637500Y-94060000D03*
X129637500Y-93660000D03*
D30*
X128800000Y-92822500D03*
X128400000Y-92822500D03*
X128000000Y-92822500D03*
X127600000Y-92822500D03*
X127200000Y-92822500D03*
X126800000Y-92822500D03*
X126400000Y-92822500D03*
X126000000Y-92822500D03*
X125600000Y-92822500D03*
X125200000Y-92822500D03*
X124800000Y-92822500D03*
X124400000Y-92822500D03*
X124000000Y-92822500D03*
X123600000Y-92822500D03*
%TD*%
D11*
%TO.C,R13*%
X129100000Y-104560000D03*
X129100000Y-103540000D03*
%TD*%
D19*
%TO.C,R3*%
X120900000Y-83440000D03*
X120900000Y-84460000D03*
%TD*%
D13*
%TO.C,C4*%
X130100000Y-85820000D03*
X130100000Y-86780000D03*
%TD*%
D24*
%TO.C,C9*%
X128720000Y-91460000D03*
X129680000Y-91460000D03*
%TD*%
%TO.C,C17*%
X127170000Y-101350000D03*
X128130000Y-101350000D03*
%TD*%
%TO.C,C14*%
X131020000Y-97100000D03*
X131980000Y-97100000D03*
%TD*%
D31*
%TO.C,Y1*%
X123100000Y-103425000D03*
X123100000Y-101675000D03*
X121700000Y-101675000D03*
X121700000Y-103425000D03*
%TD*%
D32*
%TO.C,D2*%
X121250000Y-90387500D03*
X121250000Y-88812500D03*
%TD*%
D26*
%TO.C,R2*%
X122110000Y-82560000D03*
X121090000Y-82560000D03*
%TD*%
D14*
%TO.C,C18*%
X125930000Y-91460000D03*
X124970000Y-91460000D03*
%TD*%
D33*
%TO.C,D1*%
X121500000Y-87600000D03*
X121500000Y-85500000D03*
%TD*%
D27*
%TO.C,Q2*%
X130700000Y-102500000D03*
X130700000Y-102000000D03*
X130700000Y-101500000D03*
X129200000Y-101500000D03*
X129200000Y-102000000D03*
X129200000Y-102500000D03*
%TD*%
D10*
%TO.C,C13*%
X130600000Y-91490000D03*
X130600000Y-90530000D03*
%TD*%
D14*
%TO.C,C3*%
X123930000Y-82560000D03*
X122970000Y-82560000D03*
%TD*%
D10*
%TO.C,C16*%
X131300000Y-93610000D03*
X131300000Y-92650000D03*
%TD*%
D19*
%TO.C,R8*%
X131250000Y-88202973D03*
X131250000Y-89222973D03*
%TD*%
M02*
