%TF.GenerationSoftware,KiCad,Pcbnew,6.0.3-a3aad9c10e~116~ubuntu20.04.1*%
%TF.CreationDate,2022-03-24T21:59:22+11:00*%
%TF.ProjectId,sea-picro,7365612d-7069-4637-926f-2e6b69636164,0.2*%
%TF.SameCoordinates,Original*%
%TF.FileFunction,Legend,Top*%
%TF.FilePolarity,Positive*%
%FSLAX46Y46*%
G04 Gerber Fmt 4.6, Leading zero omitted, Abs format (unit mm)*
G04 Created by KiCad (PCBNEW 6.0.3-a3aad9c10e~116~ubuntu20.04.1) date 2022-03-24 21:59:22*
%MOMM*%
%LPD*%
G01*
G04 APERTURE LIST*
%ADD10C,0.120000*%
G04 APERTURE END LIST*
D10*
%TO.C,C19*%
X124040000Y-104127836D02*
X124040000Y-103912164D01*
X124760000Y-104127836D02*
X124760000Y-103912164D01*
%TO.C,R6*%
X122120000Y-91153641D02*
X122120000Y-90846359D01*
X122880000Y-91153641D02*
X122880000Y-90846359D01*
%TO.C,U4*%
X130600000Y-86950000D02*
X130600000Y-85400000D01*
X132400000Y-85400000D02*
X132400000Y-86700000D01*
%TO.C,C10*%
X131190000Y-91117836D02*
X131190000Y-90902164D01*
X131910000Y-91117836D02*
X131910000Y-90902164D01*
%TO.C,C8*%
X125890000Y-101692164D02*
X125890000Y-101907836D01*
X126610000Y-101692164D02*
X126610000Y-101907836D01*
%TO.C,C11*%
X120907836Y-97960000D02*
X120692164Y-97960000D01*
X120907836Y-97240000D02*
X120692164Y-97240000D01*
%TO.C,U1*%
X126450000Y-85320000D02*
X125650000Y-85320000D01*
X126450000Y-82200000D02*
X124650000Y-82200000D01*
X126450000Y-85320000D02*
X127250000Y-85320000D01*
X126450000Y-82200000D02*
X127250000Y-82200000D01*
%TO.C,R16*%
X120846359Y-91980000D02*
X121153641Y-91980000D01*
X120846359Y-91220000D02*
X121153641Y-91220000D01*
%TO.C,R10*%
X122120000Y-89253641D02*
X122120000Y-88946359D01*
X122880000Y-89253641D02*
X122880000Y-88946359D01*
%TO.C,U2*%
X126350000Y-85540000D02*
X129350000Y-85540000D01*
X123350000Y-90760000D02*
X129350000Y-90760000D01*
%TO.C,R9*%
X125680000Y-101953641D02*
X125680000Y-101646359D01*
X124920000Y-101953641D02*
X124920000Y-101646359D01*
%TO.C,R7*%
X130630000Y-88559332D02*
X130630000Y-88866614D01*
X129870000Y-88559332D02*
X129870000Y-88866614D01*
%TO.C,C2*%
X129410000Y-83202164D02*
X129410000Y-83417836D01*
X128690000Y-83202164D02*
X128690000Y-83417836D01*
%TO.C,R4*%
X131396359Y-82430000D02*
X131703641Y-82430000D01*
X131396359Y-81670000D02*
X131703641Y-81670000D01*
%TO.C,C15*%
X120840000Y-93157836D02*
X120840000Y-92942164D01*
X121560000Y-93157836D02*
X121560000Y-92942164D01*
%TO.C,C7*%
X122692164Y-105110000D02*
X122907836Y-105110000D01*
X122692164Y-104390000D02*
X122907836Y-104390000D01*
%TO.C,R15*%
X132180000Y-101146359D02*
X132180000Y-101453641D01*
X131420000Y-101146359D02*
X131420000Y-101453641D01*
%TO.C,C12*%
X127457836Y-91100000D02*
X127242164Y-91100000D01*
X127457836Y-91820000D02*
X127242164Y-91820000D01*
%TO.C,C5*%
X125660000Y-104127836D02*
X125660000Y-103912164D01*
X124940000Y-104127836D02*
X124940000Y-103912164D01*
%TO.C,C1*%
X123557836Y-85320000D02*
X123342164Y-85320000D01*
X123557836Y-84600000D02*
X123342164Y-84600000D01*
%TO.C,R12*%
X127496359Y-102880000D02*
X127803641Y-102880000D01*
X127496359Y-102120000D02*
X127803641Y-102120000D01*
%TO.C,R5*%
X128530000Y-103896359D02*
X128530000Y-104203641D01*
X127770000Y-103896359D02*
X127770000Y-104203641D01*
%TO.C,R17*%
X120796359Y-105130000D02*
X121103641Y-105130000D01*
X120796359Y-104370000D02*
X121103641Y-104370000D01*
%TO.C,R1*%
X129246359Y-85230000D02*
X129553641Y-85230000D01*
X129246359Y-84470000D02*
X129553641Y-84470000D01*
%TO.C,F1*%
X122737221Y-83250000D02*
X123062779Y-83250000D01*
X122737221Y-84270000D02*
X123062779Y-84270000D01*
%TO.C,R11*%
X126853641Y-103880000D02*
X126546359Y-103880000D01*
X126853641Y-103120000D02*
X126546359Y-103120000D01*
%TO.C,Q1*%
X130000000Y-103300000D02*
X131550000Y-103300000D01*
X131550000Y-105100000D02*
X130250000Y-105100000D01*
%TO.C,R14*%
X126853641Y-104120000D02*
X126546359Y-104120000D01*
X126853641Y-104880000D02*
X126546359Y-104880000D01*
%TO.C,C6*%
X123990000Y-101857836D02*
X123990000Y-101642164D01*
X124710000Y-101857836D02*
X124710000Y-101642164D01*
%TO.C,U3*%
X129160000Y-99870000D02*
X129810000Y-99870000D01*
X122590000Y-99870000D02*
X122590000Y-99220000D01*
X129810000Y-92650000D02*
X129810000Y-93300000D01*
X129810000Y-99870000D02*
X129810000Y-99220000D01*
X129160000Y-92650000D02*
X129810000Y-92650000D01*
X123240000Y-99870000D02*
X122590000Y-99870000D01*
X123240000Y-92650000D02*
X122590000Y-92650000D01*
%TO.C,R13*%
X128720000Y-104203641D02*
X128720000Y-103896359D01*
X129480000Y-104203641D02*
X129480000Y-103896359D01*
%TO.C,R3*%
X121280000Y-83796359D02*
X121280000Y-84103641D01*
X120520000Y-83796359D02*
X120520000Y-84103641D01*
%TO.C,C4*%
X129740000Y-86192164D02*
X129740000Y-86407836D01*
X130460000Y-86192164D02*
X130460000Y-86407836D01*
%TO.C,C9*%
X129092164Y-91100000D02*
X129307836Y-91100000D01*
X129092164Y-91820000D02*
X129307836Y-91820000D01*
%TO.C,C17*%
X127542164Y-101710000D02*
X127757836Y-101710000D01*
X127542164Y-100990000D02*
X127757836Y-100990000D01*
%TO.C,C14*%
X131392164Y-96740000D02*
X131607836Y-96740000D01*
X131392164Y-97460000D02*
X131607836Y-97460000D01*
%TO.C,D2*%
X120515000Y-88800000D02*
X120515000Y-91085000D01*
X121985000Y-91085000D02*
X121985000Y-88800000D01*
X120515000Y-91085000D02*
X121985000Y-91085000D01*
%TO.C,R2*%
X121753641Y-82940000D02*
X121446359Y-82940000D01*
X121753641Y-82180000D02*
X121446359Y-82180000D01*
%TO.C,C18*%
X125557836Y-91100000D02*
X125342164Y-91100000D01*
X125557836Y-91820000D02*
X125342164Y-91820000D01*
%TO.C,D1*%
X120650000Y-88050000D02*
X122350000Y-88050000D01*
X122350000Y-88050000D02*
X122350000Y-85500000D01*
X120650000Y-88050000D02*
X120650000Y-85500000D01*
%TO.C,Q2*%
X130850000Y-102900000D02*
X129300000Y-102900000D01*
X129300000Y-101100000D02*
X130600000Y-101100000D01*
%TO.C,C13*%
X130240000Y-91117836D02*
X130240000Y-90902164D01*
X130960000Y-91117836D02*
X130960000Y-90902164D01*
%TO.C,C3*%
X123557836Y-82200000D02*
X123342164Y-82200000D01*
X123557836Y-82920000D02*
X123342164Y-82920000D01*
%TO.C,C16*%
X130940000Y-93237836D02*
X130940000Y-93022164D01*
X131660000Y-93237836D02*
X131660000Y-93022164D01*
%TO.C,R8*%
X130870000Y-88559332D02*
X130870000Y-88866614D01*
X131630000Y-88559332D02*
X131630000Y-88866614D01*
%TD*%
M02*
