%TF.GenerationSoftware,KiCad,Pcbnew,6.0.3-a3aad9c10e~116~ubuntu20.04.1*%
%TF.CreationDate,2022-03-24T21:59:22+11:00*%
%TF.ProjectId,sea-picro,7365612d-7069-4637-926f-2e6b69636164,0.2*%
%TF.SameCoordinates,Original*%
%TF.FileFunction,Soldermask,Bot*%
%TF.FilePolarity,Negative*%
%FSLAX46Y46*%
G04 Gerber Fmt 4.6, Leading zero omitted, Abs format (unit mm)*
G04 Created by KiCad (PCBNEW 6.0.3-a3aad9c10e~116~ubuntu20.04.1) date 2022-03-24 21:59:22*
%MOMM*%
%LPD*%
G01*
G04 APERTURE LIST*
%ADD10C,0.010000*%
%ADD11C,1.700000*%
%ADD12C,0.500000*%
%ADD13O,1.000000X2.200000*%
%ADD14O,1.000000X1.800000*%
%ADD15O,1.700000X1.700000*%
%ADD16C,1.000000*%
G04 APERTURE END LIST*
%TO.C,LOGO1*%
G36*
X126236630Y-98413250D02*
G01*
X126281361Y-98413376D01*
X126317468Y-98413657D01*
X126345841Y-98414121D01*
X126367367Y-98414801D01*
X126382937Y-98415727D01*
X126393437Y-98416928D01*
X126399758Y-98418437D01*
X126402788Y-98420283D01*
X126402950Y-98420524D01*
X126405367Y-98428012D01*
X126409324Y-98444228D01*
X126414580Y-98468028D01*
X126420896Y-98498266D01*
X126428032Y-98533799D01*
X126435748Y-98573481D01*
X126443805Y-98616168D01*
X126444622Y-98620558D01*
X126452580Y-98663135D01*
X126460042Y-98702714D01*
X126466784Y-98738129D01*
X126472580Y-98768215D01*
X126477207Y-98791805D01*
X126480440Y-98807736D01*
X126482055Y-98814840D01*
X126482872Y-98817193D01*
X126484764Y-98820708D01*
X126488214Y-98824266D01*
X126494205Y-98828340D01*
X126503719Y-98833403D01*
X126517736Y-98839926D01*
X126537240Y-98848382D01*
X126563212Y-98859243D01*
X126596634Y-98872981D01*
X126638488Y-98890068D01*
X126662123Y-98899677D01*
X126695627Y-98913124D01*
X126721529Y-98923187D01*
X126740932Y-98930234D01*
X126754941Y-98934631D01*
X126764661Y-98936744D01*
X126771195Y-98936941D01*
X126775648Y-98935587D01*
X126775904Y-98935446D01*
X126783185Y-98930841D01*
X126797752Y-98921211D01*
X126818605Y-98907230D01*
X126844747Y-98889573D01*
X126875178Y-98868914D01*
X126908900Y-98845928D01*
X126944914Y-98821289D01*
X126948795Y-98818631D01*
X126984474Y-98794382D01*
X127017700Y-98772122D01*
X127047492Y-98752487D01*
X127072867Y-98736110D01*
X127092844Y-98723627D01*
X127106440Y-98715672D01*
X127112675Y-98712880D01*
X127116826Y-98715105D01*
X127127977Y-98724081D01*
X127145194Y-98739461D01*
X127167932Y-98760731D01*
X127195644Y-98787378D01*
X127227782Y-98818889D01*
X127263801Y-98854749D01*
X127271036Y-98862005D01*
X127306992Y-98898226D01*
X127336292Y-98928078D01*
X127359479Y-98952154D01*
X127377095Y-98971048D01*
X127389683Y-98985355D01*
X127397786Y-98995668D01*
X127401946Y-99002579D01*
X127402707Y-99006684D01*
X127402566Y-99007090D01*
X127398417Y-99014516D01*
X127389222Y-99029175D01*
X127375629Y-99050088D01*
X127358287Y-99076274D01*
X127337845Y-99106750D01*
X127314952Y-99140538D01*
X127290258Y-99176655D01*
X127286389Y-99182293D01*
X127262061Y-99217976D01*
X127239746Y-99251089D01*
X127220076Y-99280667D01*
X127203681Y-99305749D01*
X127191189Y-99325372D01*
X127183233Y-99338575D01*
X127180440Y-99344394D01*
X127182031Y-99350165D01*
X127187197Y-99364123D01*
X127195341Y-99384611D01*
X127205839Y-99410185D01*
X127218069Y-99439397D01*
X127231409Y-99470802D01*
X127245237Y-99502954D01*
X127258930Y-99534406D01*
X127271866Y-99563713D01*
X127283423Y-99589428D01*
X127292978Y-99610106D01*
X127299910Y-99624301D01*
X127303595Y-99630566D01*
X127303677Y-99630637D01*
X127310424Y-99633026D01*
X127325970Y-99636937D01*
X127349164Y-99642126D01*
X127378855Y-99648352D01*
X127413892Y-99655374D01*
X127453124Y-99662950D01*
X127495400Y-99670838D01*
X127496514Y-99671042D01*
X127538991Y-99678971D01*
X127578616Y-99686617D01*
X127614198Y-99693732D01*
X127644545Y-99700066D01*
X127668464Y-99705372D01*
X127684763Y-99709400D01*
X127692250Y-99711902D01*
X127703680Y-99718954D01*
X127703680Y-99918875D01*
X127703664Y-99948724D01*
X127703535Y-99995541D01*
X127703254Y-100033536D01*
X127702793Y-100063571D01*
X127702123Y-100086509D01*
X127701215Y-100103211D01*
X127700039Y-100114541D01*
X127698567Y-100121360D01*
X127696769Y-100124531D01*
X127691002Y-100126560D01*
X127676249Y-100130232D01*
X127653770Y-100135217D01*
X127624739Y-100141273D01*
X127590331Y-100148154D01*
X127551719Y-100155616D01*
X127510079Y-100163414D01*
X127471438Y-100170597D01*
X127432191Y-100178018D01*
X127396909Y-100184819D01*
X127366798Y-100190762D01*
X127343064Y-100195609D01*
X127326915Y-100199121D01*
X127319556Y-100201059D01*
X127315606Y-100204485D01*
X127310167Y-100212734D01*
X127302994Y-100226551D01*
X127293724Y-100246727D01*
X127281995Y-100274051D01*
X127267443Y-100309314D01*
X127249706Y-100353307D01*
X127242700Y-100370874D01*
X127228688Y-100406333D01*
X127216198Y-100438385D01*
X127205686Y-100465826D01*
X127197610Y-100487455D01*
X127192429Y-100502070D01*
X127190600Y-100508469D01*
X127192819Y-100513237D01*
X127200215Y-100525605D01*
X127212169Y-100544428D01*
X127228027Y-100568706D01*
X127247135Y-100597438D01*
X127268839Y-100629625D01*
X127292485Y-100664266D01*
X127295031Y-100667973D01*
X127323004Y-100708721D01*
X127345788Y-100741980D01*
X127363895Y-100768575D01*
X127377835Y-100789330D01*
X127388121Y-100805072D01*
X127395263Y-100816624D01*
X127399774Y-100824812D01*
X127402165Y-100830460D01*
X127402948Y-100834393D01*
X127402633Y-100837436D01*
X127401734Y-100840413D01*
X127401499Y-100840896D01*
X127396153Y-100847552D01*
X127384527Y-100860363D01*
X127367423Y-100878494D01*
X127345643Y-100901112D01*
X127319990Y-100927382D01*
X127291264Y-100956470D01*
X127260269Y-100987541D01*
X127254191Y-100993597D01*
X127223432Y-101024006D01*
X127194852Y-101051880D01*
X127169279Y-101076437D01*
X127147540Y-101096897D01*
X127130465Y-101112478D01*
X127118879Y-101122399D01*
X127113613Y-101125880D01*
X127111286Y-101125480D01*
X127106181Y-101123388D01*
X127098261Y-101119097D01*
X127086837Y-101112155D01*
X127071219Y-101102109D01*
X127050719Y-101088506D01*
X127024648Y-101070892D01*
X126992318Y-101048815D01*
X126953038Y-101021822D01*
X126906120Y-100989461D01*
X126888759Y-100977551D01*
X126861494Y-100959184D01*
X126837291Y-100943286D01*
X126817462Y-100930700D01*
X126803320Y-100922269D01*
X126796178Y-100918837D01*
X126788125Y-100920007D01*
X126771684Y-100926189D01*
X126748166Y-100937192D01*
X126718358Y-100952672D01*
X126707530Y-100958437D01*
X126684210Y-100970387D01*
X126664255Y-100979995D01*
X126649502Y-100986394D01*
X126641789Y-100988720D01*
X126634980Y-100986716D01*
X126626747Y-100978609D01*
X126625681Y-100976309D01*
X126620898Y-100965249D01*
X126612747Y-100946026D01*
X126601558Y-100919433D01*
X126587666Y-100886268D01*
X126571401Y-100847325D01*
X126553097Y-100803399D01*
X126533086Y-100755286D01*
X126511700Y-100703781D01*
X126489272Y-100649679D01*
X126465834Y-100592901D01*
X126442154Y-100535085D01*
X126421047Y-100483043D01*
X126402713Y-100437287D01*
X126387353Y-100398326D01*
X126375168Y-100366671D01*
X126366359Y-100342833D01*
X126361128Y-100327322D01*
X126359675Y-100320648D01*
X126360128Y-100319264D01*
X126367168Y-100309785D01*
X126378861Y-100300883D01*
X126381486Y-100299354D01*
X126402977Y-100285368D01*
X126428252Y-100267052D01*
X126454238Y-100246791D01*
X126477860Y-100226971D01*
X126496045Y-100209975D01*
X126536584Y-100161687D01*
X126569312Y-100107510D01*
X126593008Y-100049065D01*
X126607414Y-99986989D01*
X126612273Y-99921920D01*
X126610140Y-99873443D01*
X126602766Y-99827726D01*
X126589244Y-99783357D01*
X126568671Y-99736500D01*
X126558799Y-99717707D01*
X126523146Y-99663933D01*
X126480031Y-99616763D01*
X126430039Y-99576690D01*
X126373754Y-99544205D01*
X126311760Y-99519802D01*
X126304222Y-99517516D01*
X126288123Y-99513357D01*
X126271907Y-99510578D01*
X126253064Y-99508916D01*
X126229085Y-99508110D01*
X126197460Y-99507900D01*
X126182407Y-99507935D01*
X126154503Y-99508373D01*
X126133146Y-99509519D01*
X126115835Y-99511632D01*
X126100067Y-99514974D01*
X126083340Y-99519807D01*
X126054646Y-99529755D01*
X125995192Y-99557422D01*
X125941983Y-99592833D01*
X125894336Y-99636411D01*
X125891273Y-99639692D01*
X125851441Y-99689891D01*
X125820244Y-99744342D01*
X125797837Y-99802019D01*
X125784377Y-99861898D01*
X125780021Y-99922953D01*
X125784924Y-99984158D01*
X125799244Y-100044488D01*
X125823137Y-100102918D01*
X125833806Y-100123247D01*
X125855568Y-100158997D01*
X125879797Y-100190682D01*
X125908247Y-100220231D01*
X125942673Y-100249570D01*
X125984827Y-100280629D01*
X126000766Y-100292102D01*
X126017277Y-100304827D01*
X126029051Y-100314897D01*
X126034240Y-100320809D01*
X126033636Y-100324031D01*
X126029648Y-100336060D01*
X126022264Y-100356143D01*
X126011788Y-100383510D01*
X125998527Y-100417386D01*
X125982787Y-100456998D01*
X125964872Y-100501575D01*
X125945089Y-100550342D01*
X125923743Y-100602528D01*
X125901140Y-100657359D01*
X125896546Y-100668459D01*
X125870380Y-100731582D01*
X125847728Y-100786012D01*
X125828316Y-100832365D01*
X125811871Y-100871257D01*
X125798116Y-100903305D01*
X125786780Y-100929125D01*
X125777586Y-100949334D01*
X125770262Y-100964547D01*
X125764533Y-100975381D01*
X125760126Y-100982452D01*
X125756765Y-100986377D01*
X125754177Y-100987771D01*
X125752544Y-100987744D01*
X125741828Y-100984622D01*
X125724486Y-100977375D01*
X125702200Y-100966747D01*
X125676650Y-100953481D01*
X125666009Y-100947810D01*
X125642843Y-100935890D01*
X125623106Y-100926305D01*
X125608614Y-100919920D01*
X125601188Y-100917600D01*
X125595473Y-100920183D01*
X125582304Y-100927942D01*
X125562753Y-100940232D01*
X125537821Y-100956405D01*
X125508507Y-100975813D01*
X125475808Y-100997807D01*
X125440726Y-101021740D01*
X125406902Y-101044834D01*
X125374186Y-101066900D01*
X125344853Y-101086406D01*
X125319898Y-101102705D01*
X125300310Y-101115148D01*
X125287083Y-101123089D01*
X125281208Y-101125880D01*
X125280906Y-101125834D01*
X125274529Y-101121554D01*
X125262190Y-101110985D01*
X125244838Y-101095081D01*
X125223422Y-101074792D01*
X125198891Y-101051071D01*
X125172193Y-101024870D01*
X125144277Y-100997142D01*
X125116092Y-100968838D01*
X125088586Y-100940912D01*
X125062710Y-100914314D01*
X125039410Y-100889997D01*
X125019637Y-100868914D01*
X125004338Y-100852017D01*
X124994463Y-100840258D01*
X124990960Y-100834588D01*
X124993617Y-100828568D01*
X125001442Y-100815130D01*
X125013791Y-100795331D01*
X125030018Y-100770174D01*
X125049474Y-100740662D01*
X125071513Y-100707797D01*
X125095488Y-100672582D01*
X125119052Y-100638151D01*
X125141303Y-100605498D01*
X125161094Y-100576312D01*
X125177764Y-100551573D01*
X125190652Y-100532262D01*
X125199099Y-100519358D01*
X125202444Y-100513842D01*
X125202380Y-100511987D01*
X125199592Y-100501771D01*
X125193631Y-100484233D01*
X125185054Y-100460763D01*
X125174420Y-100432747D01*
X125162288Y-100401575D01*
X125149215Y-100368634D01*
X125135760Y-100335313D01*
X125122481Y-100303000D01*
X125109937Y-100273082D01*
X125098686Y-100246948D01*
X125089286Y-100225987D01*
X125082296Y-100211585D01*
X125078274Y-100205133D01*
X125074751Y-100203525D01*
X125061646Y-100199758D01*
X125040063Y-100194611D01*
X125010938Y-100188286D01*
X124975202Y-100180981D01*
X124933790Y-100172897D01*
X124887635Y-100164236D01*
X124846530Y-100156543D01*
X124807550Y-100149013D01*
X124772729Y-100142050D01*
X124743235Y-100135898D01*
X124720237Y-100130799D01*
X124704905Y-100126999D01*
X124698405Y-100124741D01*
X124696954Y-100122699D01*
X124695361Y-100117303D01*
X124694084Y-100107996D01*
X124693092Y-100093884D01*
X124692353Y-100074077D01*
X124691838Y-100047680D01*
X124691514Y-100013801D01*
X124691351Y-99971548D01*
X124691318Y-99920027D01*
X124691329Y-99909159D01*
X124691497Y-99865663D01*
X124691849Y-99825514D01*
X124692362Y-99789847D01*
X124693011Y-99759798D01*
X124693775Y-99736503D01*
X124694628Y-99721096D01*
X124695549Y-99714714D01*
X124698415Y-99713184D01*
X124710603Y-99709544D01*
X124731582Y-99704463D01*
X124760610Y-99698102D01*
X124796947Y-99690621D01*
X124839854Y-99682180D01*
X124888591Y-99672940D01*
X124893243Y-99672071D01*
X124935764Y-99664044D01*
X124975233Y-99656439D01*
X125010492Y-99649491D01*
X125040384Y-99643434D01*
X125063752Y-99638502D01*
X125079440Y-99634928D01*
X125086290Y-99632948D01*
X125086757Y-99632592D01*
X125091654Y-99625265D01*
X125099825Y-99609772D01*
X125110769Y-99587168D01*
X125123989Y-99558510D01*
X125138982Y-99524852D01*
X125155251Y-99487252D01*
X125163610Y-99467619D01*
X125179509Y-99429867D01*
X125191759Y-99400007D01*
X125200708Y-99377084D01*
X125206701Y-99360143D01*
X125210088Y-99348231D01*
X125211216Y-99340391D01*
X125210432Y-99335670D01*
X125210374Y-99335550D01*
X125206193Y-99328692D01*
X125196940Y-99314521D01*
X125183292Y-99294038D01*
X125165920Y-99268244D01*
X125145501Y-99238139D01*
X125122706Y-99204726D01*
X125098212Y-99169005D01*
X125096659Y-99166745D01*
X125072453Y-99131269D01*
X125050217Y-99098226D01*
X125030590Y-99068598D01*
X125014211Y-99043372D01*
X125001721Y-99023530D01*
X124993757Y-99010058D01*
X124990960Y-99003938D01*
X124991001Y-99003651D01*
X124995226Y-98997246D01*
X125005739Y-98984864D01*
X125021588Y-98967458D01*
X125041822Y-98945978D01*
X125065492Y-98921376D01*
X125091645Y-98894603D01*
X125119331Y-98866609D01*
X125147600Y-98838347D01*
X125175500Y-98810767D01*
X125202081Y-98784820D01*
X125226391Y-98761458D01*
X125247480Y-98741632D01*
X125264398Y-98726292D01*
X125276193Y-98716391D01*
X125281914Y-98712879D01*
X125282599Y-98713028D01*
X125290444Y-98717059D01*
X125305451Y-98726126D01*
X125326661Y-98739606D01*
X125353114Y-98756874D01*
X125383852Y-98777306D01*
X125417915Y-98800277D01*
X125454344Y-98825162D01*
X125463014Y-98831119D01*
X125498820Y-98855669D01*
X125531886Y-98878260D01*
X125561276Y-98898257D01*
X125586052Y-98915025D01*
X125605276Y-98927928D01*
X125618012Y-98936333D01*
X125623322Y-98939605D01*
X125623329Y-98939607D01*
X125629206Y-98938242D01*
X125643001Y-98933508D01*
X125663279Y-98925983D01*
X125688608Y-98916248D01*
X125717553Y-98904882D01*
X125748680Y-98892466D01*
X125780554Y-98879578D01*
X125811742Y-98866800D01*
X125840810Y-98854710D01*
X125866324Y-98843889D01*
X125886849Y-98834916D01*
X125900952Y-98828371D01*
X125907198Y-98824834D01*
X125907628Y-98824000D01*
X125910103Y-98815177D01*
X125914102Y-98797798D01*
X125919401Y-98772957D01*
X125925775Y-98741748D01*
X125932999Y-98705265D01*
X125940849Y-98664601D01*
X125949099Y-98620850D01*
X125956953Y-98579237D01*
X125965821Y-98533644D01*
X125973732Y-98494573D01*
X125980534Y-98462721D01*
X125986078Y-98438787D01*
X125990213Y-98423471D01*
X125992790Y-98417471D01*
X125993443Y-98417244D01*
X126002107Y-98416337D01*
X126019522Y-98415502D01*
X126044552Y-98414763D01*
X126076061Y-98414144D01*
X126112914Y-98413668D01*
X126153975Y-98413358D01*
X126198108Y-98413237D01*
X126236630Y-98413250D01*
G37*
D10*
X126236630Y-98413250D02*
X126281361Y-98413376D01*
X126317468Y-98413657D01*
X126345841Y-98414121D01*
X126367367Y-98414801D01*
X126382937Y-98415727D01*
X126393437Y-98416928D01*
X126399758Y-98418437D01*
X126402788Y-98420283D01*
X126402950Y-98420524D01*
X126405367Y-98428012D01*
X126409324Y-98444228D01*
X126414580Y-98468028D01*
X126420896Y-98498266D01*
X126428032Y-98533799D01*
X126435748Y-98573481D01*
X126443805Y-98616168D01*
X126444622Y-98620558D01*
X126452580Y-98663135D01*
X126460042Y-98702714D01*
X126466784Y-98738129D01*
X126472580Y-98768215D01*
X126477207Y-98791805D01*
X126480440Y-98807736D01*
X126482055Y-98814840D01*
X126482872Y-98817193D01*
X126484764Y-98820708D01*
X126488214Y-98824266D01*
X126494205Y-98828340D01*
X126503719Y-98833403D01*
X126517736Y-98839926D01*
X126537240Y-98848382D01*
X126563212Y-98859243D01*
X126596634Y-98872981D01*
X126638488Y-98890068D01*
X126662123Y-98899677D01*
X126695627Y-98913124D01*
X126721529Y-98923187D01*
X126740932Y-98930234D01*
X126754941Y-98934631D01*
X126764661Y-98936744D01*
X126771195Y-98936941D01*
X126775648Y-98935587D01*
X126775904Y-98935446D01*
X126783185Y-98930841D01*
X126797752Y-98921211D01*
X126818605Y-98907230D01*
X126844747Y-98889573D01*
X126875178Y-98868914D01*
X126908900Y-98845928D01*
X126944914Y-98821289D01*
X126948795Y-98818631D01*
X126984474Y-98794382D01*
X127017700Y-98772122D01*
X127047492Y-98752487D01*
X127072867Y-98736110D01*
X127092844Y-98723627D01*
X127106440Y-98715672D01*
X127112675Y-98712880D01*
X127116826Y-98715105D01*
X127127977Y-98724081D01*
X127145194Y-98739461D01*
X127167932Y-98760731D01*
X127195644Y-98787378D01*
X127227782Y-98818889D01*
X127263801Y-98854749D01*
X127271036Y-98862005D01*
X127306992Y-98898226D01*
X127336292Y-98928078D01*
X127359479Y-98952154D01*
X127377095Y-98971048D01*
X127389683Y-98985355D01*
X127397786Y-98995668D01*
X127401946Y-99002579D01*
X127402707Y-99006684D01*
X127402566Y-99007090D01*
X127398417Y-99014516D01*
X127389222Y-99029175D01*
X127375629Y-99050088D01*
X127358287Y-99076274D01*
X127337845Y-99106750D01*
X127314952Y-99140538D01*
X127290258Y-99176655D01*
X127286389Y-99182293D01*
X127262061Y-99217976D01*
X127239746Y-99251089D01*
X127220076Y-99280667D01*
X127203681Y-99305749D01*
X127191189Y-99325372D01*
X127183233Y-99338575D01*
X127180440Y-99344394D01*
X127182031Y-99350165D01*
X127187197Y-99364123D01*
X127195341Y-99384611D01*
X127205839Y-99410185D01*
X127218069Y-99439397D01*
X127231409Y-99470802D01*
X127245237Y-99502954D01*
X127258930Y-99534406D01*
X127271866Y-99563713D01*
X127283423Y-99589428D01*
X127292978Y-99610106D01*
X127299910Y-99624301D01*
X127303595Y-99630566D01*
X127303677Y-99630637D01*
X127310424Y-99633026D01*
X127325970Y-99636937D01*
X127349164Y-99642126D01*
X127378855Y-99648352D01*
X127413892Y-99655374D01*
X127453124Y-99662950D01*
X127495400Y-99670838D01*
X127496514Y-99671042D01*
X127538991Y-99678971D01*
X127578616Y-99686617D01*
X127614198Y-99693732D01*
X127644545Y-99700066D01*
X127668464Y-99705372D01*
X127684763Y-99709400D01*
X127692250Y-99711902D01*
X127703680Y-99718954D01*
X127703680Y-99918875D01*
X127703664Y-99948724D01*
X127703535Y-99995541D01*
X127703254Y-100033536D01*
X127702793Y-100063571D01*
X127702123Y-100086509D01*
X127701215Y-100103211D01*
X127700039Y-100114541D01*
X127698567Y-100121360D01*
X127696769Y-100124531D01*
X127691002Y-100126560D01*
X127676249Y-100130232D01*
X127653770Y-100135217D01*
X127624739Y-100141273D01*
X127590331Y-100148154D01*
X127551719Y-100155616D01*
X127510079Y-100163414D01*
X127471438Y-100170597D01*
X127432191Y-100178018D01*
X127396909Y-100184819D01*
X127366798Y-100190762D01*
X127343064Y-100195609D01*
X127326915Y-100199121D01*
X127319556Y-100201059D01*
X127315606Y-100204485D01*
X127310167Y-100212734D01*
X127302994Y-100226551D01*
X127293724Y-100246727D01*
X127281995Y-100274051D01*
X127267443Y-100309314D01*
X127249706Y-100353307D01*
X127242700Y-100370874D01*
X127228688Y-100406333D01*
X127216198Y-100438385D01*
X127205686Y-100465826D01*
X127197610Y-100487455D01*
X127192429Y-100502070D01*
X127190600Y-100508469D01*
X127192819Y-100513237D01*
X127200215Y-100525605D01*
X127212169Y-100544428D01*
X127228027Y-100568706D01*
X127247135Y-100597438D01*
X127268839Y-100629625D01*
X127292485Y-100664266D01*
X127295031Y-100667973D01*
X127323004Y-100708721D01*
X127345788Y-100741980D01*
X127363895Y-100768575D01*
X127377835Y-100789330D01*
X127388121Y-100805072D01*
X127395263Y-100816624D01*
X127399774Y-100824812D01*
X127402165Y-100830460D01*
X127402948Y-100834393D01*
X127402633Y-100837436D01*
X127401734Y-100840413D01*
X127401499Y-100840896D01*
X127396153Y-100847552D01*
X127384527Y-100860363D01*
X127367423Y-100878494D01*
X127345643Y-100901112D01*
X127319990Y-100927382D01*
X127291264Y-100956470D01*
X127260269Y-100987541D01*
X127254191Y-100993597D01*
X127223432Y-101024006D01*
X127194852Y-101051880D01*
X127169279Y-101076437D01*
X127147540Y-101096897D01*
X127130465Y-101112478D01*
X127118879Y-101122399D01*
X127113613Y-101125880D01*
X127111286Y-101125480D01*
X127106181Y-101123388D01*
X127098261Y-101119097D01*
X127086837Y-101112155D01*
X127071219Y-101102109D01*
X127050719Y-101088506D01*
X127024648Y-101070892D01*
X126992318Y-101048815D01*
X126953038Y-101021822D01*
X126906120Y-100989461D01*
X126888759Y-100977551D01*
X126861494Y-100959184D01*
X126837291Y-100943286D01*
X126817462Y-100930700D01*
X126803320Y-100922269D01*
X126796178Y-100918837D01*
X126788125Y-100920007D01*
X126771684Y-100926189D01*
X126748166Y-100937192D01*
X126718358Y-100952672D01*
X126707530Y-100958437D01*
X126684210Y-100970387D01*
X126664255Y-100979995D01*
X126649502Y-100986394D01*
X126641789Y-100988720D01*
X126634980Y-100986716D01*
X126626747Y-100978609D01*
X126625681Y-100976309D01*
X126620898Y-100965249D01*
X126612747Y-100946026D01*
X126601558Y-100919433D01*
X126587666Y-100886268D01*
X126571401Y-100847325D01*
X126553097Y-100803399D01*
X126533086Y-100755286D01*
X126511700Y-100703781D01*
X126489272Y-100649679D01*
X126465834Y-100592901D01*
X126442154Y-100535085D01*
X126421047Y-100483043D01*
X126402713Y-100437287D01*
X126387353Y-100398326D01*
X126375168Y-100366671D01*
X126366359Y-100342833D01*
X126361128Y-100327322D01*
X126359675Y-100320648D01*
X126360128Y-100319264D01*
X126367168Y-100309785D01*
X126378861Y-100300883D01*
X126381486Y-100299354D01*
X126402977Y-100285368D01*
X126428252Y-100267052D01*
X126454238Y-100246791D01*
X126477860Y-100226971D01*
X126496045Y-100209975D01*
X126536584Y-100161687D01*
X126569312Y-100107510D01*
X126593008Y-100049065D01*
X126607414Y-99986989D01*
X126612273Y-99921920D01*
X126610140Y-99873443D01*
X126602766Y-99827726D01*
X126589244Y-99783357D01*
X126568671Y-99736500D01*
X126558799Y-99717707D01*
X126523146Y-99663933D01*
X126480031Y-99616763D01*
X126430039Y-99576690D01*
X126373754Y-99544205D01*
X126311760Y-99519802D01*
X126304222Y-99517516D01*
X126288123Y-99513357D01*
X126271907Y-99510578D01*
X126253064Y-99508916D01*
X126229085Y-99508110D01*
X126197460Y-99507900D01*
X126182407Y-99507935D01*
X126154503Y-99508373D01*
X126133146Y-99509519D01*
X126115835Y-99511632D01*
X126100067Y-99514974D01*
X126083340Y-99519807D01*
X126054646Y-99529755D01*
X125995192Y-99557422D01*
X125941983Y-99592833D01*
X125894336Y-99636411D01*
X125891273Y-99639692D01*
X125851441Y-99689891D01*
X125820244Y-99744342D01*
X125797837Y-99802019D01*
X125784377Y-99861898D01*
X125780021Y-99922953D01*
X125784924Y-99984158D01*
X125799244Y-100044488D01*
X125823137Y-100102918D01*
X125833806Y-100123247D01*
X125855568Y-100158997D01*
X125879797Y-100190682D01*
X125908247Y-100220231D01*
X125942673Y-100249570D01*
X125984827Y-100280629D01*
X126000766Y-100292102D01*
X126017277Y-100304827D01*
X126029051Y-100314897D01*
X126034240Y-100320809D01*
X126033636Y-100324031D01*
X126029648Y-100336060D01*
X126022264Y-100356143D01*
X126011788Y-100383510D01*
X125998527Y-100417386D01*
X125982787Y-100456998D01*
X125964872Y-100501575D01*
X125945089Y-100550342D01*
X125923743Y-100602528D01*
X125901140Y-100657359D01*
X125896546Y-100668459D01*
X125870380Y-100731582D01*
X125847728Y-100786012D01*
X125828316Y-100832365D01*
X125811871Y-100871257D01*
X125798116Y-100903305D01*
X125786780Y-100929125D01*
X125777586Y-100949334D01*
X125770262Y-100964547D01*
X125764533Y-100975381D01*
X125760126Y-100982452D01*
X125756765Y-100986377D01*
X125754177Y-100987771D01*
X125752544Y-100987744D01*
X125741828Y-100984622D01*
X125724486Y-100977375D01*
X125702200Y-100966747D01*
X125676650Y-100953481D01*
X125666009Y-100947810D01*
X125642843Y-100935890D01*
X125623106Y-100926305D01*
X125608614Y-100919920D01*
X125601188Y-100917600D01*
X125595473Y-100920183D01*
X125582304Y-100927942D01*
X125562753Y-100940232D01*
X125537821Y-100956405D01*
X125508507Y-100975813D01*
X125475808Y-100997807D01*
X125440726Y-101021740D01*
X125406902Y-101044834D01*
X125374186Y-101066900D01*
X125344853Y-101086406D01*
X125319898Y-101102705D01*
X125300310Y-101115148D01*
X125287083Y-101123089D01*
X125281208Y-101125880D01*
X125280906Y-101125834D01*
X125274529Y-101121554D01*
X125262190Y-101110985D01*
X125244838Y-101095081D01*
X125223422Y-101074792D01*
X125198891Y-101051071D01*
X125172193Y-101024870D01*
X125144277Y-100997142D01*
X125116092Y-100968838D01*
X125088586Y-100940912D01*
X125062710Y-100914314D01*
X125039410Y-100889997D01*
X125019637Y-100868914D01*
X125004338Y-100852017D01*
X124994463Y-100840258D01*
X124990960Y-100834588D01*
X124993617Y-100828568D01*
X125001442Y-100815130D01*
X125013791Y-100795331D01*
X125030018Y-100770174D01*
X125049474Y-100740662D01*
X125071513Y-100707797D01*
X125095488Y-100672582D01*
X125119052Y-100638151D01*
X125141303Y-100605498D01*
X125161094Y-100576312D01*
X125177764Y-100551573D01*
X125190652Y-100532262D01*
X125199099Y-100519358D01*
X125202444Y-100513842D01*
X125202380Y-100511987D01*
X125199592Y-100501771D01*
X125193631Y-100484233D01*
X125185054Y-100460763D01*
X125174420Y-100432747D01*
X125162288Y-100401575D01*
X125149215Y-100368634D01*
X125135760Y-100335313D01*
X125122481Y-100303000D01*
X125109937Y-100273082D01*
X125098686Y-100246948D01*
X125089286Y-100225987D01*
X125082296Y-100211585D01*
X125078274Y-100205133D01*
X125074751Y-100203525D01*
X125061646Y-100199758D01*
X125040063Y-100194611D01*
X125010938Y-100188286D01*
X124975202Y-100180981D01*
X124933790Y-100172897D01*
X124887635Y-100164236D01*
X124846530Y-100156543D01*
X124807550Y-100149013D01*
X124772729Y-100142050D01*
X124743235Y-100135898D01*
X124720237Y-100130799D01*
X124704905Y-100126999D01*
X124698405Y-100124741D01*
X124696954Y-100122699D01*
X124695361Y-100117303D01*
X124694084Y-100107996D01*
X124693092Y-100093884D01*
X124692353Y-100074077D01*
X124691838Y-100047680D01*
X124691514Y-100013801D01*
X124691351Y-99971548D01*
X124691318Y-99920027D01*
X124691329Y-99909159D01*
X124691497Y-99865663D01*
X124691849Y-99825514D01*
X124692362Y-99789847D01*
X124693011Y-99759798D01*
X124693775Y-99736503D01*
X124694628Y-99721096D01*
X124695549Y-99714714D01*
X124698415Y-99713184D01*
X124710603Y-99709544D01*
X124731582Y-99704463D01*
X124760610Y-99698102D01*
X124796947Y-99690621D01*
X124839854Y-99682180D01*
X124888591Y-99672940D01*
X124893243Y-99672071D01*
X124935764Y-99664044D01*
X124975233Y-99656439D01*
X125010492Y-99649491D01*
X125040384Y-99643434D01*
X125063752Y-99638502D01*
X125079440Y-99634928D01*
X125086290Y-99632948D01*
X125086757Y-99632592D01*
X125091654Y-99625265D01*
X125099825Y-99609772D01*
X125110769Y-99587168D01*
X125123989Y-99558510D01*
X125138982Y-99524852D01*
X125155251Y-99487252D01*
X125163610Y-99467619D01*
X125179509Y-99429867D01*
X125191759Y-99400007D01*
X125200708Y-99377084D01*
X125206701Y-99360143D01*
X125210088Y-99348231D01*
X125211216Y-99340391D01*
X125210432Y-99335670D01*
X125210374Y-99335550D01*
X125206193Y-99328692D01*
X125196940Y-99314521D01*
X125183292Y-99294038D01*
X125165920Y-99268244D01*
X125145501Y-99238139D01*
X125122706Y-99204726D01*
X125098212Y-99169005D01*
X125096659Y-99166745D01*
X125072453Y-99131269D01*
X125050217Y-99098226D01*
X125030590Y-99068598D01*
X125014211Y-99043372D01*
X125001721Y-99023530D01*
X124993757Y-99010058D01*
X124990960Y-99003938D01*
X124991001Y-99003651D01*
X124995226Y-98997246D01*
X125005739Y-98984864D01*
X125021588Y-98967458D01*
X125041822Y-98945978D01*
X125065492Y-98921376D01*
X125091645Y-98894603D01*
X125119331Y-98866609D01*
X125147600Y-98838347D01*
X125175500Y-98810767D01*
X125202081Y-98784820D01*
X125226391Y-98761458D01*
X125247480Y-98741632D01*
X125264398Y-98726292D01*
X125276193Y-98716391D01*
X125281914Y-98712879D01*
X125282599Y-98713028D01*
X125290444Y-98717059D01*
X125305451Y-98726126D01*
X125326661Y-98739606D01*
X125353114Y-98756874D01*
X125383852Y-98777306D01*
X125417915Y-98800277D01*
X125454344Y-98825162D01*
X125463014Y-98831119D01*
X125498820Y-98855669D01*
X125531886Y-98878260D01*
X125561276Y-98898257D01*
X125586052Y-98915025D01*
X125605276Y-98927928D01*
X125618012Y-98936333D01*
X125623322Y-98939605D01*
X125623329Y-98939607D01*
X125629206Y-98938242D01*
X125643001Y-98933508D01*
X125663279Y-98925983D01*
X125688608Y-98916248D01*
X125717553Y-98904882D01*
X125748680Y-98892466D01*
X125780554Y-98879578D01*
X125811742Y-98866800D01*
X125840810Y-98854710D01*
X125866324Y-98843889D01*
X125886849Y-98834916D01*
X125900952Y-98828371D01*
X125907198Y-98824834D01*
X125907628Y-98824000D01*
X125910103Y-98815177D01*
X125914102Y-98797798D01*
X125919401Y-98772957D01*
X125925775Y-98741748D01*
X125932999Y-98705265D01*
X125940849Y-98664601D01*
X125949099Y-98620850D01*
X125956953Y-98579237D01*
X125965821Y-98533644D01*
X125973732Y-98494573D01*
X125980534Y-98462721D01*
X125986078Y-98438787D01*
X125990213Y-98423471D01*
X125992790Y-98417471D01*
X125993443Y-98417244D01*
X126002107Y-98416337D01*
X126019522Y-98415502D01*
X126044552Y-98414763D01*
X126076061Y-98414144D01*
X126112914Y-98413668D01*
X126153975Y-98413358D01*
X126198108Y-98413237D01*
X126236630Y-98413250D01*
%TD*%
D11*
%TO.C,J3*%
X133800000Y-78580000D03*
X133800000Y-81120000D03*
X133800000Y-83660000D03*
X133800000Y-86200000D03*
X133800000Y-88740000D03*
X133800000Y-91280000D03*
X133800000Y-93820000D03*
X133800000Y-96360000D03*
X133800000Y-98900000D03*
X133800000Y-101440000D03*
X133800000Y-103980000D03*
X133800000Y-106520000D03*
%TD*%
%TO.C,J2*%
X118560000Y-106520000D03*
X118560000Y-103980000D03*
X118560000Y-101440000D03*
X118560000Y-98900000D03*
X118560000Y-96360000D03*
X118560000Y-93820000D03*
X118560000Y-91280000D03*
X118560000Y-88740000D03*
X118560000Y-86200000D03*
X118560000Y-83660000D03*
X118560000Y-81120000D03*
X118560000Y-78580000D03*
%TD*%
D12*
%TO.C,J1*%
X121775000Y-80400000D03*
X130625000Y-80400000D03*
D13*
X120624700Y-76100000D03*
X131775300Y-76100000D03*
D14*
X120624700Y-80000000D03*
X131775300Y-80000000D03*
%TD*%
D11*
%TO.C,J6*%
X121100000Y-106520000D03*
D15*
X123640000Y-106520000D03*
X126180000Y-106520000D03*
X128720000Y-106520000D03*
X131260000Y-106520000D03*
%TD*%
D11*
%TO.C,J4*%
X118560000Y-76040000D03*
%TD*%
%TO.C,J7*%
X131260000Y-83660000D03*
%TD*%
%TO.C,J5*%
X133800000Y-76040000D03*
%TD*%
D16*
%TO.C,TP2*%
X130500000Y-100500000D03*
%TD*%
%TO.C,TP1*%
X121800000Y-100000000D03*
%TD*%
%TO.C,TP3*%
X127650000Y-102700000D03*
%TD*%
%TO.C,TP4*%
X130500000Y-102300000D03*
%TD*%
M02*
