%TF.GenerationSoftware,KiCad,Pcbnew,6.0.3-a3aad9c10e~116~ubuntu20.04.1*%
%TF.CreationDate,2022-03-24T21:59:22+11:00*%
%TF.ProjectId,sea-picro,7365612d-7069-4637-926f-2e6b69636164,0.2*%
%TF.SameCoordinates,Original*%
%TF.FileFunction,Copper,L4,Bot*%
%TF.FilePolarity,Positive*%
%FSLAX46Y46*%
G04 Gerber Fmt 4.6, Leading zero omitted, Abs format (unit mm)*
G04 Created by KiCad (PCBNEW 6.0.3-a3aad9c10e~116~ubuntu20.04.1) date 2022-03-24 21:59:22*
%MOMM*%
%LPD*%
G01*
G04 APERTURE LIST*
%TA.AperFunction,ComponentPad*%
%ADD10C,1.700000*%
%TD*%
%TA.AperFunction,ComponentPad*%
%ADD11O,1.000000X2.200000*%
%TD*%
%TA.AperFunction,ComponentPad*%
%ADD12O,1.000000X1.800000*%
%TD*%
%TA.AperFunction,ComponentPad*%
%ADD13O,1.700000X1.700000*%
%TD*%
%TA.AperFunction,ComponentPad*%
%ADD14C,0.600000*%
%TD*%
%TA.AperFunction,ComponentPad*%
%ADD15C,1.000000*%
%TD*%
%TA.AperFunction,SMDPad,CuDef*%
%ADD16C,1.000000*%
%TD*%
%TA.AperFunction,ViaPad*%
%ADD17C,0.500000*%
%TD*%
%TA.AperFunction,ViaPad*%
%ADD18C,0.600000*%
%TD*%
%TA.AperFunction,Conductor*%
%ADD19C,0.150000*%
%TD*%
%TA.AperFunction,Conductor*%
%ADD20C,0.200000*%
%TD*%
%TA.AperFunction,Conductor*%
%ADD21C,0.300000*%
%TD*%
%TA.AperFunction,Conductor*%
%ADD22C,0.250000*%
%TD*%
G04 APERTURE END LIST*
D10*
%TO.P,J3,1,Pin_1*%
%TO.N,+5V*%
X133800000Y-78580000D03*
%TO.P,J3,2,Pin_2*%
%TO.N,GND*%
X133800000Y-81120000D03*
%TO.P,J3,3,Pin_3*%
%TO.N,/SWITCH*%
X133800000Y-83660000D03*
%TO.P,J3,4,Pin_4*%
%TO.N,+3V3*%
X133800000Y-86200000D03*
%TO.P,J3,5,Pin_5*%
%TO.N,/A3*%
X133800000Y-88740000D03*
%TO.P,J3,6,Pin_6*%
%TO.N,/A2*%
X133800000Y-91280000D03*
%TO.P,J3,7,Pin_7*%
%TO.N,/A1*%
X133800000Y-93820000D03*
%TO.P,J3,8,Pin_8*%
%TO.N,/A0*%
X133800000Y-96360000D03*
%TO.P,J3,9,Pin_9*%
%TO.N,/22_SCK*%
X133800000Y-98900000D03*
%TO.P,J3,10,Pin_10*%
%TO.N,/20_MISO*%
X133800000Y-101440000D03*
%TO.P,J3,11,Pin_11*%
%TO.N,/23_MOSI*%
X133800000Y-103980000D03*
%TO.P,J3,12,Pin_12*%
%TO.N,/21_nCS*%
X133800000Y-106520000D03*
%TD*%
%TO.P,J2,1,Pin_1*%
%TO.N,/9*%
X118560000Y-106520000D03*
%TO.P,J2,2,Pin_2*%
%TO.N,/8*%
X118560000Y-103980000D03*
%TO.P,J2,3,Pin_3*%
%TO.N,/7*%
X118560000Y-101440000D03*
%TO.P,J2,4,Pin_4*%
%TO.N,/6*%
X118560000Y-98900000D03*
%TO.P,J2,5,Pin_5*%
%TO.N,/5*%
X118560000Y-96360000D03*
%TO.P,J2,6,Pin_6*%
%TO.N,/4*%
X118560000Y-93820000D03*
%TO.P,J2,7,Pin_7*%
%TO.N,/3_SCL1*%
X118560000Y-91280000D03*
%TO.P,J2,8,Pin_8*%
%TO.N,/2_SDA1*%
X118560000Y-88740000D03*
%TO.P,J2,9,Pin_9*%
%TO.N,GND*%
X118560000Y-86200000D03*
%TO.P,J2,10,Pin_10*%
X118560000Y-83660000D03*
%TO.P,J2,11,Pin_11*%
%TO.N,/1_RX0*%
X118560000Y-81120000D03*
%TO.P,J2,12,Pin_12*%
%TO.N,/0_TX0*%
X118560000Y-78580000D03*
%TD*%
D11*
%TO.P,J1,S1,SHIELD*%
%TO.N,GND*%
X120624700Y-76100000D03*
%TO.P,J1,S2,SHIELD*%
X131775300Y-76100000D03*
D12*
%TO.P,J1,S3,SHIELD*%
X120624700Y-80000000D03*
%TO.P,J1,S4,SHIELD*%
X131775300Y-80000000D03*
%TD*%
D10*
%TO.P,J6,1,Pin_1*%
%TO.N,/10*%
X121100000Y-106520000D03*
D13*
%TO.P,J6,2,Pin_2*%
%TO.N,/11*%
X123640000Y-106520000D03*
%TO.P,J6,3,Pin_3*%
%TO.N,/15*%
X126180000Y-106520000D03*
%TO.P,J6,4,Pin_4*%
%TO.N,/18*%
X128720000Y-106520000D03*
%TO.P,J6,5,Pin_5*%
%TO.N,/19*%
X131260000Y-106520000D03*
%TD*%
D10*
%TO.P,J4,1,Pin_1*%
%TO.N,/USB+*%
X118560000Y-76040000D03*
%TD*%
%TO.P,J7,1,Pin_1*%
%TO.N,Net-(J7-Pad1)*%
X131260000Y-83660000D03*
%TD*%
D14*
%TO.P,U3,57,GND*%
%TO.N,GND*%
X127475000Y-97535000D03*
X126200000Y-97535000D03*
X126200000Y-96260000D03*
X124925000Y-94985000D03*
X124925000Y-97535000D03*
X127475000Y-94985000D03*
X127475000Y-96260000D03*
X126200000Y-94985000D03*
X124925000Y-96260000D03*
%TD*%
D10*
%TO.P,J5,1,Pin_1*%
%TO.N,/USB-*%
X133800000Y-76040000D03*
%TD*%
D15*
%TO.P,TP2,1,1*%
%TO.N,/SWDIO*%
X130500000Y-100500000D03*
%TD*%
%TO.P,TP1,1,1*%
%TO.N,/SWDCLK*%
X121800000Y-100000000D03*
%TD*%
D16*
%TO.P,TP3,1,1*%
%TO.N,/nRST*%
X127650000Y-102700000D03*
%TD*%
%TO.P,TP4,1,1*%
%TO.N,/BOOT*%
X130500000Y-102300000D03*
%TD*%
D17*
%TO.N,GND*%
X124860000Y-103540000D03*
X122950000Y-84360000D03*
X130150000Y-103250000D03*
X132150000Y-86050000D03*
X129561757Y-90871758D03*
X132450000Y-97800000D03*
X126300000Y-88160000D03*
X121300000Y-89649500D03*
X122250000Y-104150000D03*
D18*
X126151561Y-83771516D03*
D17*
X127650000Y-90560000D03*
X122400000Y-102550000D03*
X124379227Y-100569727D03*
D18*
X129550500Y-83788536D03*
X129376048Y-81585324D03*
D17*
X130000000Y-90510000D03*
X129518170Y-86834725D03*
X121689477Y-92410523D03*
X131850000Y-89950000D03*
X126200000Y-102900000D03*
X131651967Y-92300471D03*
X123596977Y-89463023D03*
X124850497Y-90860000D03*
X129018854Y-100657920D03*
X120000000Y-97900000D03*
D18*
X123000000Y-81750000D03*
D17*
%TO.N,Net-(J1-PadB5)*%
X124450000Y-82000000D03*
X121600000Y-81966970D03*
%TO.N,+5V*%
X130087576Y-81650907D03*
X125049152Y-82250814D03*
X130650000Y-84950000D03*
%TO.N,VBUS*%
X122949500Y-83700000D03*
X123850000Y-81650000D03*
X120025500Y-85250000D03*
X128600000Y-81600000D03*
%TO.N,+3V3*%
X129550000Y-85800000D03*
X131746095Y-97882140D03*
X131300000Y-91210000D03*
X121275500Y-83825600D03*
X131650000Y-93310000D03*
X120950000Y-97100000D03*
X126952589Y-102053918D03*
X127058296Y-90890605D03*
X123100000Y-91500000D03*
X121852713Y-93039178D03*
X128419400Y-103204822D03*
X130600000Y-82050000D03*
D18*
X129600000Y-82800000D03*
D17*
%TO.N,/nRST*%
X128450499Y-102028410D03*
X129950498Y-101500000D03*
%TO.N,+1V1*%
X125500000Y-90860000D03*
X128374500Y-100576302D03*
X128777219Y-90880515D03*
%TO.N,/LED_DO*%
X131502914Y-95725990D03*
X132050000Y-87550000D03*
%TO.N,/23_MOSI*%
X132550000Y-95850000D03*
%TO.N,/21_nCS*%
X131884839Y-98516650D03*
%TO.N,/FLASH_nCS*%
X128800683Y-98397162D03*
X130500000Y-99400000D03*
%TO.N,/USB+*%
X126450000Y-82198511D03*
X130425991Y-87714041D03*
%TO.N,/USB-*%
X131100000Y-87700000D03*
X125932887Y-81699011D03*
X126948501Y-81699011D03*
%TO.N,/SWDCLK*%
X125550000Y-98300000D03*
%TO.N,/SWDIO*%
X127450000Y-98350000D03*
%TO.N,/FLASH_SD0*%
X124565523Y-93644477D03*
X128462751Y-89747251D03*
%TO.N,/FLASH_SCK*%
X128475753Y-89097879D03*
X125200000Y-93810000D03*
%TO.N,/FLASH_SD3*%
X125850000Y-93660000D03*
X129500000Y-89432769D03*
%TO.N,/D+*%
X127074500Y-93775500D03*
X130549001Y-89810223D03*
%TO.N,/D-*%
X131198446Y-89801554D03*
X127750000Y-93775500D03*
%TO.N,/SWITCH*%
X130898515Y-103297625D03*
%TO.N,/15*%
X123600000Y-98900000D03*
%TO.N,/BOOT*%
X131450000Y-101500000D03*
%TO.N,/VBUS_DETECT*%
X124150000Y-97800000D03*
X120450000Y-103750000D03*
%TD*%
D19*
%TO.N,Net-(J1-PadB5)*%
X124450000Y-82000000D02*
X124100000Y-82350000D01*
X121983030Y-82350000D02*
X121600000Y-81966970D01*
X124100000Y-82350000D02*
X121983030Y-82350000D01*
D20*
%TO.N,+5V*%
X125049152Y-81800848D02*
X125650489Y-81199511D01*
X129769242Y-81969242D02*
X130087576Y-81650907D01*
X129537984Y-82200499D02*
X129769242Y-81969242D01*
X125049152Y-82250814D02*
X125049152Y-81800848D01*
X127199511Y-81199511D02*
X128200499Y-82200499D01*
X125650489Y-81199511D02*
X127199511Y-81199511D01*
X128200499Y-82200499D02*
X129537984Y-82200499D01*
X130700000Y-84950000D02*
X130149501Y-84399501D01*
X130149501Y-84399501D02*
X130149501Y-82349501D01*
X130149501Y-82349501D02*
X129769242Y-81969242D01*
%TO.N,VBUS*%
X122949500Y-83700000D02*
X122750000Y-83700000D01*
X122750000Y-83700000D02*
X121200000Y-85250000D01*
D21*
X128600000Y-81600000D02*
X127800000Y-80800000D01*
X124700000Y-80800000D02*
X123850000Y-81650000D01*
D20*
X121200000Y-85250000D02*
X120025500Y-85250000D01*
D21*
X127800000Y-80800000D02*
X124700000Y-80800000D01*
D19*
%TO.N,/nRST*%
X128321590Y-102028410D02*
X127650000Y-102700000D01*
X128450499Y-102028410D02*
X128321590Y-102028410D01*
X128450499Y-102028410D02*
X128978909Y-101500000D01*
X128978909Y-101500000D02*
X129950498Y-101500000D01*
D22*
%TO.N,+1V1*%
X128811243Y-90880515D02*
X128777219Y-90880515D01*
X126550000Y-94110000D02*
X126740000Y-94300000D01*
X128777219Y-90880515D02*
X126550000Y-93107734D01*
X127800000Y-88560000D02*
X129368989Y-88560000D01*
X126740000Y-94300000D02*
X128100000Y-94300000D01*
X129368989Y-88560000D02*
X130024501Y-89215512D01*
X128100000Y-94300000D02*
X128100000Y-99105716D01*
X130024501Y-89667257D02*
X128811243Y-90880515D01*
X130024501Y-89215512D02*
X130024501Y-89667257D01*
X126550000Y-93107734D02*
X126550000Y-94110000D01*
X128499511Y-99505228D02*
X128499511Y-100451291D01*
X128100000Y-99105716D02*
X128499511Y-99505228D01*
X128499511Y-100451291D02*
X128374500Y-100576302D01*
X125500000Y-90860000D02*
X127800000Y-88560000D01*
D19*
%TO.N,/LED_DO*%
X132350000Y-94878904D02*
X131502914Y-95725990D01*
X132350000Y-87850000D02*
X132350000Y-94878904D01*
X132050000Y-87550000D02*
X132350000Y-87850000D01*
%TO.N,/23_MOSI*%
X132924501Y-97996546D02*
X132924501Y-97503454D01*
X133800000Y-103980000D02*
X132646546Y-102826546D01*
X132924501Y-97503454D02*
X132550000Y-97128953D01*
X132550000Y-97128953D02*
X132550000Y-95850000D01*
X132646546Y-102826546D02*
X132646546Y-98274501D01*
X132646546Y-98274501D02*
X132924501Y-97996546D01*
%TO.N,/21_nCS*%
X132250000Y-98881811D02*
X131884839Y-98516650D01*
X132250000Y-104970000D02*
X132250000Y-98881811D01*
X133800000Y-106520000D02*
X132250000Y-104970000D01*
%TO.N,/FLASH_nCS*%
X129803521Y-99400000D02*
X130500000Y-99400000D01*
X128800683Y-98397162D02*
X129803521Y-99400000D01*
D20*
%TO.N,/USB+*%
X130425991Y-85969589D02*
X130425991Y-87614041D01*
X126654913Y-82198511D02*
X130425991Y-85969589D01*
X126450000Y-82198511D02*
X126654913Y-82198511D01*
%TO.N,/USB-*%
X131100000Y-87600000D02*
X130850000Y-87350000D01*
X130850000Y-85877112D02*
X126948501Y-81975614D01*
X130850000Y-87350000D02*
X130850000Y-85877112D01*
X126948501Y-81975614D02*
X126948501Y-81699011D01*
X126948501Y-81699011D02*
X125932887Y-81699011D01*
D19*
%TO.N,/SWDCLK*%
X123500000Y-98300000D02*
X121800000Y-100000000D01*
X125550000Y-98300000D02*
X123500000Y-98300000D01*
%TO.N,/SWDIO*%
X127750000Y-98650000D02*
X127450000Y-98350000D01*
X129197821Y-101150000D02*
X128200000Y-101150000D01*
X128150000Y-99650000D02*
X127750000Y-99250000D01*
X128150000Y-100100000D02*
X128150000Y-99650000D01*
X127900000Y-100350000D02*
X128150000Y-100100000D01*
X129847821Y-100500000D02*
X129197821Y-101150000D01*
X130500000Y-100500000D02*
X129847821Y-100500000D01*
X127750000Y-99250000D02*
X127750000Y-98650000D01*
X128200000Y-101150000D02*
X127900000Y-100850000D01*
X127900000Y-100850000D02*
X127900000Y-100350000D01*
%TO.N,/FLASH_SD0*%
X127530605Y-89747251D02*
X126349510Y-90928346D01*
X126349510Y-90928346D02*
X126349510Y-91860490D01*
X126349510Y-91860490D02*
X124565523Y-93644477D01*
X128462751Y-89747251D02*
X127530605Y-89747251D01*
%TO.N,/FLASH_SCK*%
X124350000Y-94160000D02*
X124050000Y-93860000D01*
X124050000Y-93460000D02*
X126050000Y-91460000D01*
X127756405Y-89097879D02*
X128475753Y-89097879D01*
X124850000Y-94160000D02*
X124350000Y-94160000D01*
X125200000Y-93810000D02*
X124850000Y-94160000D01*
X126050000Y-90804284D02*
X127756405Y-89097879D01*
X124050000Y-93860000D02*
X124050000Y-93460000D01*
X126050000Y-91460000D02*
X126050000Y-90804284D01*
%TO.N,/FLASH_SD3*%
X125850000Y-93031047D02*
X129448278Y-89432769D01*
X125850000Y-93660000D02*
X125850000Y-93031047D01*
X129448278Y-89432769D02*
X129500000Y-89432769D01*
D20*
%TO.N,/D+*%
X130549001Y-90149001D02*
X130549001Y-89710223D01*
X130549001Y-90678155D02*
X130549001Y-90149001D01*
X129125245Y-92101911D02*
X128313806Y-92101911D01*
X130549001Y-90678155D02*
X129125245Y-92101911D01*
X130549001Y-89810223D02*
X130549001Y-90149001D01*
X128313806Y-92101911D02*
X127200000Y-93215717D01*
X127200000Y-93215717D02*
X127200000Y-93650000D01*
X127200000Y-93650000D02*
X127074500Y-93775500D01*
%TO.N,/D-*%
X129341422Y-92451422D02*
X128458578Y-92451422D01*
X128458578Y-92451422D02*
X127750000Y-93160000D01*
X131048502Y-90744342D02*
X129341422Y-92451422D01*
X131198446Y-89801554D02*
X131048502Y-89951498D01*
X131048502Y-89951498D02*
X131048502Y-90051498D01*
X127750000Y-93160000D02*
X127750000Y-93775500D01*
X131048502Y-90744342D02*
X131048502Y-90051498D01*
D19*
%TO.N,/SWITCH*%
X132050000Y-95650000D02*
X132050000Y-96875000D01*
X130898515Y-103297625D02*
X131602375Y-103297625D01*
X131950000Y-99350000D02*
X131950000Y-102950000D01*
X132050000Y-96875000D02*
X131250000Y-97675000D01*
X132700000Y-87650000D02*
X132700000Y-95000000D01*
X131602375Y-103297625D02*
X131950000Y-102950000D01*
X132700000Y-84760000D02*
X132700000Y-87650000D01*
X131250000Y-97675000D02*
X131250000Y-98650000D01*
X133800000Y-83660000D02*
X132700000Y-84760000D01*
X132700000Y-95000000D02*
X132050000Y-95650000D01*
X131250000Y-98650000D02*
X131950000Y-99350000D01*
%TO.N,/15*%
X126180000Y-106520000D02*
X123600000Y-103940000D01*
X123600000Y-103940000D02*
X123600000Y-98900000D01*
%TO.N,/BOOT*%
X130500000Y-102300000D02*
X130650000Y-102300000D01*
X130650000Y-102300000D02*
X131450000Y-101500000D01*
%TO.N,/VBUS_DETECT*%
X120450000Y-100300000D02*
X120450000Y-103750000D01*
X124150000Y-97800000D02*
X122950000Y-97800000D01*
X122950000Y-97800000D02*
X120450000Y-100300000D01*
%TD*%
%TA.AperFunction,Conductor*%
%TO.N,GND*%
G36*
X120820821Y-75866002D02*
G01*
X120867314Y-75919658D01*
X120878700Y-75972000D01*
X120878700Y-77657924D01*
X120882673Y-77671455D01*
X120890468Y-77672575D01*
X120998221Y-77640862D01*
X121009589Y-77636269D01*
X121173854Y-77550393D01*
X121184115Y-77543679D01*
X121269548Y-77474989D01*
X121335170Y-77447893D01*
X121405025Y-77460576D01*
X121456933Y-77509012D01*
X121474500Y-77573186D01*
X121474500Y-78726977D01*
X121454498Y-78795098D01*
X121400842Y-78841591D01*
X121330568Y-78851695D01*
X121268185Y-78824062D01*
X121195844Y-78764216D01*
X121185673Y-78757356D01*
X121022624Y-78669196D01*
X121011319Y-78664444D01*
X120896008Y-78628750D01*
X120881905Y-78628544D01*
X120878700Y-78635299D01*
X120878700Y-81357924D01*
X120882673Y-81371455D01*
X120890468Y-81372575D01*
X120998221Y-81340862D01*
X121009589Y-81336269D01*
X121173854Y-81250393D01*
X121184115Y-81243679D01*
X121328573Y-81127532D01*
X121337332Y-81118954D01*
X121456477Y-80976962D01*
X121463410Y-80966837D01*
X121477468Y-80941267D01*
X121527814Y-80891209D01*
X121597231Y-80876317D01*
X121621419Y-80880856D01*
X121627163Y-80883553D01*
X121636029Y-80884933D01*
X121636031Y-80884934D01*
X121721561Y-80898250D01*
X121736009Y-80900500D01*
X121810940Y-80900500D01*
X121852339Y-80894571D01*
X121908032Y-80886596D01*
X121908035Y-80886595D01*
X121916918Y-80885323D01*
X121925382Y-80881475D01*
X121959023Y-80866179D01*
X122047428Y-80825984D01*
X122156037Y-80732400D01*
X122158219Y-80734932D01*
X122204355Y-80705491D01*
X122239465Y-80700500D01*
X123999628Y-80700500D01*
X124067749Y-80720502D01*
X124114242Y-80774158D01*
X124124346Y-80844432D01*
X124094852Y-80909012D01*
X124088723Y-80915595D01*
X123835130Y-81169188D01*
X123780659Y-81201242D01*
X123672788Y-81232071D01*
X123672784Y-81232073D01*
X123664155Y-81234539D01*
X123555019Y-81303399D01*
X123549076Y-81310128D01*
X123549075Y-81310129D01*
X123526619Y-81335556D01*
X123469596Y-81400122D01*
X123414754Y-81516932D01*
X123408761Y-81555423D01*
X123396282Y-81635567D01*
X123396282Y-81635571D01*
X123394901Y-81644440D01*
X123396065Y-81653342D01*
X123396065Y-81653345D01*
X123410468Y-81763489D01*
X123410469Y-81763493D01*
X123411633Y-81772394D01*
X123451542Y-81863094D01*
X123463605Y-81890510D01*
X123462303Y-81891083D01*
X123478772Y-81950319D01*
X123457788Y-82018144D01*
X123403467Y-82063857D01*
X123352785Y-82074500D01*
X122179773Y-82074500D01*
X122111652Y-82054498D01*
X122065159Y-82000842D01*
X122055046Y-81966362D01*
X122038112Y-81848115D01*
X122038111Y-81848112D01*
X122036839Y-81839229D01*
X122021180Y-81804788D01*
X121987145Y-81729932D01*
X121987143Y-81729929D01*
X121983428Y-81721758D01*
X121928851Y-81658418D01*
X121905051Y-81630796D01*
X121905049Y-81630794D01*
X121899193Y-81623998D01*
X121790906Y-81553811D01*
X121782311Y-81551241D01*
X121782310Y-81551240D01*
X121675874Y-81519408D01*
X121675872Y-81519408D01*
X121667273Y-81516836D01*
X121658298Y-81516781D01*
X121658297Y-81516781D01*
X121603641Y-81516447D01*
X121538231Y-81516048D01*
X121500943Y-81526705D01*
X121422786Y-81549042D01*
X121422784Y-81549043D01*
X121414155Y-81551509D01*
X121406565Y-81556298D01*
X121319678Y-81611120D01*
X121305019Y-81620369D01*
X121299076Y-81627098D01*
X121299075Y-81627099D01*
X121272643Y-81657028D01*
X121219596Y-81717092D01*
X121215782Y-81725215D01*
X121215781Y-81725217D01*
X121193632Y-81772394D01*
X121164754Y-81833902D01*
X121161546Y-81854507D01*
X121146282Y-81952537D01*
X121146282Y-81952541D01*
X121144901Y-81961410D01*
X121146065Y-81970312D01*
X121146065Y-81970315D01*
X121160468Y-82080459D01*
X121160469Y-82080463D01*
X121161633Y-82089364D01*
X121213605Y-82207480D01*
X121219382Y-82214353D01*
X121219383Y-82214354D01*
X121288377Y-82296432D01*
X121296639Y-82306261D01*
X121330987Y-82329125D01*
X121359384Y-82348027D01*
X121404060Y-82377766D01*
X121527233Y-82416248D01*
X121536203Y-82416412D01*
X121536207Y-82416413D01*
X121611301Y-82417789D01*
X121679044Y-82439036D01*
X121698087Y-82454673D01*
X121760258Y-82516844D01*
X121775928Y-82535936D01*
X121784406Y-82548624D01*
X121807407Y-82563993D01*
X121807408Y-82563994D01*
X121875535Y-82609515D01*
X121983030Y-82630897D01*
X121997991Y-82627921D01*
X122022573Y-82625500D01*
X124060457Y-82625500D01*
X124085039Y-82627921D01*
X124100000Y-82630897D01*
X124127132Y-82625500D01*
X124127133Y-82625500D01*
X124207495Y-82609515D01*
X124259496Y-82574769D01*
X124275622Y-82563994D01*
X124275623Y-82563993D01*
X124298624Y-82548624D01*
X124307102Y-82535936D01*
X124322772Y-82516844D01*
X124352237Y-82487379D01*
X124414549Y-82453353D01*
X124443639Y-82450495D01*
X124506255Y-82451643D01*
X124514917Y-82449282D01*
X124514921Y-82449281D01*
X124529691Y-82445254D01*
X124600674Y-82446634D01*
X124659642Y-82486171D01*
X124661810Y-82489173D01*
X124662757Y-82491324D01*
X124667078Y-82496464D01*
X124667082Y-82496470D01*
X124732900Y-82574769D01*
X124745791Y-82590105D01*
X124774638Y-82609307D01*
X124813803Y-82635377D01*
X124853212Y-82661610D01*
X124976385Y-82700092D01*
X124985355Y-82700256D01*
X124985359Y-82700257D01*
X125044094Y-82701333D01*
X125105407Y-82702457D01*
X125172603Y-82684137D01*
X125221244Y-82670876D01*
X125221245Y-82670876D01*
X125229907Y-82668514D01*
X125237557Y-82663817D01*
X125237559Y-82663816D01*
X125332224Y-82605692D01*
X125332227Y-82605689D01*
X125339876Y-82600993D01*
X125345902Y-82594336D01*
X125420452Y-82511975D01*
X125420455Y-82511971D01*
X125426474Y-82505321D01*
X125482740Y-82389189D01*
X125484717Y-82377441D01*
X125503342Y-82266731D01*
X125504149Y-82261934D01*
X125504285Y-82250814D01*
X125497378Y-82202586D01*
X125507520Y-82132320D01*
X125554042Y-82078690D01*
X125622174Y-82058725D01*
X125691922Y-82079837D01*
X125729471Y-82104831D01*
X125729473Y-82104832D01*
X125736947Y-82109807D01*
X125860120Y-82148289D01*
X125880819Y-82148668D01*
X125948562Y-82169914D01*
X125994065Y-82224412D01*
X126003447Y-82258308D01*
X126011633Y-82320905D01*
X126015250Y-82329125D01*
X126041679Y-82389189D01*
X126063605Y-82439021D01*
X126069382Y-82445894D01*
X126069383Y-82445895D01*
X126116244Y-82501643D01*
X126146639Y-82537802D01*
X126254060Y-82609307D01*
X126377233Y-82647789D01*
X126386203Y-82647953D01*
X126386207Y-82647954D01*
X126444942Y-82649030D01*
X126506255Y-82650154D01*
X126573488Y-82631824D01*
X126644468Y-82633203D01*
X126695723Y-82664292D01*
X129284417Y-85252986D01*
X129318443Y-85315298D01*
X129313378Y-85386113D01*
X129270831Y-85442949D01*
X129262629Y-85448594D01*
X129262613Y-85448607D01*
X129255019Y-85453399D01*
X129249076Y-85460128D01*
X129249075Y-85460129D01*
X129214613Y-85499150D01*
X129169596Y-85550122D01*
X129165782Y-85558245D01*
X129165781Y-85558247D01*
X129149960Y-85591945D01*
X129114754Y-85666932D01*
X129109269Y-85702163D01*
X129096282Y-85785567D01*
X129096282Y-85785571D01*
X129094901Y-85794440D01*
X129096065Y-85803342D01*
X129096065Y-85803345D01*
X129110468Y-85913489D01*
X129110469Y-85913493D01*
X129111633Y-85922394D01*
X129163605Y-86040510D01*
X129169382Y-86047383D01*
X129169383Y-86047384D01*
X129208618Y-86094060D01*
X129246639Y-86139291D01*
X129354060Y-86210796D01*
X129477233Y-86249278D01*
X129486203Y-86249442D01*
X129486207Y-86249443D01*
X129544942Y-86250519D01*
X129606255Y-86251643D01*
X129687569Y-86229474D01*
X129722092Y-86220062D01*
X129722093Y-86220062D01*
X129730755Y-86217700D01*
X129738405Y-86213003D01*
X129738407Y-86213002D01*
X129833072Y-86154878D01*
X129833075Y-86154875D01*
X129840724Y-86150179D01*
X129850580Y-86139291D01*
X129906076Y-86077979D01*
X129966619Y-86040898D01*
X130037599Y-86042435D01*
X130096480Y-86082103D01*
X130124568Y-86147307D01*
X130125491Y-86162534D01*
X130125491Y-87326015D01*
X130105489Y-87394136D01*
X130093933Y-87409421D01*
X130045587Y-87464163D01*
X130041773Y-87472286D01*
X130041772Y-87472288D01*
X130024020Y-87510099D01*
X129990745Y-87580973D01*
X129989365Y-87589839D01*
X129972273Y-87699608D01*
X129972273Y-87699612D01*
X129970892Y-87708481D01*
X129972056Y-87717383D01*
X129972056Y-87717386D01*
X129986459Y-87827530D01*
X129986460Y-87827534D01*
X129987624Y-87836435D01*
X130039596Y-87954551D01*
X130045373Y-87961424D01*
X130045374Y-87961425D01*
X130114384Y-88043522D01*
X130122630Y-88053332D01*
X130130107Y-88058309D01*
X130201484Y-88105821D01*
X130230051Y-88124837D01*
X130353224Y-88163319D01*
X130362194Y-88163483D01*
X130362198Y-88163484D01*
X130420933Y-88164560D01*
X130482246Y-88165684D01*
X130563369Y-88143567D01*
X130598083Y-88134103D01*
X130598084Y-88134103D01*
X130606746Y-88131741D01*
X130709104Y-88068893D01*
X130777619Y-88050296D01*
X130844849Y-88071382D01*
X130904060Y-88110796D01*
X131027233Y-88149278D01*
X131036203Y-88149442D01*
X131036207Y-88149443D01*
X131094942Y-88150519D01*
X131156255Y-88151643D01*
X131246482Y-88127044D01*
X131272092Y-88120062D01*
X131272093Y-88120062D01*
X131280755Y-88117700D01*
X131288405Y-88113003D01*
X131288407Y-88113002D01*
X131383072Y-88054878D01*
X131383075Y-88054875D01*
X131390724Y-88050179D01*
X131396750Y-88043522D01*
X131471300Y-87961161D01*
X131471303Y-87961157D01*
X131477322Y-87954507D01*
X131481234Y-87946434D01*
X131481236Y-87946430D01*
X131511079Y-87884834D01*
X131558781Y-87832250D01*
X131627340Y-87813805D01*
X131694988Y-87835353D01*
X131720919Y-87858693D01*
X131746639Y-87889291D01*
X131854060Y-87960796D01*
X131921770Y-87981950D01*
X131977233Y-87999278D01*
X131976845Y-88000520D01*
X132032692Y-88027234D01*
X132070008Y-88087634D01*
X132074500Y-88120977D01*
X132074500Y-92816426D01*
X132054498Y-92884547D01*
X132000842Y-92931040D01*
X131930568Y-92941144D01*
X131879969Y-92922159D01*
X131848438Y-92901722D01*
X131848433Y-92901720D01*
X131840906Y-92896841D01*
X131832311Y-92894271D01*
X131832310Y-92894270D01*
X131725874Y-92862438D01*
X131725872Y-92862438D01*
X131717273Y-92859866D01*
X131708298Y-92859811D01*
X131708297Y-92859811D01*
X131653641Y-92859477D01*
X131588231Y-92859078D01*
X131576475Y-92862438D01*
X131472786Y-92892072D01*
X131472784Y-92892073D01*
X131464155Y-92894539D01*
X131456565Y-92899328D01*
X131384367Y-92944882D01*
X131355019Y-92963399D01*
X131349076Y-92970128D01*
X131349075Y-92970129D01*
X131325141Y-92997229D01*
X131269596Y-93060122D01*
X131265782Y-93068245D01*
X131265781Y-93068247D01*
X131249877Y-93102123D01*
X131214754Y-93176932D01*
X131213374Y-93185798D01*
X131196282Y-93295567D01*
X131196282Y-93295571D01*
X131194901Y-93304440D01*
X131196065Y-93313342D01*
X131196065Y-93313345D01*
X131210468Y-93423489D01*
X131210469Y-93423493D01*
X131211633Y-93432394D01*
X131263605Y-93550510D01*
X131269382Y-93557383D01*
X131269383Y-93557384D01*
X131338484Y-93639590D01*
X131346639Y-93649291D01*
X131454060Y-93720796D01*
X131577233Y-93759278D01*
X131586203Y-93759442D01*
X131586207Y-93759443D01*
X131644942Y-93760519D01*
X131706255Y-93761643D01*
X131768505Y-93744672D01*
X131822092Y-93730062D01*
X131822093Y-93730062D01*
X131830755Y-93727700D01*
X131882574Y-93695883D01*
X131951088Y-93677286D01*
X132018784Y-93698683D01*
X132064165Y-93753282D01*
X132074500Y-93803259D01*
X132074500Y-94712598D01*
X132054498Y-94780719D01*
X132037595Y-94801693D01*
X131600697Y-95238591D01*
X131538385Y-95272617D01*
X131510836Y-95275494D01*
X131441145Y-95275068D01*
X131379107Y-95292799D01*
X131325700Y-95308062D01*
X131325698Y-95308063D01*
X131317069Y-95310529D01*
X131207933Y-95379389D01*
X131122510Y-95476112D01*
X131118696Y-95484235D01*
X131118695Y-95484237D01*
X131116548Y-95488811D01*
X131067668Y-95592922D01*
X131063300Y-95620975D01*
X131049196Y-95711557D01*
X131049196Y-95711561D01*
X131047815Y-95720430D01*
X131048979Y-95729332D01*
X131048979Y-95729335D01*
X131063382Y-95839479D01*
X131063383Y-95839483D01*
X131064547Y-95848384D01*
X131116519Y-95966500D01*
X131199553Y-96065281D01*
X131306974Y-96136786D01*
X131430147Y-96175268D01*
X131439117Y-96175432D01*
X131439121Y-96175433D01*
X131497856Y-96176509D01*
X131559169Y-96177633D01*
X131615358Y-96162314D01*
X131686341Y-96163694D01*
X131745310Y-96203231D01*
X131773542Y-96268372D01*
X131774500Y-96283877D01*
X131774500Y-96708694D01*
X131754498Y-96776815D01*
X131737595Y-96797789D01*
X131083156Y-97452228D01*
X131064064Y-97467898D01*
X131051376Y-97476376D01*
X131036007Y-97499377D01*
X131034966Y-97498681D01*
X131034965Y-97498683D01*
X131036006Y-97499378D01*
X131033283Y-97503454D01*
X130990485Y-97567505D01*
X130990485Y-97567506D01*
X130969103Y-97675000D01*
X130971524Y-97687171D01*
X130972079Y-97689961D01*
X130974500Y-97714543D01*
X130974500Y-98610457D01*
X130972079Y-98635037D01*
X130969103Y-98650000D01*
X130974500Y-98677132D01*
X130974500Y-98677133D01*
X130990485Y-98757495D01*
X131013878Y-98792505D01*
X131024204Y-98807958D01*
X131051376Y-98848624D01*
X131061692Y-98855517D01*
X131061693Y-98855518D01*
X131064061Y-98857100D01*
X131083153Y-98872769D01*
X131373347Y-99162962D01*
X131637595Y-99427210D01*
X131671620Y-99489523D01*
X131674500Y-99516306D01*
X131674500Y-100928420D01*
X131654498Y-100996541D01*
X131600842Y-101043034D01*
X131529876Y-101053036D01*
X131525871Y-101052437D01*
X131517273Y-101049866D01*
X131508299Y-101049811D01*
X131508298Y-101049811D01*
X131452752Y-101049472D01*
X131388231Y-101049078D01*
X131336044Y-101063993D01*
X131272786Y-101082072D01*
X131272784Y-101082073D01*
X131264155Y-101084539D01*
X131224633Y-101109476D01*
X131222837Y-101110609D01*
X131154552Y-101130044D01*
X131086600Y-101109476D01*
X131040555Y-101055435D01*
X131031036Y-100985079D01*
X131053277Y-100930522D01*
X131102391Y-100862171D01*
X131118361Y-100839947D01*
X131121194Y-100832900D01*
X131178766Y-100689687D01*
X131178767Y-100689685D01*
X131181601Y-100682634D01*
X131195105Y-100587747D01*
X131204909Y-100518862D01*
X131204909Y-100518859D01*
X131205490Y-100514778D01*
X131205645Y-100500000D01*
X131202193Y-100471470D01*
X131191739Y-100385087D01*
X131185276Y-100331680D01*
X131125345Y-100173077D01*
X131065503Y-100086007D01*
X131033614Y-100039608D01*
X131033613Y-100039607D01*
X131029312Y-100033349D01*
X131017460Y-100022789D01*
X130908392Y-99925612D01*
X130908388Y-99925610D01*
X130902721Y-99920560D01*
X130865924Y-99901077D01*
X130815080Y-99851525D01*
X130799098Y-99782351D01*
X130823051Y-99715517D01*
X130831467Y-99705167D01*
X130864916Y-99668213D01*
X130877322Y-99654507D01*
X130933588Y-99538375D01*
X130935849Y-99524939D01*
X130954190Y-99415917D01*
X130954997Y-99411120D01*
X130955133Y-99400000D01*
X130943441Y-99318358D01*
X130938112Y-99281145D01*
X130938111Y-99281142D01*
X130936839Y-99272259D01*
X130932252Y-99262171D01*
X130887145Y-99162962D01*
X130887143Y-99162959D01*
X130883428Y-99154788D01*
X130799193Y-99057028D01*
X130690906Y-98986841D01*
X130682311Y-98984271D01*
X130682310Y-98984270D01*
X130575874Y-98952438D01*
X130575872Y-98952438D01*
X130567273Y-98949866D01*
X130558298Y-98949811D01*
X130558297Y-98949811D01*
X130503641Y-98949477D01*
X130438231Y-98949078D01*
X130426475Y-98952438D01*
X130322786Y-98982072D01*
X130322784Y-98982073D01*
X130314155Y-98984539D01*
X130306565Y-98989328D01*
X130271078Y-99011719D01*
X130205019Y-99053399D01*
X130179842Y-99081907D01*
X130119756Y-99119726D01*
X130085400Y-99124500D01*
X129969827Y-99124500D01*
X129901706Y-99104498D01*
X129880732Y-99087595D01*
X129292533Y-98499396D01*
X129258507Y-98437084D01*
X129256713Y-98408295D01*
X129255680Y-98408282D01*
X129255757Y-98402021D01*
X129255757Y-98402015D01*
X129255816Y-98397162D01*
X129243487Y-98311073D01*
X129238795Y-98278307D01*
X129238794Y-98278304D01*
X129237522Y-98269421D01*
X129222214Y-98235753D01*
X129187828Y-98160124D01*
X129187826Y-98160121D01*
X129184111Y-98151950D01*
X129140534Y-98101376D01*
X129105734Y-98060988D01*
X129105732Y-98060986D01*
X129099876Y-98054190D01*
X128991589Y-97984003D01*
X128982994Y-97981433D01*
X128982993Y-97981432D01*
X128876557Y-97949600D01*
X128876555Y-97949600D01*
X128867956Y-97947028D01*
X128858981Y-97946973D01*
X128858980Y-97946973D01*
X128804324Y-97946639D01*
X128738914Y-97946240D01*
X128690317Y-97960129D01*
X128623469Y-97979234D01*
X128623467Y-97979235D01*
X128614838Y-97981701D01*
X128607249Y-97986489D01*
X128602946Y-97988414D01*
X128532596Y-97997969D01*
X128468247Y-97967973D01*
X128430331Y-97907949D01*
X128425500Y-97873395D01*
X128425500Y-94242606D01*
X128419378Y-94225786D01*
X128413695Y-94204576D01*
X128412502Y-94197810D01*
X128410588Y-94186955D01*
X128401640Y-94171456D01*
X128392361Y-94151557D01*
X128386240Y-94134740D01*
X128379154Y-94126295D01*
X128379153Y-94126293D01*
X128374735Y-94121028D01*
X128362143Y-94103045D01*
X128358704Y-94097089D01*
X128353194Y-94087545D01*
X128344752Y-94080461D01*
X128344750Y-94080459D01*
X128339484Y-94076040D01*
X128323958Y-94060514D01*
X128319542Y-94055252D01*
X128312455Y-94046806D01*
X128296957Y-94037858D01*
X128278967Y-94025261D01*
X128273707Y-94020847D01*
X128273706Y-94020847D01*
X128265261Y-94013760D01*
X128254902Y-94009990D01*
X128250931Y-94007697D01*
X128201938Y-93956313D01*
X128188503Y-93886600D01*
X128189676Y-93877687D01*
X128204997Y-93786620D01*
X128205133Y-93775500D01*
X128186839Y-93647759D01*
X128171931Y-93614970D01*
X128137145Y-93538462D01*
X128137143Y-93538459D01*
X128133428Y-93530288D01*
X128081047Y-93469496D01*
X128051733Y-93404834D01*
X128050500Y-93387249D01*
X128050500Y-93336661D01*
X128070502Y-93268540D01*
X128087405Y-93247566D01*
X128546144Y-92788827D01*
X128608456Y-92754801D01*
X128635239Y-92751922D01*
X129289056Y-92751922D01*
X129291729Y-92752118D01*
X129296764Y-92753847D01*
X129308386Y-92753411D01*
X129308388Y-92753411D01*
X129345677Y-92752011D01*
X129350403Y-92751922D01*
X129369370Y-92751922D01*
X129374105Y-92751040D01*
X129377631Y-92750812D01*
X129381371Y-92750671D01*
X129408630Y-92749648D01*
X129419315Y-92745058D01*
X129423915Y-92744021D01*
X129435636Y-92740460D01*
X129440039Y-92738761D01*
X129451475Y-92736631D01*
X129472463Y-92723694D01*
X129488833Y-92715191D01*
X129503310Y-92708971D01*
X129503314Y-92708969D01*
X129511485Y-92705458D01*
X129516371Y-92701444D01*
X129518556Y-92699259D01*
X129520819Y-92697207D01*
X129520964Y-92697367D01*
X129529971Y-92690247D01*
X129536866Y-92683995D01*
X129546770Y-92677890D01*
X129563338Y-92656102D01*
X129574532Y-92643283D01*
X130749645Y-91468170D01*
X130811957Y-91434144D01*
X130882772Y-91439209D01*
X130935190Y-91476188D01*
X130996639Y-91549291D01*
X131104060Y-91620796D01*
X131227233Y-91659278D01*
X131236203Y-91659442D01*
X131236207Y-91659443D01*
X131294942Y-91660519D01*
X131356255Y-91661643D01*
X131470067Y-91630614D01*
X131472092Y-91630062D01*
X131472093Y-91630062D01*
X131480755Y-91627700D01*
X131488405Y-91623003D01*
X131488407Y-91623002D01*
X131583072Y-91564878D01*
X131583075Y-91564875D01*
X131590724Y-91560179D01*
X131596750Y-91553522D01*
X131671300Y-91471161D01*
X131671303Y-91471157D01*
X131677322Y-91464507D01*
X131733588Y-91348375D01*
X131736317Y-91332158D01*
X131754190Y-91225917D01*
X131754997Y-91221120D01*
X131755133Y-91210000D01*
X131743239Y-91126947D01*
X131738112Y-91091145D01*
X131738111Y-91091142D01*
X131736839Y-91082259D01*
X131733125Y-91074090D01*
X131687145Y-90972962D01*
X131687143Y-90972959D01*
X131683428Y-90964788D01*
X131629090Y-90901725D01*
X131605051Y-90873826D01*
X131605049Y-90873824D01*
X131599193Y-90867028D01*
X131490906Y-90796841D01*
X131482311Y-90794271D01*
X131482310Y-90794270D01*
X131438899Y-90781287D01*
X131379365Y-90742604D01*
X131350196Y-90677877D01*
X131349002Y-90660570D01*
X131349002Y-90308287D01*
X131369004Y-90240166D01*
X131409074Y-90200912D01*
X131481518Y-90156432D01*
X131481521Y-90156429D01*
X131489170Y-90151733D01*
X131495196Y-90145076D01*
X131569746Y-90062715D01*
X131569749Y-90062711D01*
X131575768Y-90056061D01*
X131632034Y-89939929D01*
X131653443Y-89812674D01*
X131653579Y-89801554D01*
X131640353Y-89709201D01*
X131636558Y-89682699D01*
X131636557Y-89682696D01*
X131635285Y-89673813D01*
X131617198Y-89634033D01*
X131585591Y-89564516D01*
X131585589Y-89564513D01*
X131581874Y-89556342D01*
X131533125Y-89499766D01*
X131503497Y-89465380D01*
X131503495Y-89465378D01*
X131497639Y-89458582D01*
X131389352Y-89388395D01*
X131380757Y-89385825D01*
X131380756Y-89385824D01*
X131274320Y-89353992D01*
X131274318Y-89353992D01*
X131265719Y-89351420D01*
X131256744Y-89351365D01*
X131256743Y-89351365D01*
X131202087Y-89351031D01*
X131136677Y-89350632D01*
X131082052Y-89366244D01*
X131021232Y-89383626D01*
X131021230Y-89383627D01*
X131012601Y-89386093D01*
X131005009Y-89390883D01*
X131005005Y-89390885D01*
X130933992Y-89435691D01*
X130865707Y-89455126D01*
X130798224Y-89434862D01*
X130747440Y-89401946D01*
X130747437Y-89401945D01*
X130739907Y-89397064D01*
X130731312Y-89394494D01*
X130731311Y-89394493D01*
X130624875Y-89362661D01*
X130624873Y-89362661D01*
X130616274Y-89360089D01*
X130607299Y-89360034D01*
X130607298Y-89360034D01*
X130548905Y-89359678D01*
X130490080Y-89359318D01*
X130490077Y-89359318D01*
X130487232Y-89359301D01*
X130487235Y-89358890D01*
X130422925Y-89349208D01*
X130369578Y-89302361D01*
X130350028Y-89234109D01*
X130350505Y-89223961D01*
X130352804Y-89197691D01*
X130352804Y-89197690D01*
X130353765Y-89186705D01*
X130344009Y-89150297D01*
X130341631Y-89139570D01*
X130339694Y-89128586D01*
X130335089Y-89102467D01*
X130329578Y-89092922D01*
X130328386Y-89089646D01*
X130326909Y-89086478D01*
X130324055Y-89075828D01*
X130302446Y-89044968D01*
X130296540Y-89035697D01*
X130283208Y-89012606D01*
X130277695Y-89003057D01*
X130248818Y-88978827D01*
X130240716Y-88971401D01*
X129613100Y-88343785D01*
X129605673Y-88335681D01*
X129588530Y-88315251D01*
X129588529Y-88315250D01*
X129581444Y-88306806D01*
X129571895Y-88301293D01*
X129548804Y-88287961D01*
X129539533Y-88282055D01*
X129517704Y-88266770D01*
X129508673Y-88260446D01*
X129498023Y-88257592D01*
X129494855Y-88256115D01*
X129491579Y-88254923D01*
X129482034Y-88249412D01*
X129448290Y-88243462D01*
X129444931Y-88242870D01*
X129434204Y-88240492D01*
X129397796Y-88230736D01*
X129386811Y-88231697D01*
X129386809Y-88231697D01*
X129360261Y-88234020D01*
X129349279Y-88234500D01*
X127819713Y-88234500D01*
X127808732Y-88234021D01*
X127782170Y-88231697D01*
X127782168Y-88231697D01*
X127771193Y-88230737D01*
X127734783Y-88240492D01*
X127724076Y-88242866D01*
X127686955Y-88249412D01*
X127677411Y-88254922D01*
X127674135Y-88256114D01*
X127670964Y-88257593D01*
X127660316Y-88260446D01*
X127651287Y-88266768D01*
X127629449Y-88282059D01*
X127620179Y-88287964D01*
X127597092Y-88301293D01*
X127597088Y-88301296D01*
X127587545Y-88306806D01*
X127580459Y-88315250D01*
X127580460Y-88315250D01*
X127563320Y-88335677D01*
X127555892Y-88343782D01*
X125527404Y-90372270D01*
X125465092Y-90406296D01*
X125455410Y-90408009D01*
X125447207Y-90409133D01*
X125438231Y-90409078D01*
X125376193Y-90426809D01*
X125322786Y-90442072D01*
X125322784Y-90442073D01*
X125314155Y-90444539D01*
X125205019Y-90513399D01*
X125199076Y-90520128D01*
X125199075Y-90520129D01*
X125169440Y-90553684D01*
X125119596Y-90610122D01*
X125115782Y-90618245D01*
X125115781Y-90618247D01*
X125099200Y-90653565D01*
X125064754Y-90726932D01*
X125056305Y-90781198D01*
X125046282Y-90845567D01*
X125046282Y-90845571D01*
X125044901Y-90854440D01*
X125046065Y-90863342D01*
X125046065Y-90863345D01*
X125060468Y-90973489D01*
X125060469Y-90973493D01*
X125061633Y-90982394D01*
X125065250Y-90990614D01*
X125107591Y-91086841D01*
X125113605Y-91100510D01*
X125119382Y-91107383D01*
X125119383Y-91107384D01*
X125190859Y-91192415D01*
X125196639Y-91199291D01*
X125304060Y-91270796D01*
X125391823Y-91298215D01*
X125416578Y-91305949D01*
X125427233Y-91309278D01*
X125507771Y-91310754D01*
X125575513Y-91332001D01*
X125621015Y-91386500D01*
X125629829Y-91456947D01*
X125594556Y-91525828D01*
X123883156Y-93237228D01*
X123864064Y-93252898D01*
X123851376Y-93261376D01*
X123836007Y-93284377D01*
X123833989Y-93283028D01*
X123833987Y-93283033D01*
X123836004Y-93284381D01*
X123827363Y-93297313D01*
X123797379Y-93342186D01*
X123797377Y-93342190D01*
X123790485Y-93352505D01*
X123774500Y-93432867D01*
X123769103Y-93460000D01*
X123771524Y-93472171D01*
X123772079Y-93474961D01*
X123774500Y-93499543D01*
X123774500Y-93820457D01*
X123772079Y-93845039D01*
X123769103Y-93860000D01*
X123774500Y-93887132D01*
X123774500Y-93887133D01*
X123790485Y-93967495D01*
X123801775Y-93984391D01*
X123803184Y-93986500D01*
X123803185Y-93986501D01*
X123832254Y-94030006D01*
X123844106Y-94047744D01*
X123851376Y-94058624D01*
X123861692Y-94065517D01*
X123861693Y-94065518D01*
X123864064Y-94067102D01*
X123883156Y-94082772D01*
X124127228Y-94326844D01*
X124142898Y-94345936D01*
X124151376Y-94358624D01*
X124174377Y-94373993D01*
X124174378Y-94373994D01*
X124191667Y-94385546D01*
X124242505Y-94419515D01*
X124254674Y-94421936D01*
X124254675Y-94421936D01*
X124322867Y-94435500D01*
X124337828Y-94438476D01*
X124337829Y-94438476D01*
X124350000Y-94440897D01*
X124364961Y-94437921D01*
X124389543Y-94435500D01*
X124810457Y-94435500D01*
X124835039Y-94437921D01*
X124850000Y-94440897D01*
X124877132Y-94435500D01*
X124877133Y-94435500D01*
X124957495Y-94419515D01*
X125008333Y-94385546D01*
X125025622Y-94373994D01*
X125025623Y-94373993D01*
X125048624Y-94358624D01*
X125057102Y-94345936D01*
X125072772Y-94326844D01*
X125102237Y-94297379D01*
X125164549Y-94263353D01*
X125193639Y-94260495D01*
X125256255Y-94261643D01*
X125351643Y-94235637D01*
X125372092Y-94230062D01*
X125372093Y-94230062D01*
X125380755Y-94227700D01*
X125388405Y-94223003D01*
X125388407Y-94223002D01*
X125483072Y-94164878D01*
X125483075Y-94164875D01*
X125490724Y-94160179D01*
X125535727Y-94110460D01*
X125596270Y-94073380D01*
X125666715Y-94074750D01*
X125757282Y-94103045D01*
X125777233Y-94109278D01*
X125786203Y-94109442D01*
X125786207Y-94109443D01*
X125844942Y-94110519D01*
X125906255Y-94111643D01*
X125968505Y-94094672D01*
X126022092Y-94080062D01*
X126022093Y-94080062D01*
X126030755Y-94077700D01*
X126038407Y-94073002D01*
X126046642Y-94069438D01*
X126047487Y-94071391D01*
X126104430Y-94055935D01*
X126172125Y-94077332D01*
X126217506Y-94131932D01*
X126223548Y-94149300D01*
X126230491Y-94175214D01*
X126232870Y-94185942D01*
X126239412Y-94223045D01*
X126244923Y-94232590D01*
X126246115Y-94235866D01*
X126247592Y-94239034D01*
X126250446Y-94249684D01*
X126272055Y-94280544D01*
X126277961Y-94289815D01*
X126291293Y-94312906D01*
X126296806Y-94322455D01*
X126305251Y-94329541D01*
X126325682Y-94346685D01*
X126333785Y-94354111D01*
X126495889Y-94516215D01*
X126503316Y-94524319D01*
X126527545Y-94553194D01*
X126537094Y-94558707D01*
X126560185Y-94572039D01*
X126569456Y-94577945D01*
X126600316Y-94599554D01*
X126610966Y-94602408D01*
X126614134Y-94603885D01*
X126617410Y-94605077D01*
X126626955Y-94610588D01*
X126660699Y-94616538D01*
X126664058Y-94617130D01*
X126674785Y-94619508D01*
X126711193Y-94629264D01*
X126722169Y-94628304D01*
X126722172Y-94628304D01*
X126748743Y-94625979D01*
X126759724Y-94625500D01*
X127648500Y-94625500D01*
X127716621Y-94645502D01*
X127763114Y-94699158D01*
X127774500Y-94751500D01*
X127774500Y-97807598D01*
X127754498Y-97875719D01*
X127700842Y-97922212D01*
X127630568Y-97932316D01*
X127612400Y-97928316D01*
X127517273Y-97899866D01*
X127508298Y-97899811D01*
X127508297Y-97899811D01*
X127453641Y-97899477D01*
X127388231Y-97899078D01*
X127376475Y-97902438D01*
X127272786Y-97932072D01*
X127272784Y-97932073D01*
X127264155Y-97934539D01*
X127256565Y-97939328D01*
X127178769Y-97988414D01*
X127155019Y-98003399D01*
X127149076Y-98010128D01*
X127149075Y-98010129D01*
X127139838Y-98020588D01*
X127069596Y-98100122D01*
X127065782Y-98108245D01*
X127065781Y-98108247D01*
X127041425Y-98160124D01*
X127014754Y-98216932D01*
X127006267Y-98271438D01*
X126996282Y-98335567D01*
X126996282Y-98335571D01*
X126994901Y-98344440D01*
X126996065Y-98353342D01*
X126996065Y-98353345D01*
X127010468Y-98463489D01*
X127010469Y-98463493D01*
X127011633Y-98472394D01*
X127063605Y-98590510D01*
X127069382Y-98597383D01*
X127069383Y-98597384D01*
X127113762Y-98650179D01*
X127146639Y-98689291D01*
X127164384Y-98701103D01*
X127240310Y-98751643D01*
X127254060Y-98760796D01*
X127355554Y-98792505D01*
X127377233Y-98799278D01*
X127376845Y-98800520D01*
X127432692Y-98827234D01*
X127470008Y-98887634D01*
X127474500Y-98920977D01*
X127474500Y-99210457D01*
X127472079Y-99235039D01*
X127469103Y-99250000D01*
X127474500Y-99277132D01*
X127474500Y-99277133D01*
X127490485Y-99357495D01*
X127497379Y-99367813D01*
X127497380Y-99367815D01*
X127513510Y-99391955D01*
X127529522Y-99415917D01*
X127529828Y-99416375D01*
X127551376Y-99448624D01*
X127561692Y-99455517D01*
X127561693Y-99455518D01*
X127564064Y-99457102D01*
X127583156Y-99472772D01*
X127837595Y-99727211D01*
X127871621Y-99789523D01*
X127874500Y-99816306D01*
X127874500Y-99933694D01*
X127854498Y-100001815D01*
X127837595Y-100022789D01*
X127733156Y-100127228D01*
X127714064Y-100142898D01*
X127701376Y-100151376D01*
X127694485Y-100161689D01*
X127686007Y-100174377D01*
X127686006Y-100174377D01*
X127675777Y-100189687D01*
X127671913Y-100195470D01*
X127640485Y-100242505D01*
X127624500Y-100322867D01*
X127619103Y-100350000D01*
X127621524Y-100362171D01*
X127622079Y-100364961D01*
X127624500Y-100389543D01*
X127624500Y-100810457D01*
X127622079Y-100835039D01*
X127619103Y-100850000D01*
X127624500Y-100877132D01*
X127624500Y-100877133D01*
X127640485Y-100957495D01*
X127668529Y-100999465D01*
X127685031Y-101024162D01*
X127701376Y-101048624D01*
X127711692Y-101055517D01*
X127711693Y-101055518D01*
X127714064Y-101057102D01*
X127733156Y-101072772D01*
X127977228Y-101316844D01*
X127992898Y-101335936D01*
X128001376Y-101348624D01*
X128011689Y-101355515D01*
X128024377Y-101363993D01*
X128024378Y-101363994D01*
X128036748Y-101372259D01*
X128036749Y-101372261D01*
X128082183Y-101402619D01*
X128082187Y-101402621D01*
X128092505Y-101409515D01*
X128124587Y-101415897D01*
X128158779Y-101422698D01*
X128221689Y-101455606D01*
X128256820Y-101517301D01*
X128253020Y-101588196D01*
X128211494Y-101645782D01*
X128201432Y-101652839D01*
X128163113Y-101677016D01*
X128163109Y-101677019D01*
X128155518Y-101681809D01*
X128070095Y-101778532D01*
X128066281Y-101786655D01*
X128066280Y-101786657D01*
X128061278Y-101797312D01*
X128015253Y-101895342D01*
X128013873Y-101904208D01*
X128013871Y-101904213D01*
X128012396Y-101913685D01*
X127982151Y-101977916D01*
X127976992Y-101983392D01*
X127966403Y-101993981D01*
X127904091Y-102028007D01*
X127846612Y-102027090D01*
X127745810Y-102001770D01*
X127738441Y-101999919D01*
X127730843Y-101999879D01*
X127730841Y-101999879D01*
X127659423Y-101999505D01*
X127568895Y-101999031D01*
X127561510Y-102000804D01*
X127536543Y-102006798D01*
X127465635Y-102003252D01*
X127407900Y-101961934D01*
X127389524Y-101926134D01*
X127389428Y-101926177D01*
X127388513Y-101924165D01*
X127363588Y-101869344D01*
X127339734Y-101816880D01*
X127339732Y-101816877D01*
X127336017Y-101808706D01*
X127251782Y-101710946D01*
X127143495Y-101640759D01*
X127134900Y-101638189D01*
X127134899Y-101638188D01*
X127028463Y-101606356D01*
X127028461Y-101606356D01*
X127019862Y-101603784D01*
X127010887Y-101603729D01*
X127010886Y-101603729D01*
X126956230Y-101603395D01*
X126890820Y-101602996D01*
X126879064Y-101606356D01*
X126775375Y-101635990D01*
X126775373Y-101635991D01*
X126766744Y-101638457D01*
X126759154Y-101643246D01*
X126698036Y-101681809D01*
X126657608Y-101707317D01*
X126572185Y-101804040D01*
X126568371Y-101812163D01*
X126568370Y-101812165D01*
X126558862Y-101832417D01*
X126517343Y-101920850D01*
X126510946Y-101961934D01*
X126498871Y-102039485D01*
X126498871Y-102039489D01*
X126497490Y-102048358D01*
X126498654Y-102057260D01*
X126498654Y-102057263D01*
X126513057Y-102167407D01*
X126513058Y-102167411D01*
X126514222Y-102176312D01*
X126533567Y-102220278D01*
X126558471Y-102276875D01*
X126566194Y-102294428D01*
X126571971Y-102301301D01*
X126571972Y-102301302D01*
X126643448Y-102386333D01*
X126649228Y-102393209D01*
X126656705Y-102398186D01*
X126739932Y-102453586D01*
X126756649Y-102464714D01*
X126864611Y-102498444D01*
X126923666Y-102537849D01*
X126952044Y-102602927D01*
X126951958Y-102635156D01*
X126948656Y-102660240D01*
X126944394Y-102692611D01*
X126962999Y-102861135D01*
X126967264Y-102872789D01*
X127016341Y-103006897D01*
X127021266Y-103020356D01*
X127115830Y-103161083D01*
X127121442Y-103166190D01*
X127121445Y-103166193D01*
X127235612Y-103270077D01*
X127235616Y-103270080D01*
X127241233Y-103275191D01*
X127247906Y-103278814D01*
X127247910Y-103278817D01*
X127383558Y-103352467D01*
X127383560Y-103352468D01*
X127390235Y-103356092D01*
X127397584Y-103358020D01*
X127546883Y-103397188D01*
X127546885Y-103397188D01*
X127554233Y-103399116D01*
X127640609Y-103400473D01*
X127716161Y-103401660D01*
X127716164Y-103401660D01*
X127723760Y-103401779D01*
X127731165Y-103400083D01*
X127731166Y-103400083D01*
X127803279Y-103383567D01*
X127885771Y-103364674D01*
X127956637Y-103368963D01*
X128013935Y-103410885D01*
X128029228Y-103436748D01*
X128033005Y-103445332D01*
X128038782Y-103452205D01*
X128038783Y-103452206D01*
X128091260Y-103514635D01*
X128116039Y-103544113D01*
X128223460Y-103615618D01*
X128346633Y-103654100D01*
X128355603Y-103654264D01*
X128355607Y-103654265D01*
X128414342Y-103655341D01*
X128475655Y-103656465D01*
X128588139Y-103625798D01*
X128591492Y-103624884D01*
X128591493Y-103624884D01*
X128600155Y-103622522D01*
X128607805Y-103617825D01*
X128607807Y-103617824D01*
X128702472Y-103559700D01*
X128702475Y-103559697D01*
X128710124Y-103555001D01*
X128716150Y-103548344D01*
X128790700Y-103465983D01*
X128790703Y-103465979D01*
X128796722Y-103459329D01*
X128852988Y-103343197D01*
X128854592Y-103333667D01*
X128873590Y-103220739D01*
X128874397Y-103215942D01*
X128874533Y-103204822D01*
X128860783Y-103108811D01*
X128857512Y-103085967D01*
X128857511Y-103085964D01*
X128856239Y-103077081D01*
X128826973Y-103012713D01*
X128806545Y-102967784D01*
X128806543Y-102967781D01*
X128802828Y-102959610D01*
X128772526Y-102924443D01*
X128724451Y-102868648D01*
X128724449Y-102868646D01*
X128718593Y-102861850D01*
X128610306Y-102791663D01*
X128601711Y-102789093D01*
X128601710Y-102789092D01*
X128495274Y-102757260D01*
X128495272Y-102757260D01*
X128486673Y-102754688D01*
X128477696Y-102754633D01*
X128477695Y-102754633D01*
X128473150Y-102754605D01*
X128468832Y-102753308D01*
X128468817Y-102753306D01*
X128468817Y-102753304D01*
X128405154Y-102734185D01*
X128358991Y-102680245D01*
X128348837Y-102643745D01*
X128346031Y-102620557D01*
X128357704Y-102550529D01*
X128405385Y-102497926D01*
X128473428Y-102479442D01*
X128506754Y-102480053D01*
X128603833Y-102453586D01*
X128622591Y-102448472D01*
X128622592Y-102448472D01*
X128631254Y-102446110D01*
X128638904Y-102441413D01*
X128638906Y-102441412D01*
X128733571Y-102383288D01*
X128733574Y-102383285D01*
X128741223Y-102378589D01*
X128771630Y-102344996D01*
X128821799Y-102289571D01*
X128821802Y-102289567D01*
X128827821Y-102282917D01*
X128884087Y-102166785D01*
X128885841Y-102156363D01*
X128904689Y-102044327D01*
X128905496Y-102039530D01*
X128905632Y-102028410D01*
X128905009Y-102024059D01*
X128920517Y-101954907D01*
X128941620Y-101926905D01*
X129056120Y-101812405D01*
X129118432Y-101778379D01*
X129145215Y-101775500D01*
X129534827Y-101775500D01*
X129602948Y-101795502D01*
X129631276Y-101820422D01*
X129647137Y-101839291D01*
X129754558Y-101910796D01*
X129763128Y-101913473D01*
X129771228Y-101917337D01*
X129769652Y-101920641D01*
X129814242Y-101950372D01*
X129842643Y-102015441D01*
X129835034Y-102077038D01*
X129816524Y-102124513D01*
X129815532Y-102132046D01*
X129815532Y-102132047D01*
X129796466Y-102276875D01*
X129794394Y-102292611D01*
X129812999Y-102461135D01*
X129871266Y-102620356D01*
X129875502Y-102626659D01*
X129875502Y-102626660D01*
X129886983Y-102643745D01*
X129965830Y-102761083D01*
X129971442Y-102766190D01*
X129971445Y-102766193D01*
X130085612Y-102870077D01*
X130085616Y-102870080D01*
X130091233Y-102875191D01*
X130097906Y-102878814D01*
X130097910Y-102878817D01*
X130233558Y-102952467D01*
X130233560Y-102952468D01*
X130240235Y-102956092D01*
X130325158Y-102978371D01*
X130380073Y-102992778D01*
X130440888Y-103029412D01*
X130472243Y-103093109D01*
X130468594Y-103151492D01*
X130467084Y-103156432D01*
X130463269Y-103164557D01*
X130461888Y-103173427D01*
X130444797Y-103283192D01*
X130444797Y-103283196D01*
X130443416Y-103292065D01*
X130444580Y-103300967D01*
X130444580Y-103300970D01*
X130458983Y-103411114D01*
X130458984Y-103411118D01*
X130460148Y-103420019D01*
X130463765Y-103428239D01*
X130496135Y-103501805D01*
X130512120Y-103538135D01*
X130517897Y-103545008D01*
X130517898Y-103545009D01*
X130585040Y-103624884D01*
X130595154Y-103636916D01*
X130702575Y-103708421D01*
X130825748Y-103746903D01*
X130834718Y-103747067D01*
X130834722Y-103747068D01*
X130893457Y-103748144D01*
X130954770Y-103749268D01*
X131017020Y-103732297D01*
X131070607Y-103717687D01*
X131070608Y-103717687D01*
X131079270Y-103715325D01*
X131086920Y-103710628D01*
X131086922Y-103710627D01*
X131181587Y-103652503D01*
X131181590Y-103652500D01*
X131189239Y-103647804D01*
X131199095Y-103636916D01*
X131219321Y-103614570D01*
X131279864Y-103577488D01*
X131312736Y-103573125D01*
X131562832Y-103573125D01*
X131587414Y-103575546D01*
X131602375Y-103578522D01*
X131629507Y-103573125D01*
X131629508Y-103573125D01*
X131709870Y-103557140D01*
X131773486Y-103514633D01*
X131777997Y-103511619D01*
X131779467Y-103513819D01*
X131779537Y-103513791D01*
X131778060Y-103511577D01*
X131778559Y-103511244D01*
X131808768Y-103501805D01*
X131834978Y-103491057D01*
X131840129Y-103492005D01*
X131846325Y-103490069D01*
X131880184Y-103499379D01*
X131904801Y-103503911D01*
X131908177Y-103507076D01*
X131914780Y-103508892D01*
X131939522Y-103536468D01*
X131956591Y-103552474D01*
X131957772Y-103556810D01*
X131962193Y-103561737D01*
X131974500Y-103616050D01*
X131974500Y-104930457D01*
X131972079Y-104955039D01*
X131969103Y-104970000D01*
X131974500Y-104997132D01*
X131974500Y-104997133D01*
X131990485Y-105077495D01*
X132051376Y-105168624D01*
X132061692Y-105175517D01*
X132061693Y-105175518D01*
X132064064Y-105177102D01*
X132083156Y-105192772D01*
X132821331Y-105930947D01*
X132855357Y-105993259D01*
X132850292Y-106064074D01*
X132842650Y-106080744D01*
X132832744Y-106098762D01*
X132832743Y-106098765D01*
X132829776Y-106104162D01*
X132767484Y-106300532D01*
X132766798Y-106306649D01*
X132766797Y-106306653D01*
X132745207Y-106499137D01*
X132744520Y-106505262D01*
X132761759Y-106710553D01*
X132818544Y-106908586D01*
X132821359Y-106914063D01*
X132821360Y-106914066D01*
X132842247Y-106954707D01*
X132912712Y-107091818D01*
X133040677Y-107253270D01*
X133045370Y-107257264D01*
X133045371Y-107257265D01*
X133186701Y-107377546D01*
X133225614Y-107436929D01*
X133226245Y-107507923D01*
X133188393Y-107567987D01*
X133124077Y-107598053D01*
X133105038Y-107599500D01*
X131950603Y-107599500D01*
X131882482Y-107579498D01*
X131835989Y-107525842D01*
X131825885Y-107455568D01*
X131855379Y-107390988D01*
X131873030Y-107374211D01*
X131983095Y-107288219D01*
X131983101Y-107288213D01*
X131987951Y-107284424D01*
X131994017Y-107277397D01*
X132118540Y-107133134D01*
X132118540Y-107133133D01*
X132122564Y-107128472D01*
X132143387Y-107091818D01*
X132221276Y-106954707D01*
X132224323Y-106949344D01*
X132289351Y-106753863D01*
X132315171Y-106549474D01*
X132315583Y-106520000D01*
X132295480Y-106314970D01*
X132235935Y-106117749D01*
X132139218Y-105935849D01*
X132046390Y-105822031D01*
X132012906Y-105780975D01*
X132012903Y-105780972D01*
X132009011Y-105776200D01*
X131991786Y-105761950D01*
X131855025Y-105648811D01*
X131855021Y-105648809D01*
X131850275Y-105644882D01*
X131702332Y-105564890D01*
X131674474Y-105549827D01*
X131669055Y-105546897D01*
X131472254Y-105485977D01*
X131466129Y-105485333D01*
X131466128Y-105485333D01*
X131273498Y-105465087D01*
X131273496Y-105465087D01*
X131267369Y-105464443D01*
X131180529Y-105472346D01*
X131068342Y-105482555D01*
X131068339Y-105482556D01*
X131062203Y-105483114D01*
X130864572Y-105541280D01*
X130682002Y-105636726D01*
X130677201Y-105640586D01*
X130677198Y-105640588D01*
X130666971Y-105648811D01*
X130521447Y-105765815D01*
X130389024Y-105923630D01*
X130386056Y-105929028D01*
X130386053Y-105929033D01*
X130311814Y-106064074D01*
X130289776Y-106104162D01*
X130227484Y-106300532D01*
X130226798Y-106306649D01*
X130226797Y-106306653D01*
X130205207Y-106499137D01*
X130204520Y-106505262D01*
X130221759Y-106710553D01*
X130278544Y-106908586D01*
X130281359Y-106914063D01*
X130281360Y-106914066D01*
X130302247Y-106954707D01*
X130372712Y-107091818D01*
X130500677Y-107253270D01*
X130505370Y-107257264D01*
X130505371Y-107257265D01*
X130646701Y-107377546D01*
X130685614Y-107436929D01*
X130686245Y-107507923D01*
X130648393Y-107567987D01*
X130584077Y-107598053D01*
X130565038Y-107599500D01*
X129410603Y-107599500D01*
X129342482Y-107579498D01*
X129295989Y-107525842D01*
X129285885Y-107455568D01*
X129315379Y-107390988D01*
X129333030Y-107374211D01*
X129443095Y-107288219D01*
X129443101Y-107288213D01*
X129447951Y-107284424D01*
X129454017Y-107277397D01*
X129578540Y-107133134D01*
X129578540Y-107133133D01*
X129582564Y-107128472D01*
X129603387Y-107091818D01*
X129681276Y-106954707D01*
X129684323Y-106949344D01*
X129749351Y-106753863D01*
X129775171Y-106549474D01*
X129775583Y-106520000D01*
X129755480Y-106314970D01*
X129695935Y-106117749D01*
X129599218Y-105935849D01*
X129506390Y-105822031D01*
X129472906Y-105780975D01*
X129472903Y-105780972D01*
X129469011Y-105776200D01*
X129451786Y-105761950D01*
X129315025Y-105648811D01*
X129315021Y-105648809D01*
X129310275Y-105644882D01*
X129162332Y-105564890D01*
X129134474Y-105549827D01*
X129129055Y-105546897D01*
X128932254Y-105485977D01*
X128926129Y-105485333D01*
X128926128Y-105485333D01*
X128733498Y-105465087D01*
X128733496Y-105465087D01*
X128727369Y-105464443D01*
X128640529Y-105472346D01*
X128528342Y-105482555D01*
X128528339Y-105482556D01*
X128522203Y-105483114D01*
X128324572Y-105541280D01*
X128142002Y-105636726D01*
X128137201Y-105640586D01*
X128137198Y-105640588D01*
X128126971Y-105648811D01*
X127981447Y-105765815D01*
X127849024Y-105923630D01*
X127846056Y-105929028D01*
X127846053Y-105929033D01*
X127771814Y-106064074D01*
X127749776Y-106104162D01*
X127687484Y-106300532D01*
X127686798Y-106306649D01*
X127686797Y-106306653D01*
X127665207Y-106499137D01*
X127664520Y-106505262D01*
X127681759Y-106710553D01*
X127738544Y-106908586D01*
X127741359Y-106914063D01*
X127741360Y-106914066D01*
X127762247Y-106954707D01*
X127832712Y-107091818D01*
X127960677Y-107253270D01*
X127965370Y-107257264D01*
X127965371Y-107257265D01*
X128106701Y-107377546D01*
X128145614Y-107436929D01*
X128146245Y-107507923D01*
X128108393Y-107567987D01*
X128044077Y-107598053D01*
X128025038Y-107599500D01*
X126870603Y-107599500D01*
X126802482Y-107579498D01*
X126755989Y-107525842D01*
X126745885Y-107455568D01*
X126775379Y-107390988D01*
X126793030Y-107374211D01*
X126903095Y-107288219D01*
X126903101Y-107288213D01*
X126907951Y-107284424D01*
X126914017Y-107277397D01*
X127038540Y-107133134D01*
X127038540Y-107133133D01*
X127042564Y-107128472D01*
X127063387Y-107091818D01*
X127141276Y-106954707D01*
X127144323Y-106949344D01*
X127209351Y-106753863D01*
X127235171Y-106549474D01*
X127235583Y-106520000D01*
X127215480Y-106314970D01*
X127155935Y-106117749D01*
X127059218Y-105935849D01*
X126966390Y-105822031D01*
X126932906Y-105780975D01*
X126932903Y-105780972D01*
X126929011Y-105776200D01*
X126911786Y-105761950D01*
X126775025Y-105648811D01*
X126775021Y-105648809D01*
X126770275Y-105644882D01*
X126622332Y-105564890D01*
X126594474Y-105549827D01*
X126589055Y-105546897D01*
X126392254Y-105485977D01*
X126386129Y-105485333D01*
X126386128Y-105485333D01*
X126193498Y-105465087D01*
X126193496Y-105465087D01*
X126187369Y-105464443D01*
X126100529Y-105472346D01*
X125988342Y-105482555D01*
X125988339Y-105482556D01*
X125982203Y-105483114D01*
X125784572Y-105541280D01*
X125779112Y-105544134D01*
X125779108Y-105544136D01*
X125739408Y-105564890D01*
X125669772Y-105578724D01*
X125603712Y-105552713D01*
X125591939Y-105542323D01*
X123912405Y-103862789D01*
X123878379Y-103800477D01*
X123875500Y-103773694D01*
X123875500Y-99315554D01*
X123895502Y-99247433D01*
X123908085Y-99230999D01*
X123971299Y-99161161D01*
X123977322Y-99154507D01*
X124033588Y-99038375D01*
X124042691Y-98984270D01*
X124054190Y-98915917D01*
X124054997Y-98911120D01*
X124055133Y-98900000D01*
X124040964Y-98801061D01*
X124038112Y-98781145D01*
X124038111Y-98781142D01*
X124036839Y-98772259D01*
X124028379Y-98753651D01*
X124018391Y-98683363D01*
X124047990Y-98618831D01*
X124107780Y-98580546D01*
X124143079Y-98575500D01*
X125134329Y-98575500D01*
X125202450Y-98595502D01*
X125230778Y-98620422D01*
X125246639Y-98639291D01*
X125354060Y-98710796D01*
X125436183Y-98736453D01*
X125464574Y-98745323D01*
X125477233Y-98749278D01*
X125486203Y-98749442D01*
X125486207Y-98749443D01*
X125544942Y-98750519D01*
X125606255Y-98751643D01*
X125668505Y-98734672D01*
X125722092Y-98720062D01*
X125722093Y-98720062D01*
X125730755Y-98717700D01*
X125738405Y-98713003D01*
X125738407Y-98713002D01*
X125833072Y-98654878D01*
X125833075Y-98654875D01*
X125840724Y-98650179D01*
X125846750Y-98643522D01*
X125921300Y-98561161D01*
X125921303Y-98561157D01*
X125927322Y-98554507D01*
X125983588Y-98438375D01*
X126004997Y-98311120D01*
X126005133Y-98300000D01*
X125995408Y-98232092D01*
X125988112Y-98181145D01*
X125988111Y-98181142D01*
X125986839Y-98172259D01*
X125983125Y-98164090D01*
X125937145Y-98062962D01*
X125937143Y-98062959D01*
X125933428Y-98054788D01*
X125889149Y-98003399D01*
X125855051Y-97963826D01*
X125855049Y-97963824D01*
X125849193Y-97957028D01*
X125740906Y-97886841D01*
X125732311Y-97884271D01*
X125732310Y-97884270D01*
X125625874Y-97852438D01*
X125625872Y-97852438D01*
X125617273Y-97849866D01*
X125608298Y-97849811D01*
X125608297Y-97849811D01*
X125553641Y-97849477D01*
X125488231Y-97849078D01*
X125476475Y-97852438D01*
X125372786Y-97882072D01*
X125372784Y-97882073D01*
X125364155Y-97884539D01*
X125356565Y-97889328D01*
X125265204Y-97946973D01*
X125255019Y-97953399D01*
X125230024Y-97981701D01*
X125229842Y-97981907D01*
X125169756Y-98019726D01*
X125135400Y-98024500D01*
X124718067Y-98024500D01*
X124649946Y-98004498D01*
X124603453Y-97950842D01*
X124593813Y-97877595D01*
X124595957Y-97864853D01*
X124604997Y-97811120D01*
X124605133Y-97800000D01*
X124586839Y-97672259D01*
X124583125Y-97664090D01*
X124537145Y-97562962D01*
X124537143Y-97562959D01*
X124533428Y-97554788D01*
X124485085Y-97498683D01*
X124455051Y-97463826D01*
X124455049Y-97463824D01*
X124449193Y-97457028D01*
X124441035Y-97451740D01*
X124436202Y-97448608D01*
X124340906Y-97386841D01*
X124332311Y-97384271D01*
X124332310Y-97384270D01*
X124225874Y-97352438D01*
X124225872Y-97352438D01*
X124217273Y-97349866D01*
X124208298Y-97349811D01*
X124208297Y-97349811D01*
X124153641Y-97349477D01*
X124088231Y-97349078D01*
X124026193Y-97366808D01*
X123972786Y-97382072D01*
X123972784Y-97382073D01*
X123964155Y-97384539D01*
X123942995Y-97397890D01*
X123869491Y-97444268D01*
X123855019Y-97453399D01*
X123829842Y-97481907D01*
X123769756Y-97519726D01*
X123735400Y-97524500D01*
X122989543Y-97524500D01*
X122964961Y-97522079D01*
X122962171Y-97521524D01*
X122950000Y-97519103D01*
X122922868Y-97524500D01*
X122922867Y-97524500D01*
X122842505Y-97540485D01*
X122806365Y-97564633D01*
X122774378Y-97586006D01*
X122774377Y-97586007D01*
X122751376Y-97601376D01*
X122744485Y-97611689D01*
X122742898Y-97614064D01*
X122727228Y-97633156D01*
X120283156Y-100077228D01*
X120264064Y-100092898D01*
X120251376Y-100101376D01*
X120244485Y-100111689D01*
X120236007Y-100124377D01*
X120236006Y-100124378D01*
X120230892Y-100132032D01*
X120230891Y-100132033D01*
X120207830Y-100166547D01*
X120190485Y-100192505D01*
X120188065Y-100204672D01*
X120188064Y-100204674D01*
X120183025Y-100230009D01*
X120180539Y-100242506D01*
X120169103Y-100300000D01*
X120171524Y-100312171D01*
X120172079Y-100314961D01*
X120174500Y-100339543D01*
X120174500Y-103333667D01*
X120154498Y-103401788D01*
X120142943Y-103417073D01*
X120069596Y-103500122D01*
X120065782Y-103508245D01*
X120065781Y-103508247D01*
X120051749Y-103538135D01*
X120014754Y-103616932D01*
X120008599Y-103656465D01*
X119996282Y-103735567D01*
X119996282Y-103735571D01*
X119994901Y-103744440D01*
X119996065Y-103753342D01*
X119996065Y-103753345D01*
X120010468Y-103863489D01*
X120010469Y-103863493D01*
X120011633Y-103872394D01*
X120015250Y-103880614D01*
X120058981Y-103980000D01*
X120063605Y-103990510D01*
X120146639Y-104089291D01*
X120154116Y-104094268D01*
X120234735Y-104147932D01*
X120254060Y-104160796D01*
X120377233Y-104199278D01*
X120386203Y-104199442D01*
X120386207Y-104199443D01*
X120444942Y-104200519D01*
X120506255Y-104201643D01*
X120603851Y-104175035D01*
X120622092Y-104170062D01*
X120622093Y-104170062D01*
X120630755Y-104167700D01*
X120638405Y-104163003D01*
X120638407Y-104163002D01*
X120733072Y-104104878D01*
X120733075Y-104104875D01*
X120740724Y-104100179D01*
X120746750Y-104093522D01*
X120821300Y-104011161D01*
X120821303Y-104011157D01*
X120827322Y-104004507D01*
X120883588Y-103888375D01*
X120904997Y-103761120D01*
X120905133Y-103750000D01*
X120891423Y-103654265D01*
X120888112Y-103631145D01*
X120888111Y-103631142D01*
X120886839Y-103622259D01*
X120866953Y-103578522D01*
X120837145Y-103512962D01*
X120837143Y-103512959D01*
X120833428Y-103504788D01*
X120788121Y-103452206D01*
X120756046Y-103414981D01*
X120726733Y-103350319D01*
X120725500Y-103332734D01*
X120725500Y-100466306D01*
X120745502Y-100398185D01*
X120762405Y-100377211D01*
X120937378Y-100202238D01*
X120999690Y-100168212D01*
X121070505Y-100173277D01*
X121127341Y-100215824D01*
X121144799Y-100248032D01*
X121168271Y-100312171D01*
X121171266Y-100320356D01*
X121175502Y-100326659D01*
X121175502Y-100326660D01*
X121188574Y-100346113D01*
X121265830Y-100461083D01*
X121271442Y-100466190D01*
X121271445Y-100466193D01*
X121385612Y-100570077D01*
X121385616Y-100570080D01*
X121391233Y-100575191D01*
X121397906Y-100578814D01*
X121397910Y-100578817D01*
X121533558Y-100652467D01*
X121533560Y-100652468D01*
X121540235Y-100656092D01*
X121547584Y-100658020D01*
X121696883Y-100697188D01*
X121696885Y-100697188D01*
X121704233Y-100699116D01*
X121790609Y-100700473D01*
X121866161Y-100701660D01*
X121866164Y-100701660D01*
X121873760Y-100701779D01*
X121881165Y-100700083D01*
X121881166Y-100700083D01*
X121960339Y-100681950D01*
X122039029Y-100663928D01*
X122190498Y-100587747D01*
X122269713Y-100520090D01*
X122313651Y-100482564D01*
X122313652Y-100482563D01*
X122319423Y-100477634D01*
X122418361Y-100339947D01*
X122426237Y-100320356D01*
X122478766Y-100189687D01*
X122478767Y-100189685D01*
X122481601Y-100182634D01*
X122503566Y-100028296D01*
X122504909Y-100018862D01*
X122504909Y-100018859D01*
X122505490Y-100014778D01*
X122505645Y-100000000D01*
X122485276Y-99831680D01*
X122482593Y-99824579D01*
X122482591Y-99824572D01*
X122479111Y-99815362D01*
X122473745Y-99744569D01*
X122507883Y-99681733D01*
X123041334Y-99148282D01*
X123103646Y-99114256D01*
X123174461Y-99119321D01*
X123226880Y-99156302D01*
X123294951Y-99237283D01*
X123323472Y-99302299D01*
X123324500Y-99318358D01*
X123324500Y-103900457D01*
X123322079Y-103925039D01*
X123319103Y-103940000D01*
X123324500Y-103967132D01*
X123324500Y-103967133D01*
X123340485Y-104047495D01*
X123347380Y-104057814D01*
X123358164Y-104073954D01*
X123371240Y-104093522D01*
X123375688Y-104100179D01*
X123401376Y-104138624D01*
X123411692Y-104145517D01*
X123411693Y-104145518D01*
X123414064Y-104147102D01*
X123433156Y-104162772D01*
X125201331Y-105930947D01*
X125235357Y-105993259D01*
X125230292Y-106064074D01*
X125222650Y-106080744D01*
X125212744Y-106098762D01*
X125212743Y-106098765D01*
X125209776Y-106104162D01*
X125147484Y-106300532D01*
X125146798Y-106306649D01*
X125146797Y-106306653D01*
X125125207Y-106499137D01*
X125124520Y-106505262D01*
X125141759Y-106710553D01*
X125198544Y-106908586D01*
X125201359Y-106914063D01*
X125201360Y-106914066D01*
X125222247Y-106954707D01*
X125292712Y-107091818D01*
X125420677Y-107253270D01*
X125425370Y-107257264D01*
X125425371Y-107257265D01*
X125566701Y-107377546D01*
X125605614Y-107436929D01*
X125606245Y-107507923D01*
X125568393Y-107567987D01*
X125504077Y-107598053D01*
X125485038Y-107599500D01*
X124330603Y-107599500D01*
X124262482Y-107579498D01*
X124215989Y-107525842D01*
X124205885Y-107455568D01*
X124235379Y-107390988D01*
X124253030Y-107374211D01*
X124363095Y-107288219D01*
X124363101Y-107288213D01*
X124367951Y-107284424D01*
X124374017Y-107277397D01*
X124498540Y-107133134D01*
X124498540Y-107133133D01*
X124502564Y-107128472D01*
X124523387Y-107091818D01*
X124601276Y-106954707D01*
X124604323Y-106949344D01*
X124669351Y-106753863D01*
X124695171Y-106549474D01*
X124695583Y-106520000D01*
X124675480Y-106314970D01*
X124615935Y-106117749D01*
X124519218Y-105935849D01*
X124426390Y-105822031D01*
X124392906Y-105780975D01*
X124392903Y-105780972D01*
X124389011Y-105776200D01*
X124371786Y-105761950D01*
X124235025Y-105648811D01*
X124235021Y-105648809D01*
X124230275Y-105644882D01*
X124082332Y-105564890D01*
X124054474Y-105549827D01*
X124049055Y-105546897D01*
X123852254Y-105485977D01*
X123846129Y-105485333D01*
X123846128Y-105485333D01*
X123653498Y-105465087D01*
X123653496Y-105465087D01*
X123647369Y-105464443D01*
X123560529Y-105472346D01*
X123448342Y-105482555D01*
X123448339Y-105482556D01*
X123442203Y-105483114D01*
X123244572Y-105541280D01*
X123062002Y-105636726D01*
X123057201Y-105640586D01*
X123057198Y-105640588D01*
X123046971Y-105648811D01*
X122901447Y-105765815D01*
X122769024Y-105923630D01*
X122766056Y-105929028D01*
X122766053Y-105929033D01*
X122691814Y-106064074D01*
X122669776Y-106104162D01*
X122607484Y-106300532D01*
X122606798Y-106306649D01*
X122606797Y-106306653D01*
X122585207Y-106499137D01*
X122584520Y-106505262D01*
X122601759Y-106710553D01*
X122658544Y-106908586D01*
X122661359Y-106914063D01*
X122661360Y-106914066D01*
X122682247Y-106954707D01*
X122752712Y-107091818D01*
X122880677Y-107253270D01*
X122885370Y-107257264D01*
X122885371Y-107257265D01*
X123026701Y-107377546D01*
X123065614Y-107436929D01*
X123066245Y-107507923D01*
X123028393Y-107567987D01*
X122964077Y-107598053D01*
X122945038Y-107599500D01*
X121790603Y-107599500D01*
X121722482Y-107579498D01*
X121675989Y-107525842D01*
X121665885Y-107455568D01*
X121695379Y-107390988D01*
X121713030Y-107374211D01*
X121823095Y-107288219D01*
X121823101Y-107288213D01*
X121827951Y-107284424D01*
X121834017Y-107277397D01*
X121958540Y-107133134D01*
X121958540Y-107133133D01*
X121962564Y-107128472D01*
X121983387Y-107091818D01*
X122061276Y-106954707D01*
X122064323Y-106949344D01*
X122129351Y-106753863D01*
X122155171Y-106549474D01*
X122155583Y-106520000D01*
X122135480Y-106314970D01*
X122075935Y-106117749D01*
X121979218Y-105935849D01*
X121886390Y-105822031D01*
X121852906Y-105780975D01*
X121852903Y-105780972D01*
X121849011Y-105776200D01*
X121831786Y-105761950D01*
X121695025Y-105648811D01*
X121695021Y-105648809D01*
X121690275Y-105644882D01*
X121542332Y-105564890D01*
X121514474Y-105549827D01*
X121509055Y-105546897D01*
X121312254Y-105485977D01*
X121306129Y-105485333D01*
X121306128Y-105485333D01*
X121113498Y-105465087D01*
X121113496Y-105465087D01*
X121107369Y-105464443D01*
X121020529Y-105472346D01*
X120908342Y-105482555D01*
X120908339Y-105482556D01*
X120902203Y-105483114D01*
X120704572Y-105541280D01*
X120522002Y-105636726D01*
X120517201Y-105640586D01*
X120517198Y-105640588D01*
X120506971Y-105648811D01*
X120361447Y-105765815D01*
X120229024Y-105923630D01*
X120226056Y-105929028D01*
X120226053Y-105929033D01*
X120151814Y-106064074D01*
X120129776Y-106104162D01*
X120067484Y-106300532D01*
X120066798Y-106306649D01*
X120066797Y-106306653D01*
X120045207Y-106499137D01*
X120044520Y-106505262D01*
X120061759Y-106710553D01*
X120118544Y-106908586D01*
X120121359Y-106914063D01*
X120121360Y-106914066D01*
X120142247Y-106954707D01*
X120212712Y-107091818D01*
X120340677Y-107253270D01*
X120345370Y-107257264D01*
X120345371Y-107257265D01*
X120486701Y-107377546D01*
X120525614Y-107436929D01*
X120526245Y-107507923D01*
X120488393Y-107567987D01*
X120424077Y-107598053D01*
X120405038Y-107599500D01*
X119250603Y-107599500D01*
X119182482Y-107579498D01*
X119135989Y-107525842D01*
X119125885Y-107455568D01*
X119155379Y-107390988D01*
X119173030Y-107374211D01*
X119283095Y-107288219D01*
X119283101Y-107288213D01*
X119287951Y-107284424D01*
X119294017Y-107277397D01*
X119418540Y-107133134D01*
X119418540Y-107133133D01*
X119422564Y-107128472D01*
X119443387Y-107091818D01*
X119521276Y-106954707D01*
X119524323Y-106949344D01*
X119589351Y-106753863D01*
X119615171Y-106549474D01*
X119615583Y-106520000D01*
X119595480Y-106314970D01*
X119535935Y-106117749D01*
X119439218Y-105935849D01*
X119346390Y-105822031D01*
X119312906Y-105780975D01*
X119312903Y-105780972D01*
X119309011Y-105776200D01*
X119291786Y-105761950D01*
X119155025Y-105648811D01*
X119155021Y-105648809D01*
X119150275Y-105644882D01*
X119002332Y-105564890D01*
X118974474Y-105549827D01*
X118969055Y-105546897D01*
X118772254Y-105485977D01*
X118766129Y-105485333D01*
X118766128Y-105485333D01*
X118573498Y-105465087D01*
X118573496Y-105465087D01*
X118567369Y-105464443D01*
X118480529Y-105472346D01*
X118368342Y-105482555D01*
X118368339Y-105482556D01*
X118362203Y-105483114D01*
X118164572Y-105541280D01*
X117982002Y-105636726D01*
X117977201Y-105640586D01*
X117977198Y-105640588D01*
X117966971Y-105648811D01*
X117821447Y-105765815D01*
X117817480Y-105770543D01*
X117723021Y-105883114D01*
X117663912Y-105922441D01*
X117592924Y-105923567D01*
X117532596Y-105886136D01*
X117502083Y-105822031D01*
X117500500Y-105802123D01*
X117500500Y-104696363D01*
X117520502Y-104628242D01*
X117574158Y-104581749D01*
X117644432Y-104571645D01*
X117709012Y-104601139D01*
X117725246Y-104618099D01*
X117796849Y-104708441D01*
X117796852Y-104708444D01*
X117800677Y-104713270D01*
X117957564Y-104846791D01*
X118137398Y-104947297D01*
X118232238Y-104978113D01*
X118327471Y-105009056D01*
X118327475Y-105009057D01*
X118333329Y-105010959D01*
X118537894Y-105035351D01*
X118544029Y-105034879D01*
X118544031Y-105034879D01*
X118600039Y-105030569D01*
X118743300Y-105019546D01*
X118749230Y-105017890D01*
X118749232Y-105017890D01*
X118877163Y-104982171D01*
X118941725Y-104964145D01*
X118947214Y-104961372D01*
X118947220Y-104961370D01*
X119120116Y-104874033D01*
X119125610Y-104871258D01*
X119287951Y-104744424D01*
X119319011Y-104708441D01*
X119418540Y-104593134D01*
X119418540Y-104593133D01*
X119422564Y-104588472D01*
X119443387Y-104551818D01*
X119521276Y-104414707D01*
X119524323Y-104409344D01*
X119589351Y-104213863D01*
X119615171Y-104009474D01*
X119615583Y-103980000D01*
X119595480Y-103774970D01*
X119535935Y-103577749D01*
X119439218Y-103395849D01*
X119343769Y-103278817D01*
X119312906Y-103240975D01*
X119312903Y-103240972D01*
X119309011Y-103236200D01*
X119290322Y-103220739D01*
X119155025Y-103108811D01*
X119155021Y-103108809D01*
X119150275Y-103104882D01*
X118980753Y-103013222D01*
X118974474Y-103009827D01*
X118969055Y-103006897D01*
X118772254Y-102945977D01*
X118766129Y-102945333D01*
X118766128Y-102945333D01*
X118573498Y-102925087D01*
X118573496Y-102925087D01*
X118567369Y-102924443D01*
X118480529Y-102932346D01*
X118368342Y-102942555D01*
X118368339Y-102942556D01*
X118362203Y-102943114D01*
X118164572Y-103001280D01*
X117982002Y-103096726D01*
X117977201Y-103100586D01*
X117977198Y-103100588D01*
X117827760Y-103220739D01*
X117821447Y-103225815D01*
X117758384Y-103300970D01*
X117723021Y-103343114D01*
X117663912Y-103382441D01*
X117592924Y-103383567D01*
X117532596Y-103346136D01*
X117502083Y-103282031D01*
X117500500Y-103262123D01*
X117500500Y-102156363D01*
X117520502Y-102088242D01*
X117574158Y-102041749D01*
X117644432Y-102031645D01*
X117709012Y-102061139D01*
X117725246Y-102078099D01*
X117796849Y-102168441D01*
X117796852Y-102168444D01*
X117800677Y-102173270D01*
X117805370Y-102177264D01*
X117805371Y-102177265D01*
X117949585Y-102300000D01*
X117957564Y-102306791D01*
X118137398Y-102407297D01*
X118232238Y-102438113D01*
X118327471Y-102469056D01*
X118327475Y-102469057D01*
X118333329Y-102470959D01*
X118537894Y-102495351D01*
X118544029Y-102494879D01*
X118544031Y-102494879D01*
X118600039Y-102490569D01*
X118743300Y-102479546D01*
X118749230Y-102477890D01*
X118749232Y-102477890D01*
X118935797Y-102425800D01*
X118935796Y-102425800D01*
X118941725Y-102424145D01*
X118947214Y-102421372D01*
X118947220Y-102421370D01*
X119120116Y-102334033D01*
X119125610Y-102331258D01*
X119151984Y-102310653D01*
X119254726Y-102230382D01*
X119287951Y-102204424D01*
X119312217Y-102176312D01*
X119418540Y-102053134D01*
X119418540Y-102053133D01*
X119422564Y-102048472D01*
X119426682Y-102041224D01*
X119476599Y-101953353D01*
X119524323Y-101869344D01*
X119589351Y-101673863D01*
X119615171Y-101469474D01*
X119615583Y-101440000D01*
X119595480Y-101234970D01*
X119535935Y-101037749D01*
X119439218Y-100855849D01*
X119337041Y-100730568D01*
X119312906Y-100700975D01*
X119312903Y-100700972D01*
X119309011Y-100696200D01*
X119291786Y-100681950D01*
X119155025Y-100568811D01*
X119155021Y-100568809D01*
X119150275Y-100564882D01*
X118969055Y-100466897D01*
X118772254Y-100405977D01*
X118766129Y-100405333D01*
X118766128Y-100405333D01*
X118573498Y-100385087D01*
X118573496Y-100385087D01*
X118567369Y-100384443D01*
X118480529Y-100392346D01*
X118368342Y-100402555D01*
X118368339Y-100402556D01*
X118362203Y-100403114D01*
X118164572Y-100461280D01*
X117982002Y-100556726D01*
X117977201Y-100560586D01*
X117977198Y-100560588D01*
X117858415Y-100656092D01*
X117821447Y-100685815D01*
X117808052Y-100701779D01*
X117723021Y-100803114D01*
X117663912Y-100842441D01*
X117592924Y-100843567D01*
X117532596Y-100806136D01*
X117502083Y-100742031D01*
X117500500Y-100722123D01*
X117500500Y-99616363D01*
X117520502Y-99548242D01*
X117574158Y-99501749D01*
X117644432Y-99491645D01*
X117709012Y-99521139D01*
X117725243Y-99538096D01*
X117733285Y-99548242D01*
X117796849Y-99628441D01*
X117796852Y-99628444D01*
X117800677Y-99633270D01*
X117805370Y-99637264D01*
X117805371Y-99637265D01*
X117925252Y-99739291D01*
X117957564Y-99766791D01*
X117962942Y-99769797D01*
X117962944Y-99769798D01*
X118044471Y-99815362D01*
X118137398Y-99867297D01*
X118232238Y-99898113D01*
X118327471Y-99929056D01*
X118327475Y-99929057D01*
X118333329Y-99930959D01*
X118537894Y-99955351D01*
X118544029Y-99954879D01*
X118544031Y-99954879D01*
X118600039Y-99950569D01*
X118743300Y-99939546D01*
X118749230Y-99937890D01*
X118749232Y-99937890D01*
X118935797Y-99885800D01*
X118935796Y-99885800D01*
X118941725Y-99884145D01*
X118947214Y-99881372D01*
X118947220Y-99881370D01*
X119120116Y-99794033D01*
X119125610Y-99791258D01*
X119160351Y-99764116D01*
X119266866Y-99680897D01*
X119287951Y-99664424D01*
X119292189Y-99659515D01*
X119418540Y-99513134D01*
X119418540Y-99513133D01*
X119422564Y-99508472D01*
X119442845Y-99472772D01*
X119484185Y-99400000D01*
X119524323Y-99329344D01*
X119589351Y-99133863D01*
X119615171Y-98929474D01*
X119615583Y-98900000D01*
X119595480Y-98694970D01*
X119535935Y-98497749D01*
X119439218Y-98315849D01*
X119358543Y-98216932D01*
X119312906Y-98160975D01*
X119312903Y-98160972D01*
X119309011Y-98156200D01*
X119296458Y-98145815D01*
X119155025Y-98028811D01*
X119155021Y-98028809D01*
X119150275Y-98024882D01*
X118969055Y-97926897D01*
X118772254Y-97865977D01*
X118766129Y-97865333D01*
X118766128Y-97865333D01*
X118573498Y-97845087D01*
X118573496Y-97845087D01*
X118567369Y-97844443D01*
X118489329Y-97851545D01*
X118368342Y-97862555D01*
X118368339Y-97862556D01*
X118362203Y-97863114D01*
X118164572Y-97921280D01*
X118159107Y-97924137D01*
X118105527Y-97952148D01*
X117982002Y-98016726D01*
X117977201Y-98020586D01*
X117977198Y-98020588D01*
X117826973Y-98141372D01*
X117821447Y-98145815D01*
X117790981Y-98182123D01*
X117723021Y-98263114D01*
X117663912Y-98302441D01*
X117592924Y-98303567D01*
X117532596Y-98266136D01*
X117502083Y-98202031D01*
X117500500Y-98182123D01*
X117500500Y-97076363D01*
X117520502Y-97008242D01*
X117574158Y-96961749D01*
X117644432Y-96951645D01*
X117709012Y-96981139D01*
X117725246Y-96998099D01*
X117796849Y-97088441D01*
X117796852Y-97088444D01*
X117800677Y-97093270D01*
X117805370Y-97097264D01*
X117805371Y-97097265D01*
X117952398Y-97222394D01*
X117957564Y-97226791D01*
X117962942Y-97229797D01*
X117962944Y-97229798D01*
X117994563Y-97247469D01*
X118137398Y-97327297D01*
X118214774Y-97352438D01*
X118327471Y-97389056D01*
X118327475Y-97389057D01*
X118333329Y-97390959D01*
X118537894Y-97415351D01*
X118544029Y-97414879D01*
X118544031Y-97414879D01*
X118600039Y-97410569D01*
X118743300Y-97399546D01*
X118749230Y-97397890D01*
X118749232Y-97397890D01*
X118904612Y-97354507D01*
X118941725Y-97344145D01*
X118947214Y-97341372D01*
X118947220Y-97341370D01*
X119120116Y-97254033D01*
X119125610Y-97251258D01*
X119144079Y-97236829D01*
X119247425Y-97156086D01*
X119287951Y-97124424D01*
X119303632Y-97106258D01*
X119313833Y-97094440D01*
X120494901Y-97094440D01*
X120496065Y-97103342D01*
X120496065Y-97103345D01*
X120510468Y-97213489D01*
X120510469Y-97213493D01*
X120511633Y-97222394D01*
X120515250Y-97230614D01*
X120558027Y-97327832D01*
X120563605Y-97340510D01*
X120569382Y-97347383D01*
X120569383Y-97347384D01*
X120626515Y-97415351D01*
X120646639Y-97439291D01*
X120754060Y-97510796D01*
X120829247Y-97534286D01*
X120857110Y-97542991D01*
X120877233Y-97549278D01*
X120886203Y-97549442D01*
X120886207Y-97549443D01*
X120944942Y-97550519D01*
X121006255Y-97551643D01*
X121083501Y-97530583D01*
X121122092Y-97520062D01*
X121122093Y-97520062D01*
X121130755Y-97517700D01*
X121138405Y-97513003D01*
X121138407Y-97513002D01*
X121233072Y-97454878D01*
X121233075Y-97454875D01*
X121240724Y-97450179D01*
X121246750Y-97443522D01*
X121321300Y-97361161D01*
X121321303Y-97361157D01*
X121327322Y-97354507D01*
X121383588Y-97238375D01*
X121404997Y-97111120D01*
X121405133Y-97100000D01*
X121386839Y-96972259D01*
X121382681Y-96963114D01*
X121337145Y-96862962D01*
X121337143Y-96862959D01*
X121333428Y-96854788D01*
X121271995Y-96783491D01*
X121255051Y-96763826D01*
X121255049Y-96763824D01*
X121249193Y-96757028D01*
X121140906Y-96686841D01*
X121132311Y-96684271D01*
X121132310Y-96684270D01*
X121025874Y-96652438D01*
X121025872Y-96652438D01*
X121017273Y-96649866D01*
X121008298Y-96649811D01*
X121008297Y-96649811D01*
X120953641Y-96649477D01*
X120888231Y-96649078D01*
X120876475Y-96652438D01*
X120772786Y-96682072D01*
X120772784Y-96682073D01*
X120764155Y-96684539D01*
X120655019Y-96753399D01*
X120649076Y-96760128D01*
X120649075Y-96760129D01*
X120623273Y-96789344D01*
X120569596Y-96850122D01*
X120565782Y-96858245D01*
X120565781Y-96858247D01*
X120544878Y-96902770D01*
X120514754Y-96966932D01*
X120508322Y-97008242D01*
X120496282Y-97085567D01*
X120496282Y-97085571D01*
X120494901Y-97094440D01*
X119313833Y-97094440D01*
X119418540Y-96973134D01*
X119418540Y-96973133D01*
X119422564Y-96968472D01*
X119428054Y-96958809D01*
X119482502Y-96862962D01*
X119524323Y-96789344D01*
X119589351Y-96593863D01*
X119615171Y-96389474D01*
X119615583Y-96360000D01*
X119595480Y-96154970D01*
X119535935Y-95957749D01*
X119439218Y-95775849D01*
X119346390Y-95662031D01*
X119312906Y-95620975D01*
X119312903Y-95620972D01*
X119309011Y-95616200D01*
X119296458Y-95605815D01*
X119155025Y-95488811D01*
X119155021Y-95488809D01*
X119150275Y-95484882D01*
X118969055Y-95386897D01*
X118772254Y-95325977D01*
X118766129Y-95325333D01*
X118766128Y-95325333D01*
X118573498Y-95305087D01*
X118573496Y-95305087D01*
X118567369Y-95304443D01*
X118480529Y-95312346D01*
X118368342Y-95322555D01*
X118368339Y-95322556D01*
X118362203Y-95323114D01*
X118164572Y-95381280D01*
X117982002Y-95476726D01*
X117977201Y-95480586D01*
X117977198Y-95480588D01*
X117826254Y-95601950D01*
X117821447Y-95605815D01*
X117808726Y-95620975D01*
X117723021Y-95723114D01*
X117663912Y-95762441D01*
X117592924Y-95763567D01*
X117532596Y-95726136D01*
X117502083Y-95662031D01*
X117500500Y-95642123D01*
X117500500Y-94536363D01*
X117520502Y-94468242D01*
X117574158Y-94421749D01*
X117644432Y-94411645D01*
X117709012Y-94441139D01*
X117725246Y-94458099D01*
X117796849Y-94548441D01*
X117796852Y-94548444D01*
X117800677Y-94553270D01*
X117805370Y-94557264D01*
X117805371Y-94557265D01*
X117909366Y-94645771D01*
X117957564Y-94686791D01*
X117962942Y-94689797D01*
X117962944Y-94689798D01*
X117994563Y-94707469D01*
X118137398Y-94787297D01*
X118232238Y-94818113D01*
X118327471Y-94849056D01*
X118327475Y-94849057D01*
X118333329Y-94850959D01*
X118537894Y-94875351D01*
X118544029Y-94874879D01*
X118544031Y-94874879D01*
X118600039Y-94870569D01*
X118743300Y-94859546D01*
X118749230Y-94857890D01*
X118749232Y-94857890D01*
X118935797Y-94805800D01*
X118935796Y-94805800D01*
X118941725Y-94804145D01*
X118947214Y-94801372D01*
X118947220Y-94801370D01*
X119120116Y-94714033D01*
X119125610Y-94711258D01*
X119141098Y-94699158D01*
X119263042Y-94603885D01*
X119287951Y-94584424D01*
X119293544Y-94577945D01*
X119418540Y-94433134D01*
X119418540Y-94433133D01*
X119422564Y-94428472D01*
X119427653Y-94419515D01*
X119468102Y-94348311D01*
X119524323Y-94249344D01*
X119589351Y-94053863D01*
X119615171Y-93849474D01*
X119615583Y-93820000D01*
X119595480Y-93614970D01*
X119535935Y-93417749D01*
X119439218Y-93235849D01*
X119346390Y-93122031D01*
X119312906Y-93080975D01*
X119312903Y-93080972D01*
X119309011Y-93076200D01*
X119302173Y-93070543D01*
X119257539Y-93033618D01*
X121397614Y-93033618D01*
X121398778Y-93042520D01*
X121398778Y-93042523D01*
X121413181Y-93152667D01*
X121413182Y-93152671D01*
X121414346Y-93161572D01*
X121417963Y-93169792D01*
X121458261Y-93261376D01*
X121466318Y-93279688D01*
X121472095Y-93286561D01*
X121472096Y-93286562D01*
X121533860Y-93360039D01*
X121549352Y-93378469D01*
X121556829Y-93383446D01*
X121642712Y-93440614D01*
X121656773Y-93449974D01*
X121779946Y-93488456D01*
X121788916Y-93488620D01*
X121788920Y-93488621D01*
X121847655Y-93489697D01*
X121908968Y-93490821D01*
X122022017Y-93460000D01*
X122024805Y-93459240D01*
X122024806Y-93459240D01*
X122033468Y-93456878D01*
X122041118Y-93452181D01*
X122041120Y-93452180D01*
X122135785Y-93394056D01*
X122135788Y-93394053D01*
X122143437Y-93389357D01*
X122149463Y-93382700D01*
X122224013Y-93300339D01*
X122224016Y-93300335D01*
X122230035Y-93293685D01*
X122286301Y-93177553D01*
X122287868Y-93168242D01*
X122306903Y-93055095D01*
X122307710Y-93050298D01*
X122307846Y-93039178D01*
X122296994Y-92963399D01*
X122290825Y-92920323D01*
X122290824Y-92920320D01*
X122289552Y-92911437D01*
X122285135Y-92901722D01*
X122239858Y-92802140D01*
X122239856Y-92802137D01*
X122236141Y-92793966D01*
X122210338Y-92764020D01*
X122157764Y-92703004D01*
X122157762Y-92703002D01*
X122151906Y-92696206D01*
X122043619Y-92626019D01*
X122035024Y-92623449D01*
X122035023Y-92623448D01*
X121928587Y-92591616D01*
X121928585Y-92591616D01*
X121919986Y-92589044D01*
X121911011Y-92588989D01*
X121911010Y-92588989D01*
X121856354Y-92588655D01*
X121790944Y-92588256D01*
X121779188Y-92591616D01*
X121675499Y-92621250D01*
X121675497Y-92621251D01*
X121666868Y-92623717D01*
X121557732Y-92692577D01*
X121551789Y-92699306D01*
X121551788Y-92699307D01*
X121494262Y-92764443D01*
X121472309Y-92789300D01*
X121468495Y-92797423D01*
X121468494Y-92797425D01*
X121446563Y-92844137D01*
X121417467Y-92906110D01*
X121409293Y-92958608D01*
X121398995Y-93024745D01*
X121398995Y-93024749D01*
X121397614Y-93033618D01*
X119257539Y-93033618D01*
X119155025Y-92948811D01*
X119155021Y-92948809D01*
X119150275Y-92944882D01*
X118969055Y-92846897D01*
X118772254Y-92785977D01*
X118766129Y-92785333D01*
X118766128Y-92785333D01*
X118573498Y-92765087D01*
X118573496Y-92765087D01*
X118567369Y-92764443D01*
X118480529Y-92772346D01*
X118368342Y-92782555D01*
X118368339Y-92782556D01*
X118362203Y-92783114D01*
X118164572Y-92841280D01*
X118159107Y-92844137D01*
X118125809Y-92861545D01*
X117982002Y-92936726D01*
X117977201Y-92940586D01*
X117977198Y-92940588D01*
X117848533Y-93044037D01*
X117821447Y-93065815D01*
X117817480Y-93070543D01*
X117723021Y-93183114D01*
X117663912Y-93222441D01*
X117592924Y-93223567D01*
X117532596Y-93186136D01*
X117502083Y-93122031D01*
X117500500Y-93102123D01*
X117500500Y-91996363D01*
X117520502Y-91928242D01*
X117574158Y-91881749D01*
X117644432Y-91871645D01*
X117709012Y-91901139D01*
X117725243Y-91918096D01*
X117751701Y-91951478D01*
X117796849Y-92008441D01*
X117796852Y-92008444D01*
X117800677Y-92013270D01*
X117805370Y-92017264D01*
X117805371Y-92017265D01*
X117909366Y-92105771D01*
X117957564Y-92146791D01*
X117962942Y-92149797D01*
X117962944Y-92149798D01*
X117994563Y-92167469D01*
X118137398Y-92247297D01*
X118232238Y-92278113D01*
X118327471Y-92309056D01*
X118327475Y-92309057D01*
X118333329Y-92310959D01*
X118537894Y-92335351D01*
X118544029Y-92334879D01*
X118544031Y-92334879D01*
X118600039Y-92330569D01*
X118743300Y-92319546D01*
X118749230Y-92317890D01*
X118749232Y-92317890D01*
X118935797Y-92265800D01*
X118935796Y-92265800D01*
X118941725Y-92264145D01*
X118947214Y-92261372D01*
X118947220Y-92261370D01*
X119120116Y-92174033D01*
X119125610Y-92171258D01*
X119287951Y-92044424D01*
X119319011Y-92008441D01*
X119418540Y-91893134D01*
X119418540Y-91893133D01*
X119422564Y-91888472D01*
X119443387Y-91851818D01*
X119483384Y-91781409D01*
X119524323Y-91709344D01*
X119589351Y-91513863D01*
X119591805Y-91494440D01*
X122644901Y-91494440D01*
X122646065Y-91503342D01*
X122646065Y-91503345D01*
X122660468Y-91613489D01*
X122660469Y-91613493D01*
X122661633Y-91622394D01*
X122713605Y-91740510D01*
X122719382Y-91747383D01*
X122719383Y-91747384D01*
X122782752Y-91822770D01*
X122796639Y-91839291D01*
X122904060Y-91910796D01*
X123027233Y-91949278D01*
X123036203Y-91949442D01*
X123036207Y-91949443D01*
X123094942Y-91950519D01*
X123156255Y-91951643D01*
X123242088Y-91928242D01*
X123272092Y-91920062D01*
X123272093Y-91920062D01*
X123280755Y-91917700D01*
X123288405Y-91913003D01*
X123288407Y-91913002D01*
X123383072Y-91854878D01*
X123383075Y-91854875D01*
X123390724Y-91850179D01*
X123396750Y-91843522D01*
X123471300Y-91761161D01*
X123471303Y-91761157D01*
X123477322Y-91754507D01*
X123533588Y-91638375D01*
X123536175Y-91623002D01*
X123554190Y-91515917D01*
X123554997Y-91511120D01*
X123555133Y-91500000D01*
X123543932Y-91421787D01*
X123538112Y-91381145D01*
X123538111Y-91381142D01*
X123536839Y-91372259D01*
X123530724Y-91358809D01*
X123487145Y-91262962D01*
X123487143Y-91262959D01*
X123483428Y-91254788D01*
X123440687Y-91205184D01*
X123405051Y-91163826D01*
X123405049Y-91163824D01*
X123399193Y-91157028D01*
X123290906Y-91086841D01*
X123282311Y-91084271D01*
X123282310Y-91084270D01*
X123175874Y-91052438D01*
X123175872Y-91052438D01*
X123167273Y-91049866D01*
X123158298Y-91049811D01*
X123158297Y-91049811D01*
X123103641Y-91049477D01*
X123038231Y-91049078D01*
X123026475Y-91052438D01*
X122922786Y-91082072D01*
X122922784Y-91082073D01*
X122914155Y-91084539D01*
X122888843Y-91100510D01*
X122834145Y-91135022D01*
X122805019Y-91153399D01*
X122799076Y-91160128D01*
X122799075Y-91160129D01*
X122740973Y-91225917D01*
X122719596Y-91250122D01*
X122715782Y-91258245D01*
X122715781Y-91258247D01*
X122695521Y-91301401D01*
X122664754Y-91366932D01*
X122656213Y-91421787D01*
X122646282Y-91485567D01*
X122646282Y-91485571D01*
X122644901Y-91494440D01*
X119591805Y-91494440D01*
X119615171Y-91309474D01*
X119615583Y-91280000D01*
X119595480Y-91074970D01*
X119535935Y-90877749D01*
X119439218Y-90695849D01*
X119336264Y-90569615D01*
X119312906Y-90540975D01*
X119312903Y-90540972D01*
X119309011Y-90536200D01*
X119289585Y-90520129D01*
X119155025Y-90408811D01*
X119155021Y-90408809D01*
X119150275Y-90404882D01*
X118969055Y-90306897D01*
X118772254Y-90245977D01*
X118766129Y-90245333D01*
X118766128Y-90245333D01*
X118573498Y-90225087D01*
X118573496Y-90225087D01*
X118567369Y-90224443D01*
X118480529Y-90232346D01*
X118368342Y-90242555D01*
X118368339Y-90242556D01*
X118362203Y-90243114D01*
X118164572Y-90301280D01*
X117982002Y-90396726D01*
X117977201Y-90400586D01*
X117977198Y-90400588D01*
X117881606Y-90477446D01*
X117821447Y-90525815D01*
X117798062Y-90553684D01*
X117723021Y-90643114D01*
X117663912Y-90682441D01*
X117592924Y-90683567D01*
X117532596Y-90646136D01*
X117502083Y-90582031D01*
X117500500Y-90562123D01*
X117500500Y-89456363D01*
X117520502Y-89388242D01*
X117574158Y-89341749D01*
X117644432Y-89331645D01*
X117709012Y-89361139D01*
X117725243Y-89378096D01*
X117745031Y-89403062D01*
X117796849Y-89468441D01*
X117796852Y-89468444D01*
X117800677Y-89473270D01*
X117805370Y-89477264D01*
X117805371Y-89477265D01*
X117909366Y-89565771D01*
X117957564Y-89606791D01*
X117962942Y-89609797D01*
X117962944Y-89609798D01*
X117994563Y-89627469D01*
X118137398Y-89707297D01*
X118232238Y-89738113D01*
X118327471Y-89769056D01*
X118327475Y-89769057D01*
X118333329Y-89770959D01*
X118537894Y-89795351D01*
X118544029Y-89794879D01*
X118544031Y-89794879D01*
X118600039Y-89790569D01*
X118743300Y-89779546D01*
X118749230Y-89777890D01*
X118749232Y-89777890D01*
X118935797Y-89725800D01*
X118935796Y-89725800D01*
X118941725Y-89724145D01*
X118947214Y-89721372D01*
X118947220Y-89721370D01*
X119120116Y-89634033D01*
X119125610Y-89631258D01*
X119287951Y-89504424D01*
X119298069Y-89492703D01*
X119418540Y-89353134D01*
X119418540Y-89353133D01*
X119422564Y-89348472D01*
X119443387Y-89311818D01*
X119493296Y-89223961D01*
X119524323Y-89169344D01*
X119589351Y-88973863D01*
X119615171Y-88769474D01*
X119615583Y-88740000D01*
X119595480Y-88534970D01*
X119535935Y-88337749D01*
X119439218Y-88155849D01*
X119346390Y-88042031D01*
X119312906Y-88000975D01*
X119312903Y-88000972D01*
X119309011Y-87996200D01*
X119269451Y-87963473D01*
X119155025Y-87868811D01*
X119155021Y-87868809D01*
X119150275Y-87864882D01*
X118969055Y-87766897D01*
X118918183Y-87751150D01*
X118859025Y-87711899D01*
X118830477Y-87646895D01*
X118841605Y-87576776D01*
X118888876Y-87523804D01*
X118919235Y-87510099D01*
X119052255Y-87470191D01*
X119061842Y-87466433D01*
X119253098Y-87372738D01*
X119261944Y-87367465D01*
X119309247Y-87333723D01*
X119317648Y-87323023D01*
X119310660Y-87309870D01*
X118289885Y-86289095D01*
X118255859Y-86226783D01*
X118260924Y-86155968D01*
X118289885Y-86110905D01*
X118470905Y-85929885D01*
X118533217Y-85895859D01*
X118604032Y-85900924D01*
X118649095Y-85929885D01*
X119670474Y-86951264D01*
X119682484Y-86957823D01*
X119694223Y-86948855D01*
X119725004Y-86906019D01*
X119730315Y-86897180D01*
X119824670Y-86706267D01*
X119828469Y-86696672D01*
X119890376Y-86492915D01*
X119892555Y-86482834D01*
X119920590Y-86269887D01*
X119921109Y-86263212D01*
X119922572Y-86203364D01*
X119922378Y-86196646D01*
X119904781Y-85982604D01*
X119903096Y-85972425D01*
X119874051Y-85856793D01*
X119876855Y-85785852D01*
X119917567Y-85727688D01*
X119983263Y-85700769D01*
X119998562Y-85700118D01*
X120081755Y-85701643D01*
X120144005Y-85684671D01*
X120197592Y-85670062D01*
X120197593Y-85670062D01*
X120206255Y-85667700D01*
X120213905Y-85663003D01*
X120213907Y-85663002D01*
X120308572Y-85604878D01*
X120308575Y-85604875D01*
X120316224Y-85600179D01*
X120323677Y-85591945D01*
X120325477Y-85590843D01*
X120329155Y-85587789D01*
X120329596Y-85588320D01*
X120384220Y-85554864D01*
X120417092Y-85550500D01*
X121147634Y-85550500D01*
X121150307Y-85550696D01*
X121155342Y-85552425D01*
X121166964Y-85551989D01*
X121166966Y-85551989D01*
X121204255Y-85550589D01*
X121208981Y-85550500D01*
X121227948Y-85550500D01*
X121232683Y-85549618D01*
X121236209Y-85549390D01*
X121239949Y-85549249D01*
X121267208Y-85548226D01*
X121277893Y-85543636D01*
X121282493Y-85542599D01*
X121294214Y-85539038D01*
X121298617Y-85537339D01*
X121310053Y-85535209D01*
X121331041Y-85522272D01*
X121347411Y-85513769D01*
X121361888Y-85507549D01*
X121361892Y-85507547D01*
X121370063Y-85504036D01*
X121374949Y-85500022D01*
X121377134Y-85497837D01*
X121379397Y-85495785D01*
X121379542Y-85495945D01*
X121388549Y-85488825D01*
X121395444Y-85482573D01*
X121405348Y-85476468D01*
X121421916Y-85454680D01*
X121433110Y-85441861D01*
X122707743Y-84167228D01*
X122770055Y-84133202D01*
X122834412Y-84136056D01*
X122876733Y-84149278D01*
X122885703Y-84149442D01*
X122885707Y-84149443D01*
X122944442Y-84150519D01*
X123005755Y-84151643D01*
X123073395Y-84133202D01*
X123121592Y-84120062D01*
X123121593Y-84120062D01*
X123130255Y-84117700D01*
X123137905Y-84113003D01*
X123137907Y-84113002D01*
X123232572Y-84054878D01*
X123232575Y-84054875D01*
X123240224Y-84050179D01*
X123303101Y-83980714D01*
X123320800Y-83961161D01*
X123320803Y-83961157D01*
X123326822Y-83954507D01*
X123383088Y-83838375D01*
X123384675Y-83828945D01*
X123403690Y-83715917D01*
X123404497Y-83711120D01*
X123404633Y-83700000D01*
X123386339Y-83572259D01*
X123382625Y-83564090D01*
X123336645Y-83462962D01*
X123336643Y-83462959D01*
X123332928Y-83454788D01*
X123294224Y-83409870D01*
X123254551Y-83363826D01*
X123254549Y-83363824D01*
X123248693Y-83357028D01*
X123140406Y-83286841D01*
X123131811Y-83284271D01*
X123131810Y-83284270D01*
X123025374Y-83252438D01*
X123025372Y-83252438D01*
X123016773Y-83249866D01*
X123007798Y-83249811D01*
X123007797Y-83249811D01*
X122953141Y-83249477D01*
X122887731Y-83249078D01*
X122836748Y-83263649D01*
X122772286Y-83282072D01*
X122772284Y-83282073D01*
X122763655Y-83284539D01*
X122654519Y-83353399D01*
X122648576Y-83360128D01*
X122648575Y-83360129D01*
X122606587Y-83407672D01*
X122569096Y-83450122D01*
X122568844Y-83450659D01*
X122554433Y-83467503D01*
X122544652Y-83473532D01*
X122528084Y-83495320D01*
X122516890Y-83508139D01*
X121906457Y-84118572D01*
X121844145Y-84152598D01*
X121773330Y-84147533D01*
X121716494Y-84104986D01*
X121691683Y-84038466D01*
X121702784Y-83980714D01*
X121702445Y-83980606D01*
X121703349Y-83977774D01*
X121703971Y-83974537D01*
X121705175Y-83972053D01*
X121705177Y-83972048D01*
X121709088Y-83963975D01*
X121712040Y-83946432D01*
X121729690Y-83841517D01*
X121730497Y-83836720D01*
X121730633Y-83825600D01*
X121714925Y-83715917D01*
X121713612Y-83706745D01*
X121713611Y-83706742D01*
X121712339Y-83697859D01*
X121706224Y-83684409D01*
X121662645Y-83588562D01*
X121662643Y-83588559D01*
X121658928Y-83580388D01*
X121591473Y-83502102D01*
X121580551Y-83489426D01*
X121580549Y-83489424D01*
X121574693Y-83482628D01*
X121466406Y-83412441D01*
X121457811Y-83409871D01*
X121457810Y-83409870D01*
X121351374Y-83378038D01*
X121351372Y-83378038D01*
X121342773Y-83375466D01*
X121333798Y-83375411D01*
X121333797Y-83375411D01*
X121279141Y-83375077D01*
X121213731Y-83374678D01*
X121201975Y-83378038D01*
X121098286Y-83407672D01*
X121098284Y-83407673D01*
X121089655Y-83410139D01*
X121082065Y-83414928D01*
X120989184Y-83473532D01*
X120980519Y-83478999D01*
X120974576Y-83485728D01*
X120974575Y-83485729D01*
X120960115Y-83502102D01*
X120895096Y-83575722D01*
X120891282Y-83583845D01*
X120891281Y-83583847D01*
X120865323Y-83639137D01*
X120840254Y-83692532D01*
X120838874Y-83701398D01*
X120821782Y-83811167D01*
X120821782Y-83811171D01*
X120820401Y-83820040D01*
X120821565Y-83828942D01*
X120821565Y-83828945D01*
X120835968Y-83939089D01*
X120835969Y-83939093D01*
X120837133Y-83947994D01*
X120851483Y-83980606D01*
X120883806Y-84054066D01*
X120889105Y-84066110D01*
X120894882Y-84072983D01*
X120894883Y-84072984D01*
X120960864Y-84151478D01*
X120972139Y-84164891D01*
X121079560Y-84236396D01*
X121160124Y-84261566D01*
X121192465Y-84271670D01*
X121202733Y-84274878D01*
X121211703Y-84275042D01*
X121211707Y-84275043D01*
X121270442Y-84276119D01*
X121331755Y-84277243D01*
X121389257Y-84261566D01*
X121446052Y-84246082D01*
X121517035Y-84247462D01*
X121576004Y-84286999D01*
X121604236Y-84352141D01*
X121592769Y-84422205D01*
X121568289Y-84456740D01*
X121112434Y-84912595D01*
X121050122Y-84946621D01*
X121023339Y-84949500D01*
X120418678Y-84949500D01*
X120350557Y-84929498D01*
X120335847Y-84918447D01*
X120330552Y-84913827D01*
X120324693Y-84907028D01*
X120216406Y-84836841D01*
X120207811Y-84834271D01*
X120207810Y-84834270D01*
X120101374Y-84802438D01*
X120101372Y-84802438D01*
X120092773Y-84799866D01*
X120083798Y-84799811D01*
X120083797Y-84799811D01*
X120029141Y-84799477D01*
X119963731Y-84799078D01*
X119951975Y-84802438D01*
X119848286Y-84832072D01*
X119848284Y-84832073D01*
X119839655Y-84834539D01*
X119832065Y-84839328D01*
X119776930Y-84874116D01*
X119730519Y-84903399D01*
X119724576Y-84910128D01*
X119724575Y-84910129D01*
X119689804Y-84949500D01*
X119645096Y-85000122D01*
X119641282Y-85008245D01*
X119641281Y-85008247D01*
X119600833Y-85094398D01*
X119553776Y-85147560D01*
X119485448Y-85166842D01*
X119417542Y-85146122D01*
X119408686Y-85139731D01*
X119318139Y-85068222D01*
X119309557Y-85062520D01*
X119272116Y-85041852D01*
X119222145Y-84991420D01*
X119207373Y-84921977D01*
X119232489Y-84855572D01*
X119259840Y-84828965D01*
X119309247Y-84793723D01*
X119317648Y-84783023D01*
X119310660Y-84769870D01*
X118289885Y-83749095D01*
X118255859Y-83686783D01*
X118257694Y-83661132D01*
X118924408Y-83661132D01*
X118924539Y-83662965D01*
X118928790Y-83669580D01*
X119670474Y-84411264D01*
X119682484Y-84417823D01*
X119694223Y-84408855D01*
X119725004Y-84366019D01*
X119730315Y-84357180D01*
X119824670Y-84166267D01*
X119828469Y-84156672D01*
X119890376Y-83952915D01*
X119892555Y-83942834D01*
X119920590Y-83729887D01*
X119921109Y-83723212D01*
X119922572Y-83663364D01*
X119922378Y-83656646D01*
X119904781Y-83442604D01*
X119903096Y-83432424D01*
X119851214Y-83225875D01*
X119847894Y-83216124D01*
X119762972Y-83020814D01*
X119758105Y-83011739D01*
X119693063Y-82911197D01*
X119682377Y-82901995D01*
X119672812Y-82906398D01*
X118932022Y-83647188D01*
X118924408Y-83661132D01*
X118257694Y-83661132D01*
X118260924Y-83615968D01*
X118289885Y-83570905D01*
X119313389Y-82547401D01*
X119320410Y-82534544D01*
X119313611Y-82525213D01*
X119309554Y-82522518D01*
X119123117Y-82419599D01*
X119113705Y-82415369D01*
X118922031Y-82347493D01*
X118864495Y-82305899D01*
X118838579Y-82239801D01*
X118852513Y-82170185D01*
X118901872Y-82119154D01*
X118930206Y-82107362D01*
X118935790Y-82105803D01*
X118935799Y-82105800D01*
X118941725Y-82104145D01*
X118947214Y-82101372D01*
X118947220Y-82101370D01*
X119120116Y-82014033D01*
X119125610Y-82011258D01*
X119132850Y-82005602D01*
X119221546Y-81936305D01*
X119287951Y-81884424D01*
X119292737Y-81878880D01*
X119418540Y-81733134D01*
X119418540Y-81733133D01*
X119422564Y-81728472D01*
X119443387Y-81691818D01*
X119481228Y-81625205D01*
X119524323Y-81549344D01*
X119589351Y-81353863D01*
X119615171Y-81149474D01*
X119615583Y-81120000D01*
X119615240Y-81116505D01*
X119615227Y-81116187D01*
X119632357Y-81047288D01*
X119684018Y-80998589D01*
X119753807Y-80985550D01*
X119819567Y-81012312D01*
X119838759Y-81031273D01*
X119902097Y-81108932D01*
X119910741Y-81117637D01*
X120053556Y-81235784D01*
X120063727Y-81242644D01*
X120226776Y-81330804D01*
X120238081Y-81335556D01*
X120353392Y-81371250D01*
X120367495Y-81371456D01*
X120370700Y-81364701D01*
X120370700Y-80272115D01*
X120366225Y-80256876D01*
X120364835Y-80255671D01*
X120357152Y-80254000D01*
X119634815Y-80254000D01*
X119619576Y-80258475D01*
X119618371Y-80259865D01*
X119616700Y-80267548D01*
X119616700Y-80399614D01*
X119596698Y-80467735D01*
X119543042Y-80514228D01*
X119472768Y-80524332D01*
X119408188Y-80494838D01*
X119393057Y-80479250D01*
X119312906Y-80380975D01*
X119312903Y-80380972D01*
X119309011Y-80376200D01*
X119291786Y-80361950D01*
X119155025Y-80248811D01*
X119155021Y-80248809D01*
X119150275Y-80244882D01*
X118969055Y-80146897D01*
X118772254Y-80085977D01*
X118766129Y-80085333D01*
X118766128Y-80085333D01*
X118573498Y-80065087D01*
X118573496Y-80065087D01*
X118567369Y-80064443D01*
X118481252Y-80072280D01*
X118368342Y-80082555D01*
X118368339Y-80082556D01*
X118362203Y-80083114D01*
X118164572Y-80141280D01*
X117982002Y-80236726D01*
X117977201Y-80240586D01*
X117977198Y-80240588D01*
X117826254Y-80361950D01*
X117821447Y-80365815D01*
X117817480Y-80370543D01*
X117723021Y-80483114D01*
X117663912Y-80522441D01*
X117592924Y-80523567D01*
X117532596Y-80486136D01*
X117502083Y-80422031D01*
X117500500Y-80402123D01*
X117500500Y-79727885D01*
X119616700Y-79727885D01*
X119621175Y-79743124D01*
X119622565Y-79744329D01*
X119630248Y-79746000D01*
X120352585Y-79746000D01*
X120367824Y-79741525D01*
X120369029Y-79740135D01*
X120370700Y-79732452D01*
X120370700Y-78642076D01*
X120366727Y-78628545D01*
X120358932Y-78627425D01*
X120251179Y-78659138D01*
X120239811Y-78663731D01*
X120075546Y-78749607D01*
X120065285Y-78756321D01*
X119920827Y-78872468D01*
X119912068Y-78881046D01*
X119792922Y-79023039D01*
X119785995Y-79033156D01*
X119770300Y-79061704D01*
X119719954Y-79111762D01*
X119660337Y-79124553D01*
X119681807Y-79154262D01*
X119685680Y-79225153D01*
X119683129Y-79234402D01*
X119635819Y-79383541D01*
X119633270Y-79395532D01*
X119617093Y-79539761D01*
X119616700Y-79546785D01*
X119616700Y-79727885D01*
X117500500Y-79727885D01*
X117500500Y-79296363D01*
X117520502Y-79228242D01*
X117574158Y-79181749D01*
X117644432Y-79171645D01*
X117709012Y-79201139D01*
X117725243Y-79218096D01*
X117733285Y-79228242D01*
X117796849Y-79308441D01*
X117796852Y-79308444D01*
X117800677Y-79313270D01*
X117805370Y-79317264D01*
X117805371Y-79317265D01*
X117899490Y-79397366D01*
X117957564Y-79446791D01*
X118137398Y-79547297D01*
X118232238Y-79578113D01*
X118327471Y-79609056D01*
X118327475Y-79609057D01*
X118333329Y-79610959D01*
X118537894Y-79635351D01*
X118544029Y-79634879D01*
X118544031Y-79634879D01*
X118600039Y-79630569D01*
X118743300Y-79619546D01*
X118749230Y-79617890D01*
X118749232Y-79617890D01*
X118873104Y-79583304D01*
X118941725Y-79564145D01*
X118947214Y-79561372D01*
X118947220Y-79561370D01*
X119120116Y-79474033D01*
X119125610Y-79471258D01*
X119287951Y-79344424D01*
X119294959Y-79336306D01*
X119418540Y-79193134D01*
X119418540Y-79193133D01*
X119422564Y-79188472D01*
X119443387Y-79151818D01*
X119453471Y-79134066D01*
X119504510Y-79084715D01*
X119562808Y-79073057D01*
X119541704Y-79044696D01*
X119536843Y-78973866D01*
X119540328Y-78961230D01*
X119563669Y-78891067D01*
X119589351Y-78813863D01*
X119615171Y-78609474D01*
X119615583Y-78580000D01*
X119595480Y-78374970D01*
X119535935Y-78177749D01*
X119439218Y-77995849D01*
X119346390Y-77882031D01*
X119312906Y-77840975D01*
X119312903Y-77840972D01*
X119309011Y-77836200D01*
X119291786Y-77821950D01*
X119155025Y-77708811D01*
X119155021Y-77708809D01*
X119150275Y-77704882D01*
X118969055Y-77606897D01*
X118772254Y-77545977D01*
X118766129Y-77545333D01*
X118766128Y-77545333D01*
X118573498Y-77525087D01*
X118573496Y-77525087D01*
X118567369Y-77524443D01*
X118480529Y-77532346D01*
X118368342Y-77542555D01*
X118368339Y-77542556D01*
X118362203Y-77543114D01*
X118164572Y-77601280D01*
X117982002Y-77696726D01*
X117977201Y-77700586D01*
X117977198Y-77700588D01*
X117966971Y-77708811D01*
X117821447Y-77825815D01*
X117817480Y-77830543D01*
X117723021Y-77943114D01*
X117663912Y-77982441D01*
X117592924Y-77983567D01*
X117532596Y-77946136D01*
X117502083Y-77882031D01*
X117500500Y-77862123D01*
X117500500Y-76756363D01*
X117520502Y-76688242D01*
X117574158Y-76641749D01*
X117644432Y-76631645D01*
X117709012Y-76661139D01*
X117725243Y-76678096D01*
X117733285Y-76688242D01*
X117796849Y-76768441D01*
X117796852Y-76768444D01*
X117800677Y-76773270D01*
X117957564Y-76906791D01*
X118137398Y-77007297D01*
X118232238Y-77038113D01*
X118327471Y-77069056D01*
X118327475Y-77069057D01*
X118333329Y-77070959D01*
X118537894Y-77095351D01*
X118544029Y-77094879D01*
X118544031Y-77094879D01*
X118600039Y-77090569D01*
X118743300Y-77079546D01*
X118749230Y-77077890D01*
X118749232Y-77077890D01*
X118935797Y-77025800D01*
X118935796Y-77025800D01*
X118941725Y-77024145D01*
X118947214Y-77021372D01*
X118947220Y-77021370D01*
X119120116Y-76934033D01*
X119125610Y-76931258D01*
X119287951Y-76804424D01*
X119314842Y-76773270D01*
X119395902Y-76679361D01*
X119455555Y-76640863D01*
X119526551Y-76640727D01*
X119586351Y-76678997D01*
X119615967Y-76743521D01*
X119616573Y-76749752D01*
X119616700Y-76749740D01*
X119630512Y-76890603D01*
X119632895Y-76902638D01*
X119686467Y-77080076D01*
X119691141Y-77091416D01*
X119778160Y-77255077D01*
X119784949Y-77265294D01*
X119902097Y-77408933D01*
X119910737Y-77417633D01*
X120053556Y-77535784D01*
X120063727Y-77542644D01*
X120226776Y-77630804D01*
X120238081Y-77635556D01*
X120353392Y-77671250D01*
X120367495Y-77671456D01*
X120370700Y-77664701D01*
X120370700Y-75972000D01*
X120390702Y-75903879D01*
X120444358Y-75857386D01*
X120496700Y-75846000D01*
X120752700Y-75846000D01*
X120820821Y-75866002D01*
G37*
%TD.AperFunction*%
%TA.AperFunction,Conductor*%
G36*
X128604740Y-98807966D02*
G01*
X128604743Y-98807958D01*
X128648908Y-98821756D01*
X128701881Y-98838306D01*
X128727916Y-98846440D01*
X128736886Y-98846604D01*
X128736890Y-98846605D01*
X128811984Y-98847981D01*
X128879727Y-98869228D01*
X128898770Y-98884865D01*
X129580749Y-99566844D01*
X129596419Y-99585936D01*
X129604897Y-99598624D01*
X129615210Y-99605515D01*
X129627898Y-99613993D01*
X129627899Y-99613994D01*
X129641179Y-99622867D01*
X129641181Y-99622869D01*
X129685706Y-99652620D01*
X129685709Y-99652621D01*
X129696026Y-99659515D01*
X129776388Y-99675500D01*
X129791349Y-99678476D01*
X129791350Y-99678476D01*
X129803521Y-99680897D01*
X129818482Y-99677921D01*
X129843064Y-99675500D01*
X130051215Y-99675500D01*
X130119336Y-99695502D01*
X130165829Y-99749158D01*
X130175933Y-99819432D01*
X130146439Y-99884012D01*
X130115971Y-99907985D01*
X130116403Y-99908620D01*
X130110116Y-99912892D01*
X130103369Y-99916375D01*
X130097647Y-99921367D01*
X130097645Y-99921368D01*
X130076807Y-99939546D01*
X129975604Y-100027831D01*
X129971237Y-100034045D01*
X129907751Y-100124377D01*
X129878113Y-100166547D01*
X129877605Y-100167851D01*
X129829642Y-100216553D01*
X129792996Y-100230008D01*
X129769697Y-100234643D01*
X129752496Y-100238064D01*
X129752495Y-100238064D01*
X129740326Y-100240485D01*
X129716228Y-100256587D01*
X129672199Y-100286006D01*
X129669632Y-100282165D01*
X129669631Y-100282166D01*
X129672198Y-100286007D01*
X129649197Y-100301376D01*
X129642306Y-100311689D01*
X129640719Y-100314064D01*
X129625049Y-100333156D01*
X129120610Y-100837595D01*
X129058298Y-100871621D01*
X129031515Y-100874500D01*
X128928219Y-100874500D01*
X128860098Y-100854498D01*
X128813605Y-100800842D01*
X128803501Y-100730568D01*
X128806310Y-100718348D01*
X128808088Y-100714677D01*
X128810544Y-100700083D01*
X128828690Y-100592219D01*
X128829497Y-100587422D01*
X128829633Y-100576302D01*
X128828942Y-100571480D01*
X128828942Y-100571473D01*
X128824014Y-100537065D01*
X128826122Y-100501829D01*
X128824961Y-100501727D01*
X128825922Y-100490740D01*
X128828774Y-100480098D01*
X128827568Y-100466306D01*
X128825490Y-100442560D01*
X128825011Y-100431579D01*
X128825011Y-99524939D01*
X128825491Y-99513957D01*
X128827814Y-99487410D01*
X128827814Y-99487408D01*
X128828775Y-99476422D01*
X128819023Y-99440027D01*
X128816643Y-99429296D01*
X128812013Y-99403039D01*
X128810099Y-99392183D01*
X128804587Y-99382636D01*
X128803399Y-99379373D01*
X128801920Y-99376201D01*
X128799065Y-99365545D01*
X128777451Y-99334677D01*
X128771544Y-99325405D01*
X128758217Y-99302321D01*
X128752705Y-99292773D01*
X128738848Y-99281145D01*
X128723848Y-99268559D01*
X128715743Y-99261133D01*
X128466330Y-99011719D01*
X128432305Y-98949407D01*
X128437370Y-98878591D01*
X128479917Y-98821756D01*
X128546438Y-98796945D01*
X128604740Y-98807966D01*
G37*
%TD.AperFunction*%
%TA.AperFunction,Conductor*%
G36*
X132230007Y-97188775D02*
G01*
X132290739Y-97236828D01*
X132351376Y-97327577D01*
X132361692Y-97334470D01*
X132361693Y-97334471D01*
X132364064Y-97336055D01*
X132383156Y-97351725D01*
X132612096Y-97580665D01*
X132646122Y-97642977D01*
X132649001Y-97669760D01*
X132649001Y-97830240D01*
X132628999Y-97898361D01*
X132612096Y-97919335D01*
X132479702Y-98051729D01*
X132460610Y-98067399D01*
X132447922Y-98075877D01*
X132432553Y-98098878D01*
X132432552Y-98098879D01*
X132429104Y-98104040D01*
X132388369Y-98165004D01*
X132333891Y-98210531D01*
X132263448Y-98219378D01*
X132199404Y-98188737D01*
X132162093Y-98128335D01*
X132163361Y-98057349D01*
X132170213Y-98040060D01*
X132171988Y-98036398D01*
X132179683Y-98020515D01*
X132181431Y-98010129D01*
X132200285Y-97898057D01*
X132201092Y-97893260D01*
X132201228Y-97882140D01*
X132190361Y-97806258D01*
X132184207Y-97763285D01*
X132184206Y-97763282D01*
X132182934Y-97754399D01*
X132153636Y-97689961D01*
X132133240Y-97645102D01*
X132133238Y-97645099D01*
X132129523Y-97636928D01*
X132081044Y-97580665D01*
X132051146Y-97545966D01*
X132051144Y-97545964D01*
X132045288Y-97539168D01*
X132037760Y-97534289D01*
X132037757Y-97534286D01*
X132012251Y-97517754D01*
X131965968Y-97463918D01*
X131956137Y-97393605D01*
X131985881Y-97329140D01*
X131991689Y-97322927D01*
X132096880Y-97217736D01*
X132159192Y-97183710D01*
X132230007Y-97188775D01*
G37*
%TD.AperFunction*%
%TA.AperFunction,Conductor*%
G36*
X130166533Y-90089717D02*
G01*
X130223369Y-90132264D01*
X130248180Y-90198784D01*
X130248501Y-90207773D01*
X130248501Y-90501494D01*
X130228499Y-90569615D01*
X130211596Y-90590589D01*
X129037679Y-91764506D01*
X128975367Y-91798532D01*
X128948584Y-91801411D01*
X128620840Y-91801411D01*
X128552719Y-91781409D01*
X128506226Y-91727753D01*
X128496122Y-91657479D01*
X128525616Y-91592899D01*
X128531745Y-91586316D01*
X128750008Y-91368053D01*
X128812320Y-91334027D01*
X128823529Y-91332114D01*
X128824496Y-91331993D01*
X128833474Y-91332158D01*
X128916677Y-91309474D01*
X128949311Y-91300577D01*
X128949312Y-91300577D01*
X128957974Y-91298215D01*
X128965624Y-91293518D01*
X128965626Y-91293517D01*
X129060291Y-91235393D01*
X129060294Y-91235390D01*
X129067943Y-91230694D01*
X129076609Y-91221120D01*
X129148519Y-91141676D01*
X129148522Y-91141672D01*
X129154541Y-91135022D01*
X129210807Y-91018890D01*
X129219824Y-90965292D01*
X129254983Y-90897101D01*
X130033406Y-90118678D01*
X130095718Y-90084652D01*
X130166533Y-90089717D01*
G37*
%TD.AperFunction*%
%TA.AperFunction,Conductor*%
G36*
X128115201Y-90042753D02*
G01*
X128143529Y-90067673D01*
X128159390Y-90086542D01*
X128173669Y-90096047D01*
X128178748Y-90099428D01*
X128224370Y-90153826D01*
X128233339Y-90224254D01*
X128198022Y-90293409D01*
X127696647Y-90794784D01*
X127634335Y-90828810D01*
X127563520Y-90823745D01*
X127506684Y-90781198D01*
X127492851Y-90757841D01*
X127482829Y-90735798D01*
X127441724Y-90645393D01*
X127376430Y-90569615D01*
X127363347Y-90554431D01*
X127363345Y-90554429D01*
X127357489Y-90547633D01*
X127349961Y-90542754D01*
X127349958Y-90542751D01*
X127343981Y-90538877D01*
X127297698Y-90485039D01*
X127287870Y-90414726D01*
X127317615Y-90350262D01*
X127323421Y-90344051D01*
X127607816Y-90059656D01*
X127670128Y-90025630D01*
X127696911Y-90022751D01*
X128047080Y-90022751D01*
X128115201Y-90042753D01*
G37*
%TD.AperFunction*%
%TA.AperFunction,Conductor*%
G36*
X131971421Y-75866002D02*
G01*
X132017914Y-75919658D01*
X132029300Y-75972000D01*
X132029300Y-77657924D01*
X132033273Y-77671455D01*
X132041068Y-77672575D01*
X132148821Y-77640862D01*
X132160189Y-77636269D01*
X132324454Y-77550393D01*
X132334715Y-77543679D01*
X132479173Y-77427532D01*
X132487932Y-77418954D01*
X132607078Y-77276961D01*
X132614008Y-77266841D01*
X132703302Y-77104415D01*
X132708134Y-77093142D01*
X132764180Y-76916462D01*
X132766730Y-76904468D01*
X132779508Y-76790544D01*
X132806979Y-76725077D01*
X132865483Y-76684855D01*
X132936445Y-76682648D01*
X132997336Y-76719155D01*
X133003468Y-76726324D01*
X133040677Y-76773270D01*
X133197564Y-76906791D01*
X133377398Y-77007297D01*
X133472238Y-77038113D01*
X133567471Y-77069056D01*
X133567475Y-77069057D01*
X133573329Y-77070959D01*
X133777894Y-77095351D01*
X133784029Y-77094879D01*
X133784031Y-77094879D01*
X133840039Y-77090569D01*
X133983300Y-77079546D01*
X133989230Y-77077890D01*
X133989232Y-77077890D01*
X134175797Y-77025800D01*
X134175796Y-77025800D01*
X134181725Y-77024145D01*
X134187214Y-77021372D01*
X134187220Y-77021370D01*
X134360116Y-76934033D01*
X134365610Y-76931258D01*
X134527951Y-76804424D01*
X134559011Y-76768441D01*
X134658540Y-76653134D01*
X134658540Y-76653133D01*
X134662564Y-76648472D01*
X134665607Y-76643115D01*
X134669158Y-76638081D01*
X134670904Y-76639312D01*
X134714988Y-76596690D01*
X134784606Y-76582770D01*
X134850699Y-76608699D01*
X134892281Y-76666244D01*
X134899500Y-76708280D01*
X134899500Y-77912092D01*
X134879498Y-77980213D01*
X134825842Y-78026706D01*
X134755568Y-78036810D01*
X134690988Y-78007316D01*
X134675857Y-77991728D01*
X134552906Y-77840975D01*
X134552903Y-77840972D01*
X134549011Y-77836200D01*
X134531786Y-77821950D01*
X134395025Y-77708811D01*
X134395021Y-77708809D01*
X134390275Y-77704882D01*
X134209055Y-77606897D01*
X134012254Y-77545977D01*
X134006129Y-77545333D01*
X134006128Y-77545333D01*
X133813498Y-77525087D01*
X133813496Y-77525087D01*
X133807369Y-77524443D01*
X133720529Y-77532346D01*
X133608342Y-77542555D01*
X133608339Y-77542556D01*
X133602203Y-77543114D01*
X133404572Y-77601280D01*
X133222002Y-77696726D01*
X133217201Y-77700586D01*
X133217198Y-77700588D01*
X133206971Y-77708811D01*
X133061447Y-77825815D01*
X132929024Y-77983630D01*
X132926056Y-77989028D01*
X132926053Y-77989033D01*
X132899788Y-78036810D01*
X132829776Y-78164162D01*
X132767484Y-78360532D01*
X132766798Y-78366649D01*
X132766797Y-78366653D01*
X132745207Y-78559137D01*
X132744520Y-78565262D01*
X132761759Y-78770553D01*
X132763458Y-78776478D01*
X132788929Y-78865306D01*
X132788478Y-78936301D01*
X132749716Y-78995782D01*
X132684950Y-79024865D01*
X132614741Y-79014315D01*
X132570167Y-78979672D01*
X132497903Y-78891067D01*
X132489259Y-78882363D01*
X132346444Y-78764216D01*
X132336273Y-78757356D01*
X132173224Y-78669196D01*
X132161919Y-78664444D01*
X132046608Y-78628750D01*
X132032505Y-78628544D01*
X132029300Y-78635299D01*
X132029300Y-79727885D01*
X132033775Y-79743124D01*
X132035165Y-79744329D01*
X132042848Y-79746000D01*
X132765185Y-79746000D01*
X132780424Y-79741525D01*
X132781629Y-79740135D01*
X132783300Y-79732452D01*
X132783300Y-79553343D01*
X132782999Y-79547195D01*
X132769488Y-79409397D01*
X132767106Y-79397366D01*
X132748670Y-79336306D01*
X132748129Y-79265312D01*
X132786056Y-79205295D01*
X132850410Y-79175310D01*
X132920758Y-79184877D01*
X132968037Y-79221622D01*
X133002666Y-79265312D01*
X133040677Y-79313270D01*
X133045370Y-79317264D01*
X133045371Y-79317265D01*
X133139490Y-79397366D01*
X133197564Y-79446791D01*
X133377398Y-79547297D01*
X133442437Y-79568429D01*
X133501042Y-79608502D01*
X133528680Y-79673898D01*
X133516574Y-79743855D01*
X133468568Y-79796162D01*
X133442646Y-79808027D01*
X133276868Y-79862212D01*
X133267359Y-79866209D01*
X133078466Y-79964540D01*
X133069734Y-79970039D01*
X133049677Y-79985099D01*
X133041223Y-79996427D01*
X133047968Y-80008758D01*
X134070115Y-81030905D01*
X134104141Y-81093217D01*
X134099076Y-81164032D01*
X134070115Y-81209095D01*
X133046737Y-82232473D01*
X133039977Y-82244853D01*
X133045258Y-82251907D01*
X133206756Y-82346279D01*
X133216042Y-82350729D01*
X133415001Y-82426703D01*
X133429866Y-82431022D01*
X133429289Y-82433008D01*
X133484260Y-82462082D01*
X133519110Y-82523936D01*
X133514988Y-82594813D01*
X133473201Y-82652209D01*
X133431930Y-82673228D01*
X133410489Y-82679538D01*
X133410484Y-82679540D01*
X133404572Y-82681280D01*
X133222002Y-82776726D01*
X133217201Y-82780586D01*
X133217198Y-82780588D01*
X133161252Y-82825570D01*
X133061447Y-82905815D01*
X132929024Y-83063630D01*
X132926056Y-83069028D01*
X132926053Y-83069033D01*
X132899788Y-83116810D01*
X132829776Y-83244162D01*
X132767484Y-83440532D01*
X132766798Y-83446649D01*
X132766797Y-83446653D01*
X132752560Y-83573585D01*
X132744520Y-83645262D01*
X132745036Y-83651406D01*
X132760072Y-83830459D01*
X132761759Y-83850553D01*
X132763458Y-83856478D01*
X132796599Y-83972053D01*
X132818544Y-84048586D01*
X132821359Y-84054063D01*
X132821360Y-84054066D01*
X132845544Y-84101123D01*
X132858891Y-84170854D01*
X132832420Y-84236731D01*
X132822572Y-84247812D01*
X132533156Y-84537228D01*
X132514064Y-84552898D01*
X132501376Y-84561376D01*
X132440485Y-84652505D01*
X132438065Y-84664672D01*
X132438064Y-84664674D01*
X132432836Y-84690959D01*
X132430292Y-84703747D01*
X132419103Y-84760000D01*
X132421524Y-84772171D01*
X132422079Y-84774961D01*
X132424500Y-84799543D01*
X132424500Y-87026054D01*
X132404498Y-87094175D01*
X132350842Y-87140668D01*
X132280568Y-87150772D01*
X132247122Y-87140870D01*
X132240906Y-87136841D01*
X132232311Y-87134271D01*
X132232310Y-87134270D01*
X132125874Y-87102438D01*
X132125872Y-87102438D01*
X132117273Y-87099866D01*
X132108298Y-87099811D01*
X132108297Y-87099811D01*
X132053641Y-87099477D01*
X131988231Y-87099078D01*
X131976475Y-87102438D01*
X131872786Y-87132072D01*
X131872784Y-87132073D01*
X131864155Y-87134539D01*
X131856565Y-87139328D01*
X131782912Y-87185800D01*
X131755019Y-87203399D01*
X131749076Y-87210128D01*
X131749075Y-87210129D01*
X131723357Y-87239249D01*
X131669596Y-87300122D01*
X131665781Y-87308247D01*
X131665780Y-87308249D01*
X131639546Y-87364126D01*
X131592490Y-87417289D01*
X131524162Y-87436571D01*
X131456256Y-87415852D01*
X131430039Y-87392827D01*
X131399193Y-87357028D01*
X131290906Y-87286841D01*
X131282311Y-87284270D01*
X131282310Y-87284270D01*
X131240397Y-87271735D01*
X131180863Y-87233052D01*
X131151694Y-87168325D01*
X131150500Y-87151018D01*
X131150500Y-85929478D01*
X131150696Y-85926805D01*
X131152425Y-85921770D01*
X131151453Y-85895859D01*
X131150589Y-85872857D01*
X131150500Y-85868131D01*
X131150500Y-85849164D01*
X131149618Y-85844429D01*
X131149390Y-85840903D01*
X131148662Y-85821527D01*
X131148226Y-85809904D01*
X131143636Y-85799219D01*
X131142599Y-85794619D01*
X131139038Y-85782898D01*
X131137339Y-85778495D01*
X131135209Y-85767059D01*
X131122272Y-85746071D01*
X131113769Y-85729701D01*
X131107549Y-85715224D01*
X131107547Y-85715220D01*
X131104036Y-85707049D01*
X131100022Y-85702163D01*
X131097837Y-85699978D01*
X131095785Y-85697715D01*
X131095945Y-85697570D01*
X131088825Y-85688563D01*
X131082573Y-85681667D01*
X131076468Y-85671764D01*
X131067209Y-85664724D01*
X131067208Y-85664722D01*
X131054688Y-85655202D01*
X131041860Y-85644001D01*
X130903276Y-85505417D01*
X130869250Y-85443105D01*
X130874315Y-85372290D01*
X130916862Y-85315454D01*
X130926435Y-85308952D01*
X130940724Y-85300179D01*
X130946750Y-85293522D01*
X131021300Y-85211161D01*
X131021303Y-85211157D01*
X131027322Y-85204507D01*
X131083588Y-85088375D01*
X131086979Y-85068222D01*
X131104190Y-84965917D01*
X131104997Y-84961120D01*
X131105133Y-84950000D01*
X131091896Y-84857569D01*
X131102039Y-84787301D01*
X131148561Y-84733671D01*
X131216693Y-84713707D01*
X131231540Y-84714593D01*
X131237894Y-84715351D01*
X131244029Y-84714879D01*
X131244031Y-84714879D01*
X131300039Y-84710569D01*
X131443300Y-84699546D01*
X131449230Y-84697890D01*
X131449232Y-84697890D01*
X131573104Y-84663304D01*
X131641725Y-84644145D01*
X131647214Y-84641372D01*
X131647220Y-84641370D01*
X131785154Y-84571694D01*
X131825610Y-84551258D01*
X131987951Y-84424424D01*
X131999311Y-84411264D01*
X132118540Y-84273134D01*
X132118540Y-84273133D01*
X132122564Y-84268472D01*
X132134500Y-84247462D01*
X132180079Y-84167228D01*
X132224323Y-84089344D01*
X132289351Y-83893863D01*
X132315171Y-83689474D01*
X132315583Y-83660000D01*
X132295480Y-83454970D01*
X132235935Y-83257749D01*
X132139218Y-83075849D01*
X132031847Y-82944199D01*
X132012906Y-82920975D01*
X132012903Y-82920972D01*
X132009011Y-82916200D01*
X132004262Y-82912271D01*
X131855025Y-82788811D01*
X131855021Y-82788809D01*
X131850275Y-82784882D01*
X131669055Y-82686897D01*
X131472254Y-82625977D01*
X131466129Y-82625333D01*
X131466128Y-82625333D01*
X131273498Y-82605087D01*
X131273496Y-82605087D01*
X131267369Y-82604443D01*
X131208647Y-82609787D01*
X131068342Y-82622555D01*
X131068339Y-82622556D01*
X131062203Y-82623114D01*
X131056292Y-82624854D01*
X131056285Y-82624855D01*
X130944426Y-82657777D01*
X130873430Y-82657823D01*
X130838455Y-82635377D01*
X130832851Y-82669620D01*
X130785324Y-82722362D01*
X130777652Y-82726721D01*
X130682002Y-82776726D01*
X130677201Y-82780586D01*
X130677198Y-82780588D01*
X130654953Y-82798474D01*
X130589331Y-82825570D01*
X130519476Y-82812887D01*
X130467568Y-82764451D01*
X130450001Y-82700277D01*
X130450001Y-82626193D01*
X130470003Y-82558072D01*
X130523659Y-82511579D01*
X130578310Y-82500214D01*
X130656255Y-82501643D01*
X130686134Y-82493497D01*
X130757117Y-82494877D01*
X130789619Y-82516669D01*
X130794204Y-82484635D01*
X130842921Y-82429530D01*
X130890724Y-82400179D01*
X130900672Y-82389189D01*
X130971300Y-82311161D01*
X130971303Y-82311157D01*
X130977322Y-82304507D01*
X131033588Y-82188375D01*
X131040305Y-82148453D01*
X131054190Y-82065917D01*
X131054997Y-82061120D01*
X131055133Y-82050000D01*
X131036839Y-81922259D01*
X131021359Y-81888213D01*
X130987145Y-81812962D01*
X130987143Y-81812959D01*
X130983428Y-81804788D01*
X130946635Y-81762087D01*
X130905051Y-81713826D01*
X130905049Y-81713824D01*
X130899193Y-81707028D01*
X130790906Y-81636841D01*
X130782311Y-81634271D01*
X130782310Y-81634270D01*
X130675874Y-81602438D01*
X130675872Y-81602438D01*
X130667273Y-81599866D01*
X130658298Y-81599811D01*
X130658297Y-81599811D01*
X130639130Y-81599694D01*
X130571133Y-81579276D01*
X130524969Y-81525337D01*
X130524572Y-81524259D01*
X130524415Y-81523166D01*
X130523109Y-81520294D01*
X130523107Y-81520288D01*
X130474721Y-81413869D01*
X130474719Y-81413866D01*
X130471004Y-81405695D01*
X130436452Y-81365595D01*
X130392627Y-81314733D01*
X130392625Y-81314731D01*
X130386769Y-81307935D01*
X130278482Y-81237748D01*
X130269887Y-81235178D01*
X130269886Y-81235177D01*
X130163450Y-81203345D01*
X130163448Y-81203345D01*
X130154849Y-81200773D01*
X130145874Y-81200718D01*
X130145873Y-81200718D01*
X130091217Y-81200384D01*
X130025807Y-81199985D01*
X130014051Y-81203345D01*
X129910362Y-81232979D01*
X129910360Y-81232980D01*
X129901731Y-81235446D01*
X129894141Y-81240235D01*
X129822000Y-81285753D01*
X129792595Y-81304306D01*
X129707172Y-81401029D01*
X129703358Y-81409152D01*
X129703357Y-81409154D01*
X129677565Y-81464090D01*
X129652330Y-81517839D01*
X129632477Y-81645347D01*
X129629065Y-81644816D01*
X129613124Y-81696765D01*
X129597055Y-81716458D01*
X129593797Y-81719716D01*
X129585219Y-81727495D01*
X129575202Y-81733013D01*
X129567718Y-81741916D01*
X129550762Y-81762087D01*
X129543407Y-81770105D01*
X129450418Y-81863094D01*
X129388106Y-81897120D01*
X129361323Y-81899999D01*
X129153144Y-81899999D01*
X129085023Y-81879997D01*
X129038530Y-81826341D01*
X129028426Y-81756067D01*
X129031503Y-81742679D01*
X129033588Y-81738375D01*
X129035584Y-81726514D01*
X129054190Y-81615917D01*
X129054997Y-81611120D01*
X129055133Y-81600000D01*
X129044636Y-81526705D01*
X129038112Y-81481145D01*
X129038111Y-81481142D01*
X129036839Y-81472259D01*
X129008147Y-81409154D01*
X128987145Y-81362962D01*
X128987143Y-81362959D01*
X128983428Y-81354788D01*
X128935802Y-81299515D01*
X128905051Y-81263826D01*
X128905049Y-81263824D01*
X128899193Y-81257028D01*
X128790906Y-81186841D01*
X128782311Y-81184271D01*
X128782310Y-81184270D01*
X128667273Y-81149866D01*
X128668346Y-81146279D01*
X128619990Y-81123914D01*
X128613864Y-81118182D01*
X128411277Y-80915595D01*
X128377251Y-80853283D01*
X128382316Y-80782468D01*
X128424863Y-80725632D01*
X128491383Y-80700821D01*
X128500372Y-80700500D01*
X130161435Y-80700500D01*
X130229556Y-80720502D01*
X130244841Y-80732057D01*
X130347388Y-80822623D01*
X130477163Y-80883553D01*
X130586009Y-80900500D01*
X130660940Y-80900500D01*
X130766918Y-80885323D01*
X130775094Y-80881606D01*
X130775818Y-80881394D01*
X130846814Y-80881474D01*
X130906498Y-80919924D01*
X130922433Y-80943178D01*
X130928758Y-80955073D01*
X130935549Y-80965294D01*
X131052697Y-81108933D01*
X131061341Y-81117637D01*
X131204156Y-81235784D01*
X131214327Y-81242644D01*
X131377376Y-81330804D01*
X131388681Y-81335556D01*
X131503992Y-81371250D01*
X131518095Y-81371456D01*
X131521300Y-81364701D01*
X131521300Y-81357924D01*
X132029300Y-81357924D01*
X132033273Y-81371455D01*
X132041068Y-81372575D01*
X132148821Y-81340862D01*
X132160189Y-81336269D01*
X132280108Y-81273577D01*
X132349743Y-81259743D01*
X132415804Y-81285753D01*
X132457316Y-81343349D01*
X132461400Y-81357538D01*
X132498565Y-81522446D01*
X132501645Y-81532275D01*
X132581770Y-81729603D01*
X132586413Y-81738794D01*
X132666460Y-81869420D01*
X132676916Y-81878880D01*
X132685694Y-81875096D01*
X133427978Y-81132812D01*
X133435592Y-81118868D01*
X133435461Y-81117035D01*
X133431210Y-81110420D01*
X132711552Y-80390762D01*
X132677526Y-80328450D01*
X132682591Y-80257635D01*
X132682807Y-80257163D01*
X132674326Y-80254000D01*
X132047415Y-80254000D01*
X132032176Y-80258475D01*
X132030971Y-80259865D01*
X132029300Y-80267548D01*
X132029300Y-81357924D01*
X131521300Y-81357924D01*
X131521300Y-78642076D01*
X131517327Y-78628545D01*
X131509532Y-78627425D01*
X131401779Y-78659138D01*
X131390411Y-78663731D01*
X131226146Y-78749607D01*
X131215885Y-78756321D01*
X131130452Y-78825011D01*
X131064830Y-78852107D01*
X130994975Y-78839424D01*
X130943067Y-78790988D01*
X130925500Y-78726814D01*
X130925500Y-77573023D01*
X130945502Y-77504902D01*
X130999158Y-77458409D01*
X131069432Y-77448305D01*
X131131815Y-77475938D01*
X131204156Y-77535784D01*
X131214327Y-77542644D01*
X131377376Y-77630804D01*
X131388681Y-77635556D01*
X131503992Y-77671250D01*
X131518095Y-77671456D01*
X131521300Y-77664701D01*
X131521300Y-75972000D01*
X131541302Y-75903879D01*
X131594958Y-75857386D01*
X131647300Y-75846000D01*
X131903300Y-75846000D01*
X131971421Y-75866002D01*
G37*
%TD.AperFunction*%
%TA.AperFunction,Conductor*%
G36*
X129061835Y-82521001D02*
G01*
X129108328Y-82574657D01*
X129118432Y-82644931D01*
X129117151Y-82650663D01*
X129116447Y-82652163D01*
X129115598Y-82657615D01*
X129115597Y-82657620D01*
X129096452Y-82780588D01*
X129094391Y-82793823D01*
X129112980Y-82935979D01*
X129170720Y-83067203D01*
X129176497Y-83074076D01*
X129176498Y-83074077D01*
X129212419Y-83116810D01*
X129262970Y-83176948D01*
X129270447Y-83181925D01*
X129372430Y-83249811D01*
X129382313Y-83256390D01*
X129519157Y-83299142D01*
X129528129Y-83299306D01*
X129528132Y-83299307D01*
X129593463Y-83300504D01*
X129662499Y-83301770D01*
X129671161Y-83299409D01*
X129671165Y-83299408D01*
X129689860Y-83294311D01*
X129760843Y-83295691D01*
X129819812Y-83335228D01*
X129848044Y-83400370D01*
X129849001Y-83415874D01*
X129849001Y-84146952D01*
X129828999Y-84215073D01*
X129775343Y-84261566D01*
X129705069Y-84271670D01*
X129640489Y-84242176D01*
X129633906Y-84236047D01*
X128117141Y-82719282D01*
X128083115Y-82656970D01*
X128088180Y-82586155D01*
X128130727Y-82529319D01*
X128189246Y-82505338D01*
X128191216Y-82505070D01*
X128195095Y-82504542D01*
X128212673Y-82502150D01*
X128229663Y-82500999D01*
X128993714Y-82500999D01*
X129061835Y-82521001D01*
G37*
%TD.AperFunction*%
%TD*%
M02*
