%TF.GenerationSoftware,KiCad,Pcbnew,6.0.3-a3aad9c10e~116~ubuntu20.04.1*%
%TF.CreationDate,2022-03-24T21:59:22+11:00*%
%TF.ProjectId,sea-picro,7365612d-7069-4637-926f-2e6b69636164,0.2*%
%TF.SameCoordinates,Original*%
%TF.FileFunction,Copper,L1,Top*%
%TF.FilePolarity,Positive*%
%FSLAX46Y46*%
G04 Gerber Fmt 4.6, Leading zero omitted, Abs format (unit mm)*
G04 Created by KiCad (PCBNEW 6.0.3-a3aad9c10e~116~ubuntu20.04.1) date 2022-03-24 21:59:22*
%MOMM*%
%LPD*%
G01*
G04 APERTURE LIST*
G04 Aperture macros list*
%AMRoundRect*
0 Rectangle with rounded corners*
0 $1 Rounding radius*
0 $2 $3 $4 $5 $6 $7 $8 $9 X,Y pos of 4 corners*
0 Add a 4 corners polygon primitive as box body*
4,1,4,$2,$3,$4,$5,$6,$7,$8,$9,$2,$3,0*
0 Add four circle primitives for the rounded corners*
1,1,$1+$1,$2,$3*
1,1,$1+$1,$4,$5*
1,1,$1+$1,$6,$7*
1,1,$1+$1,$8,$9*
0 Add four rect primitives between the rounded corners*
20,1,$1+$1,$2,$3,$4,$5,0*
20,1,$1+$1,$4,$5,$6,$7,0*
20,1,$1+$1,$6,$7,$8,$9,0*
20,1,$1+$1,$8,$9,$2,$3,0*%
G04 Aperture macros list end*
%TA.AperFunction,ComponentPad*%
%ADD10C,1.700000*%
%TD*%
%TA.AperFunction,SMDPad,CuDef*%
%ADD11RoundRect,0.140000X0.170000X-0.140000X0.170000X0.140000X-0.170000X0.140000X-0.170000X-0.140000X0*%
%TD*%
%TA.AperFunction,SMDPad,CuDef*%
%ADD12RoundRect,0.135000X0.185000X-0.135000X0.185000X0.135000X-0.185000X0.135000X-0.185000X-0.135000X0*%
%TD*%
%TA.AperFunction,SMDPad,CuDef*%
%ADD13R,0.340000X0.700000*%
%TD*%
%TA.AperFunction,SMDPad,CuDef*%
%ADD14RoundRect,0.140000X-0.170000X0.140000X-0.170000X-0.140000X0.170000X-0.140000X0.170000X0.140000X0*%
%TD*%
%TA.AperFunction,SMDPad,CuDef*%
%ADD15RoundRect,0.140000X0.140000X0.170000X-0.140000X0.170000X-0.140000X-0.170000X0.140000X-0.170000X0*%
%TD*%
%TA.AperFunction,SMDPad,CuDef*%
%ADD16RoundRect,0.150000X-0.512500X-0.150000X0.512500X-0.150000X0.512500X0.150000X-0.512500X0.150000X0*%
%TD*%
%TA.AperFunction,SMDPad,CuDef*%
%ADD17RoundRect,0.135000X-0.135000X-0.185000X0.135000X-0.185000X0.135000X0.185000X-0.135000X0.185000X0*%
%TD*%
%TA.AperFunction,SMDPad,CuDef*%
%ADD18RoundRect,0.125000X-0.262500X-0.125000X0.262500X-0.125000X0.262500X0.125000X-0.262500X0.125000X0*%
%TD*%
%TA.AperFunction,SMDPad,CuDef*%
%ADD19R,3.400000X4.000000*%
%TD*%
%TA.AperFunction,SMDPad,CuDef*%
%ADD20RoundRect,0.135000X-0.185000X0.135000X-0.185000X-0.135000X0.185000X-0.135000X0.185000X0.135000X0*%
%TD*%
%TA.AperFunction,SMDPad,CuDef*%
%ADD21R,0.540000X0.800000*%
%TD*%
%TA.AperFunction,SMDPad,CuDef*%
%ADD22R,0.300000X0.800000*%
%TD*%
%TA.AperFunction,ComponentPad*%
%ADD23O,1.000000X2.200000*%
%TD*%
%TA.AperFunction,ComponentPad*%
%ADD24O,1.000000X1.800000*%
%TD*%
%TA.AperFunction,ComponentPad*%
%ADD25O,1.700000X1.700000*%
%TD*%
%TA.AperFunction,SMDPad,CuDef*%
%ADD26RoundRect,0.140000X-0.140000X-0.170000X0.140000X-0.170000X0.140000X0.170000X-0.140000X0.170000X0*%
%TD*%
%TA.AperFunction,SMDPad,CuDef*%
%ADD27RoundRect,0.218750X-0.218750X-0.256250X0.218750X-0.256250X0.218750X0.256250X-0.218750X0.256250X0*%
%TD*%
%TA.AperFunction,SMDPad,CuDef*%
%ADD28RoundRect,0.135000X0.135000X0.185000X-0.135000X0.185000X-0.135000X-0.185000X0.135000X-0.185000X0*%
%TD*%
%TA.AperFunction,SMDPad,CuDef*%
%ADD29R,0.700000X0.340000*%
%TD*%
%TA.AperFunction,SMDPad,CuDef*%
%ADD30RoundRect,0.050000X-0.387500X-0.050000X0.387500X-0.050000X0.387500X0.050000X-0.387500X0.050000X0*%
%TD*%
%TA.AperFunction,SMDPad,CuDef*%
%ADD31RoundRect,0.050000X-0.050000X-0.387500X0.050000X-0.387500X0.050000X0.387500X-0.050000X0.387500X0*%
%TD*%
%TA.AperFunction,ComponentPad*%
%ADD32C,0.600000*%
%TD*%
%TA.AperFunction,SMDPad,CuDef*%
%ADD33RoundRect,0.144000X-1.456000X-1.456000X1.456000X-1.456000X1.456000X1.456000X-1.456000X1.456000X0*%
%TD*%
%TA.AperFunction,SMDPad,CuDef*%
%ADD34RoundRect,0.250000X0.250000X-0.325000X0.250000X0.325000X-0.250000X0.325000X-0.250000X-0.325000X0*%
%TD*%
%TA.AperFunction,SMDPad,CuDef*%
%ADD35RoundRect,0.218750X0.256250X-0.218750X0.256250X0.218750X-0.256250X0.218750X-0.256250X-0.218750X0*%
%TD*%
%TA.AperFunction,SMDPad,CuDef*%
%ADD36R,0.450000X0.600000*%
%TD*%
%TA.AperFunction,ComponentPad*%
%ADD37C,1.000000*%
%TD*%
%TA.AperFunction,ViaPad*%
%ADD38C,0.500000*%
%TD*%
%TA.AperFunction,ViaPad*%
%ADD39C,0.600000*%
%TD*%
%TA.AperFunction,Conductor*%
%ADD40C,0.200000*%
%TD*%
%TA.AperFunction,Conductor*%
%ADD41C,0.300000*%
%TD*%
%TA.AperFunction,Conductor*%
%ADD42C,0.150000*%
%TD*%
%TA.AperFunction,Conductor*%
%ADD43C,0.250000*%
%TD*%
G04 APERTURE END LIST*
D10*
%TO.P,J3,1,Pin_1*%
%TO.N,+5V*%
X133800000Y-78580000D03*
%TO.P,J3,2,Pin_2*%
%TO.N,GND*%
X133800000Y-81120000D03*
%TO.P,J3,3,Pin_3*%
%TO.N,/SWITCH*%
X133800000Y-83660000D03*
%TO.P,J3,4,Pin_4*%
%TO.N,+3V3*%
X133800000Y-86200000D03*
%TO.P,J3,5,Pin_5*%
%TO.N,/A3*%
X133800000Y-88740000D03*
%TO.P,J3,6,Pin_6*%
%TO.N,/A2*%
X133800000Y-91280000D03*
%TO.P,J3,7,Pin_7*%
%TO.N,/A1*%
X133800000Y-93820000D03*
%TO.P,J3,8,Pin_8*%
%TO.N,/A0*%
X133800000Y-96360000D03*
%TO.P,J3,9,Pin_9*%
%TO.N,/22_SCK*%
X133800000Y-98900000D03*
%TO.P,J3,10,Pin_10*%
%TO.N,/20_MISO*%
X133800000Y-101440000D03*
%TO.P,J3,11,Pin_11*%
%TO.N,/23_MOSI*%
X133800000Y-103980000D03*
%TO.P,J3,12,Pin_12*%
%TO.N,/21_nCS*%
X133800000Y-106520000D03*
%TD*%
%TO.P,J2,1,Pin_1*%
%TO.N,/9*%
X118560000Y-106520000D03*
%TO.P,J2,2,Pin_2*%
%TO.N,/8*%
X118560000Y-103980000D03*
%TO.P,J2,3,Pin_3*%
%TO.N,/7*%
X118560000Y-101440000D03*
%TO.P,J2,4,Pin_4*%
%TO.N,/6*%
X118560000Y-98900000D03*
%TO.P,J2,5,Pin_5*%
%TO.N,/5*%
X118560000Y-96360000D03*
%TO.P,J2,6,Pin_6*%
%TO.N,/4*%
X118560000Y-93820000D03*
%TO.P,J2,7,Pin_7*%
%TO.N,/3_SCL1*%
X118560000Y-91280000D03*
%TO.P,J2,8,Pin_8*%
%TO.N,/2_SDA1*%
X118560000Y-88740000D03*
%TO.P,J2,9,Pin_9*%
%TO.N,GND*%
X118560000Y-86200000D03*
%TO.P,J2,10,Pin_10*%
X118560000Y-83660000D03*
%TO.P,J2,11,Pin_11*%
%TO.N,/1_RX0*%
X118560000Y-81120000D03*
%TO.P,J2,12,Pin_12*%
%TO.N,/0_TX0*%
X118560000Y-78580000D03*
%TD*%
D11*
%TO.P,C19,1*%
%TO.N,Net-(C19-Pad1)*%
X124400000Y-104500000D03*
%TO.P,C19,2*%
%TO.N,GND*%
X124400000Y-103540000D03*
%TD*%
D12*
%TO.P,R6,1*%
%TO.N,+3V3*%
X122500000Y-91510000D03*
%TO.P,R6,2*%
%TO.N,Net-(R10-Pad1)*%
X122500000Y-90490000D03*
%TD*%
D13*
%TO.P,U4,1,VCCA*%
%TO.N,+3V3*%
X131000000Y-86800000D03*
%TO.P,U4,2,GND*%
%TO.N,GND*%
X131500000Y-86800000D03*
%TO.P,U4,3,A*%
%TO.N,/LED_DO*%
X132000000Y-86800000D03*
%TO.P,U4,4,B*%
%TO.N,Net-(J7-Pad1)*%
X132000000Y-85300000D03*
%TO.P,U4,5,DIR*%
%TO.N,+3V3*%
X131500000Y-85300000D03*
%TO.P,U4,6,VCCB*%
%TO.N,+5V*%
X131000000Y-85300000D03*
%TD*%
D11*
%TO.P,C10,1*%
%TO.N,+3V3*%
X131550000Y-91490000D03*
%TO.P,C10,2*%
%TO.N,GND*%
X131550000Y-90530000D03*
%TD*%
D14*
%TO.P,C8,1*%
%TO.N,+3V3*%
X126250000Y-101320000D03*
%TO.P,C8,2*%
%TO.N,GND*%
X126250000Y-102280000D03*
%TD*%
D15*
%TO.P,C11,1*%
%TO.N,+3V3*%
X121280000Y-97600000D03*
%TO.P,C11,2*%
%TO.N,GND*%
X120320000Y-97600000D03*
%TD*%
D16*
%TO.P,U1,1,VIN*%
%TO.N,+5V*%
X125312500Y-82810000D03*
%TO.P,U1,2,GND*%
%TO.N,GND*%
X125312500Y-83760000D03*
%TO.P,U1,3,EN*%
%TO.N,+5V*%
X125312500Y-84710000D03*
%TO.P,U1,4,NC*%
%TO.N,unconnected-(U1-Pad4)*%
X127587500Y-84710000D03*
%TO.P,U1,5,VOUT*%
%TO.N,+3V3*%
X127587500Y-82810000D03*
%TD*%
D17*
%TO.P,R16,1*%
%TO.N,VBUS*%
X120490000Y-91600000D03*
%TO.P,R16,2*%
%TO.N,/VBUS_DETECT*%
X121510000Y-91600000D03*
%TD*%
D12*
%TO.P,R10,1*%
%TO.N,Net-(R10-Pad1)*%
X122500000Y-89610000D03*
%TO.P,R10,2*%
%TO.N,/FLASH_nCS*%
X122500000Y-88590000D03*
%TD*%
D18*
%TO.P,U2,1,~{CS}*%
%TO.N,/FLASH_nCS*%
X123687500Y-86245000D03*
%TO.P,U2,2,DO(IO1)*%
%TO.N,/FLASH_SD1*%
X123687500Y-87515000D03*
%TO.P,U2,3,IO2*%
%TO.N,/FLASH_SD2*%
X123687500Y-88785000D03*
%TO.P,U2,4,GND*%
%TO.N,GND*%
X123687500Y-90055000D03*
%TO.P,U2,5,DI(IO0)*%
%TO.N,/FLASH_SD0*%
X129012500Y-90055000D03*
%TO.P,U2,6,CLK*%
%TO.N,/FLASH_SCK*%
X129012500Y-88785000D03*
%TO.P,U2,7,IO3*%
%TO.N,/FLASH_SD3*%
X129012500Y-87515000D03*
%TO.P,U2,8,VCC*%
%TO.N,+3V3*%
X129012500Y-86245000D03*
D19*
%TO.P,U2,9,GND*%
%TO.N,GND*%
X126350000Y-88150000D03*
%TD*%
D12*
%TO.P,R9,1*%
%TO.N,Net-(C7-Pad2)*%
X125300000Y-102310000D03*
%TO.P,R9,2*%
%TO.N,Net-(R9-Pad2)*%
X125300000Y-101290000D03*
%TD*%
D20*
%TO.P,R7,1*%
%TO.N,/USB+*%
X130250000Y-88202973D03*
%TO.P,R7,2*%
%TO.N,/D+*%
X130250000Y-89222973D03*
%TD*%
D14*
%TO.P,C2,1*%
%TO.N,+3V3*%
X129050000Y-82830000D03*
%TO.P,C2,2*%
%TO.N,GND*%
X129050000Y-83790000D03*
%TD*%
D21*
%TO.P,J1,A1,GND*%
%TO.N,GND*%
X123000000Y-80900000D03*
X129400000Y-80900000D03*
%TO.P,J1,A4,VBUS*%
%TO.N,VBUS*%
X128600000Y-80900000D03*
X123800000Y-80900000D03*
D22*
%TO.P,J1,A5,CC1*%
%TO.N,Net-(J1-PadA5)*%
X127450000Y-80900000D03*
%TO.P,J1,A6,D+*%
%TO.N,/USB+*%
X126450000Y-80900000D03*
%TO.P,J1,A7,D-*%
%TO.N,/USB-*%
X125950000Y-80900000D03*
%TO.P,J1,A8*%
%TO.N,N/C*%
X124950000Y-80900000D03*
%TO.P,J1,B5,CC2*%
%TO.N,Net-(J1-PadB5)*%
X124450000Y-80900000D03*
%TO.P,J1,B6,D+*%
%TO.N,/USB+*%
X125450000Y-80900000D03*
%TO.P,J1,B7,D-*%
%TO.N,/USB-*%
X126950000Y-80900000D03*
%TO.P,J1,B8*%
%TO.N,N/C*%
X127958000Y-80900000D03*
D23*
%TO.P,J1,S1,SHIELD*%
%TO.N,GND*%
X120624700Y-76100000D03*
%TO.P,J1,S2,SHIELD*%
X131775300Y-76100000D03*
D24*
%TO.P,J1,S3,SHIELD*%
X120624700Y-80000000D03*
%TO.P,J1,S4,SHIELD*%
X131775300Y-80000000D03*
%TD*%
D10*
%TO.P,J6,1,Pin_1*%
%TO.N,/10*%
X121100000Y-106520000D03*
D25*
%TO.P,J6,2,Pin_2*%
%TO.N,/11*%
X123640000Y-106520000D03*
%TO.P,J6,3,Pin_3*%
%TO.N,/15*%
X126180000Y-106520000D03*
%TO.P,J6,4,Pin_4*%
%TO.N,/18*%
X128720000Y-106520000D03*
%TO.P,J6,5,Pin_5*%
%TO.N,/19*%
X131260000Y-106520000D03*
%TD*%
D17*
%TO.P,R4,1*%
%TO.N,+3V3*%
X131040000Y-82050000D03*
%TO.P,R4,2*%
%TO.N,/SWITCH*%
X132060000Y-82050000D03*
%TD*%
D11*
%TO.P,C15,1*%
%TO.N,+3V3*%
X121200000Y-93530000D03*
%TO.P,C15,2*%
%TO.N,GND*%
X121200000Y-92570000D03*
%TD*%
D26*
%TO.P,C7,1*%
%TO.N,GND*%
X122320000Y-104750000D03*
%TO.P,C7,2*%
%TO.N,Net-(C7-Pad2)*%
X123280000Y-104750000D03*
%TD*%
D20*
%TO.P,R15,1*%
%TO.N,/FLASH_nCS*%
X131800000Y-100790000D03*
%TO.P,R15,2*%
%TO.N,/BOOT*%
X131800000Y-101810000D03*
%TD*%
D15*
%TO.P,C12,1*%
%TO.N,GND*%
X127830000Y-91460000D03*
%TO.P,C12,2*%
%TO.N,+3V3*%
X126870000Y-91460000D03*
%TD*%
D11*
%TO.P,C5,1*%
%TO.N,Net-(C19-Pad1)*%
X125300000Y-104500000D03*
%TO.P,C5,2*%
%TO.N,GND*%
X125300000Y-103540000D03*
%TD*%
D15*
%TO.P,C1,1*%
%TO.N,+5V*%
X123930000Y-84960000D03*
%TO.P,C1,2*%
%TO.N,GND*%
X122970000Y-84960000D03*
%TD*%
D10*
%TO.P,J4,1,Pin_1*%
%TO.N,/USB+*%
X118560000Y-76040000D03*
%TD*%
D17*
%TO.P,R12,1*%
%TO.N,+3V3*%
X127140000Y-102500000D03*
%TO.P,R12,2*%
%TO.N,/nRST*%
X128160000Y-102500000D03*
%TD*%
D20*
%TO.P,R5,1*%
%TO.N,+3V3*%
X128150000Y-103540000D03*
%TO.P,R5,2*%
%TO.N,Net-(Q1-Pad4)*%
X128150000Y-104560000D03*
%TD*%
D10*
%TO.P,J7,1,Pin_1*%
%TO.N,Net-(J7-Pad1)*%
X131260000Y-83660000D03*
%TD*%
D17*
%TO.P,R17,1*%
%TO.N,/VBUS_DETECT*%
X120440000Y-104750000D03*
%TO.P,R17,2*%
%TO.N,GND*%
X121460000Y-104750000D03*
%TD*%
%TO.P,R1,1*%
%TO.N,GND*%
X128890000Y-84850000D03*
%TO.P,R1,2*%
%TO.N,Net-(J1-PadA5)*%
X129910000Y-84850000D03*
%TD*%
D27*
%TO.P,F1,1*%
%TO.N,Net-(D1-Pad2)*%
X122112500Y-83760000D03*
%TO.P,F1,2*%
%TO.N,VBUS*%
X123687500Y-83760000D03*
%TD*%
D28*
%TO.P,R11,1*%
%TO.N,Net-(R11-Pad1)*%
X127210000Y-103500000D03*
%TO.P,R11,2*%
%TO.N,GND*%
X126190000Y-103500000D03*
%TD*%
D29*
%TO.P,Q1,1,S*%
%TO.N,GND*%
X130150000Y-103700000D03*
%TO.P,Q1,2,G*%
%TO.N,/SWITCH*%
X130150000Y-104200000D03*
%TO.P,Q1,3,D*%
%TO.N,Net-(Q1-Pad3)*%
X130150000Y-104700000D03*
%TO.P,Q1,4,S*%
%TO.N,Net-(Q1-Pad4)*%
X131650000Y-104700000D03*
%TO.P,Q1,5,G*%
X131650000Y-104200000D03*
%TO.P,Q1,6,D*%
X131650000Y-103700000D03*
%TD*%
D28*
%TO.P,R14,1*%
%TO.N,Net-(C19-Pad1)*%
X127210000Y-104500000D03*
%TO.P,R14,2*%
%TO.N,Net-(R11-Pad1)*%
X126190000Y-104500000D03*
%TD*%
D11*
%TO.P,C6,1*%
%TO.N,GND*%
X124350000Y-102230000D03*
%TO.P,C6,2*%
%TO.N,Net-(C6-Pad2)*%
X124350000Y-101270000D03*
%TD*%
D30*
%TO.P,U3,1,IOVDD*%
%TO.N,+3V3*%
X122762500Y-93660000D03*
%TO.P,U3,2,GPIO0*%
%TO.N,/0_TX0*%
X122762500Y-94060000D03*
%TO.P,U3,3,GPIO1*%
%TO.N,/1_RX0*%
X122762500Y-94460000D03*
%TO.P,U3,4,GPIO2*%
%TO.N,/2_SDA1*%
X122762500Y-94860000D03*
%TO.P,U3,5,GPIO3*%
%TO.N,/3_SCL1*%
X122762500Y-95260000D03*
%TO.P,U3,6,GPIO4*%
%TO.N,/4*%
X122762500Y-95660000D03*
%TO.P,U3,7,GPIO5*%
%TO.N,/5*%
X122762500Y-96060000D03*
%TO.P,U3,8,GPIO6*%
%TO.N,/6*%
X122762500Y-96460000D03*
%TO.P,U3,9,GPIO7*%
%TO.N,/7*%
X122762500Y-96860000D03*
%TO.P,U3,10,IOVDD*%
%TO.N,+3V3*%
X122762500Y-97260000D03*
%TO.P,U3,11,GPIO8*%
%TO.N,/8*%
X122762500Y-97660000D03*
%TO.P,U3,12,GPIO9*%
%TO.N,/9*%
X122762500Y-98060000D03*
%TO.P,U3,13,GPIO10*%
%TO.N,/10*%
X122762500Y-98460000D03*
%TO.P,U3,14,GPIO11*%
%TO.N,/11*%
X122762500Y-98860000D03*
D31*
%TO.P,U3,15,GPIO12*%
%TO.N,/15*%
X123600000Y-99697500D03*
%TO.P,U3,16,GPIO13*%
%TO.N,/VBUS_DETECT*%
X124000000Y-99697500D03*
%TO.P,U3,17,GPIO14*%
%TO.N,unconnected-(U3-Pad17)*%
X124400000Y-99697500D03*
%TO.P,U3,18,GPIO15*%
%TO.N,unconnected-(U3-Pad18)*%
X124800000Y-99697500D03*
%TO.P,U3,19,TESTEN*%
%TO.N,GND*%
X125200000Y-99697500D03*
%TO.P,U3,20,XTAL_IN*%
%TO.N,Net-(C6-Pad2)*%
X125600000Y-99697500D03*
%TO.P,U3,21,XTAL_OUT*%
%TO.N,Net-(R9-Pad2)*%
X126000000Y-99697500D03*
%TO.P,U3,22,IOVDD*%
%TO.N,+3V3*%
X126400000Y-99697500D03*
%TO.P,U3,23,DVDD*%
%TO.N,+1V1*%
X126800000Y-99697500D03*
%TO.P,U3,24,SWCLK*%
%TO.N,/SWDCLK*%
X127200000Y-99697500D03*
%TO.P,U3,25,SWDIO*%
%TO.N,/SWDIO*%
X127600000Y-99697500D03*
%TO.P,U3,26,~{RUN}*%
%TO.N,/nRST*%
X128000000Y-99697500D03*
%TO.P,U3,27,GPIO16*%
%TO.N,unconnected-(U3-Pad27)*%
X128400000Y-99697500D03*
%TO.P,U3,28,GPIO17*%
%TO.N,unconnected-(U3-Pad28)*%
X128800000Y-99697500D03*
D30*
%TO.P,U3,29,GPIO18*%
%TO.N,/18*%
X129637500Y-98860000D03*
%TO.P,U3,30,GPIO19*%
%TO.N,/19*%
X129637500Y-98460000D03*
%TO.P,U3,31,GPIO20*%
%TO.N,/20_MISO*%
X129637500Y-98060000D03*
%TO.P,U3,32,GPIO21*%
%TO.N,/21_nCS*%
X129637500Y-97660000D03*
%TO.P,U3,33,IOVDD*%
%TO.N,+3V3*%
X129637500Y-97260000D03*
%TO.P,U3,34,GPIO22*%
%TO.N,/22_SCK*%
X129637500Y-96860000D03*
%TO.P,U3,35,GPIO23*%
%TO.N,/23_MOSI*%
X129637500Y-96460000D03*
%TO.P,U3,36,GPIO24*%
%TO.N,unconnected-(U3-Pad36)*%
X129637500Y-96060000D03*
%TO.P,U3,37,GPIO25*%
%TO.N,/LED_DO*%
X129637500Y-95660000D03*
%TO.P,U3,38,GPIO26/ADC0*%
%TO.N,/A0*%
X129637500Y-95260000D03*
%TO.P,U3,39,GPIO27/ADC1*%
%TO.N,/A1*%
X129637500Y-94860000D03*
%TO.P,U3,40,GPIO28/ADC2*%
%TO.N,/A2*%
X129637500Y-94460000D03*
%TO.P,U3,41,GPIO29/ADC3*%
%TO.N,/A3*%
X129637500Y-94060000D03*
%TO.P,U3,42,IOVDD*%
%TO.N,+3V3*%
X129637500Y-93660000D03*
D31*
%TO.P,U3,43,ADC_AVDD*%
X128800000Y-92822500D03*
%TO.P,U3,44,VREG_VIN*%
X128400000Y-92822500D03*
%TO.P,U3,45,VREG_VOUT*%
%TO.N,+1V1*%
X128000000Y-92822500D03*
%TO.P,U3,46,D-*%
%TO.N,/D-*%
X127600000Y-92822500D03*
%TO.P,U3,47,D+*%
%TO.N,/D+*%
X127200000Y-92822500D03*
%TO.P,U3,48,USB_VDD*%
%TO.N,+3V3*%
X126800000Y-92822500D03*
%TO.P,U3,49,IOVDD*%
X126400000Y-92822500D03*
%TO.P,U3,50,DVDD*%
%TO.N,+1V1*%
X126000000Y-92822500D03*
%TO.P,U3,51,QSPI_SD3*%
%TO.N,/FLASH_SD3*%
X125600000Y-92822500D03*
%TO.P,U3,52,QSPI_SCLK*%
%TO.N,/FLASH_SCK*%
X125200000Y-92822500D03*
%TO.P,U3,53,QSPI_SD0*%
%TO.N,/FLASH_SD0*%
X124800000Y-92822500D03*
%TO.P,U3,54,QSPI_SD2*%
%TO.N,/FLASH_SD2*%
X124400000Y-92822500D03*
%TO.P,U3,55,QSPI_SD1*%
%TO.N,/FLASH_SD1*%
X124000000Y-92822500D03*
%TO.P,U3,56,QSPI_SS_N*%
%TO.N,/FLASH_nCS*%
X123600000Y-92822500D03*
D32*
%TO.P,U3,57,GND*%
%TO.N,GND*%
X127475000Y-97535000D03*
X126200000Y-97535000D03*
X126200000Y-96260000D03*
X124925000Y-94985000D03*
X124925000Y-97535000D03*
X127475000Y-94985000D03*
X127475000Y-96260000D03*
X126200000Y-94985000D03*
X124925000Y-96260000D03*
D33*
X126200000Y-96260000D03*
%TD*%
D12*
%TO.P,R13,1*%
%TO.N,Net-(Q1-Pad3)*%
X129100000Y-104560000D03*
%TO.P,R13,2*%
%TO.N,Net-(C19-Pad1)*%
X129100000Y-103540000D03*
%TD*%
D20*
%TO.P,R3,1*%
%TO.N,+3V3*%
X120900000Y-83440000D03*
%TO.P,R3,2*%
%TO.N,Net-(D2-Pad2)*%
X120900000Y-84460000D03*
%TD*%
D10*
%TO.P,J5,1,Pin_1*%
%TO.N,/USB-*%
X133800000Y-76040000D03*
%TD*%
D14*
%TO.P,C4,1*%
%TO.N,+3V3*%
X130100000Y-85820000D03*
%TO.P,C4,2*%
%TO.N,GND*%
X130100000Y-86780000D03*
%TD*%
D26*
%TO.P,C9,1*%
%TO.N,+1V1*%
X128720000Y-91460000D03*
%TO.P,C9,2*%
%TO.N,GND*%
X129680000Y-91460000D03*
%TD*%
%TO.P,C17,1*%
%TO.N,+1V1*%
X127170000Y-101350000D03*
%TO.P,C17,2*%
%TO.N,GND*%
X128130000Y-101350000D03*
%TD*%
%TO.P,C14,1*%
%TO.N,+3V3*%
X131020000Y-97100000D03*
%TO.P,C14,2*%
%TO.N,GND*%
X131980000Y-97100000D03*
%TD*%
D34*
%TO.P,Y1,1,1*%
%TO.N,Net-(C7-Pad2)*%
X123100000Y-103425000D03*
%TO.P,Y1,2,2*%
%TO.N,GND*%
X123100000Y-101675000D03*
%TO.P,Y1,3,3*%
%TO.N,Net-(C6-Pad2)*%
X121700000Y-101675000D03*
%TO.P,Y1,4,4*%
%TO.N,GND*%
X121700000Y-103425000D03*
%TD*%
D35*
%TO.P,D2,1,K*%
%TO.N,GND*%
X121250000Y-90387500D03*
%TO.P,D2,2,A*%
%TO.N,Net-(D2-Pad2)*%
X121250000Y-88812500D03*
%TD*%
D28*
%TO.P,R2,1*%
%TO.N,GND*%
X122110000Y-82560000D03*
%TO.P,R2,2*%
%TO.N,Net-(J1-PadB5)*%
X121090000Y-82560000D03*
%TD*%
D15*
%TO.P,C18,1*%
%TO.N,+1V1*%
X125930000Y-91460000D03*
%TO.P,C18,2*%
%TO.N,GND*%
X124970000Y-91460000D03*
%TD*%
D36*
%TO.P,D1,1,K*%
%TO.N,+5V*%
X121500000Y-87600000D03*
%TO.P,D1,2,A*%
%TO.N,Net-(D1-Pad2)*%
X121500000Y-85500000D03*
%TD*%
D29*
%TO.P,Q2,1,S*%
%TO.N,GND*%
X130700000Y-102500000D03*
%TO.P,Q2,2,G*%
%TO.N,Net-(Q1-Pad4)*%
X130700000Y-102000000D03*
%TO.P,Q2,3,D*%
%TO.N,/BOOT*%
X130700000Y-101500000D03*
%TO.P,Q2,4,S*%
%TO.N,GND*%
X129200000Y-101500000D03*
%TO.P,Q2,5,G*%
%TO.N,Net-(C19-Pad1)*%
X129200000Y-102000000D03*
%TO.P,Q2,6,D*%
%TO.N,/nRST*%
X129200000Y-102500000D03*
%TD*%
D11*
%TO.P,C13,1*%
%TO.N,+3V3*%
X130600000Y-91490000D03*
%TO.P,C13,2*%
%TO.N,GND*%
X130600000Y-90530000D03*
%TD*%
D15*
%TO.P,C3,1*%
%TO.N,VBUS*%
X123930000Y-82560000D03*
%TO.P,C3,2*%
%TO.N,GND*%
X122970000Y-82560000D03*
%TD*%
D11*
%TO.P,C16,1*%
%TO.N,+3V3*%
X131300000Y-93610000D03*
%TO.P,C16,2*%
%TO.N,GND*%
X131300000Y-92650000D03*
%TD*%
D20*
%TO.P,R8,1*%
%TO.N,/USB-*%
X131250000Y-88202973D03*
%TO.P,R8,2*%
%TO.N,/D-*%
X131250000Y-89222973D03*
%TD*%
D37*
%TO.P,TP2,1,1*%
%TO.N,/SWDIO*%
X130500000Y-100500000D03*
%TD*%
%TO.P,TP1,1,1*%
%TO.N,/SWDCLK*%
X121800000Y-100000000D03*
%TD*%
D38*
%TO.N,GND*%
X124860000Y-103540000D03*
X122950000Y-84360000D03*
X130150000Y-103250000D03*
X132150000Y-86050000D03*
X129561757Y-90871758D03*
X132450000Y-97800000D03*
X126300000Y-88160000D03*
X121300000Y-89649500D03*
X122250000Y-104150000D03*
D39*
X126151561Y-83771516D03*
D38*
X127650000Y-90560000D03*
X122400000Y-102550000D03*
X124379227Y-100569727D03*
D39*
X129550500Y-83788536D03*
X129376048Y-81585324D03*
D38*
X130000000Y-90510000D03*
X129518170Y-86834725D03*
X121689477Y-92410523D03*
X131850000Y-89950000D03*
X126200000Y-102900000D03*
X131651967Y-92300471D03*
X123596977Y-89463023D03*
X124850497Y-90860000D03*
X129018854Y-100657920D03*
X120000000Y-97900000D03*
D39*
X123000000Y-81750000D03*
D38*
%TO.N,Net-(J1-PadB5)*%
X124450000Y-82000000D03*
X121600000Y-81966970D03*
%TO.N,+5V*%
X130087576Y-81650907D03*
X125049152Y-82250814D03*
X130650000Y-84950000D03*
%TO.N,VBUS*%
X122949500Y-83700000D03*
X123850000Y-81650000D03*
X120025500Y-85250000D03*
X128600000Y-81600000D03*
%TO.N,+3V3*%
X129550000Y-85800000D03*
X131746095Y-97882140D03*
X131300000Y-91210000D03*
X121275500Y-83825600D03*
X131650000Y-93310000D03*
X120950000Y-97100000D03*
X126952589Y-102053918D03*
X127058296Y-90890605D03*
X123100000Y-91500000D03*
X121852713Y-93039178D03*
X128419400Y-103204822D03*
X130600000Y-82050000D03*
D39*
X129600000Y-82800000D03*
D38*
%TO.N,/nRST*%
X128450499Y-102028410D03*
X129950498Y-101500000D03*
%TO.N,+1V1*%
X125500000Y-90860000D03*
X128374500Y-100576302D03*
X128777219Y-90880515D03*
%TO.N,/LED_DO*%
X131502914Y-95725990D03*
X132050000Y-87550000D03*
%TO.N,/23_MOSI*%
X132550000Y-95850000D03*
%TO.N,/21_nCS*%
X131884839Y-98516650D03*
%TO.N,/FLASH_nCS*%
X128800683Y-98397162D03*
X130500000Y-99400000D03*
%TO.N,/USB+*%
X126450000Y-82198511D03*
X130425991Y-87714041D03*
%TO.N,/USB-*%
X131100000Y-87700000D03*
X125932887Y-81699011D03*
X126948501Y-81699011D03*
%TO.N,/SWDCLK*%
X125550000Y-98300000D03*
%TO.N,/SWDIO*%
X127450000Y-98350000D03*
%TO.N,/FLASH_SD0*%
X124565523Y-93644477D03*
X128462751Y-89747251D03*
%TO.N,/FLASH_SCK*%
X128475753Y-89097879D03*
X125200000Y-93810000D03*
%TO.N,/FLASH_SD3*%
X125850000Y-93660000D03*
X129500000Y-89432769D03*
%TO.N,/D+*%
X127074500Y-93775500D03*
X130549001Y-89810223D03*
%TO.N,/D-*%
X131198446Y-89801554D03*
X127750000Y-93775500D03*
%TO.N,/SWITCH*%
X130898515Y-103297625D03*
%TO.N,/15*%
X123600000Y-98900000D03*
%TO.N,/BOOT*%
X131450000Y-101500000D03*
%TO.N,/VBUS_DETECT*%
X124150000Y-97800000D03*
X120450000Y-103750000D03*
%TD*%
D40*
%TO.N,GND*%
X121300000Y-90387500D02*
X121300000Y-89649500D01*
X128890000Y-84850000D02*
X128890000Y-84560000D01*
X131649529Y-92300471D02*
X131651967Y-92300471D01*
X124970000Y-90979503D02*
X124850497Y-90860000D01*
X126190000Y-103500000D02*
X125340000Y-103500000D01*
D41*
X125312500Y-83760000D02*
X126140045Y-83760000D01*
D40*
X123100000Y-101850000D02*
X122400000Y-102550000D01*
X127830000Y-91460000D02*
X127830000Y-90740000D01*
X131300000Y-92650000D02*
X131649529Y-92300471D01*
X124350000Y-102230000D02*
X123795000Y-101675000D01*
D41*
X129549036Y-83790000D02*
X129550500Y-83788536D01*
D40*
X122320000Y-104750000D02*
X122250000Y-104680000D01*
X131980000Y-97100000D02*
X132450000Y-97570000D01*
X125200000Y-100300000D02*
X125029030Y-100470970D01*
X128130000Y-101350000D02*
X128404197Y-101075803D01*
D41*
X122970000Y-84960000D02*
X122970000Y-84380000D01*
D40*
X131500000Y-86800000D02*
X131500000Y-86280978D01*
X121700000Y-103600000D02*
X122250000Y-104150000D01*
X129200000Y-101500000D02*
X129200000Y-100839066D01*
X124591345Y-100569727D02*
X124690102Y-100470970D01*
X128404197Y-101075803D02*
X128600971Y-101075803D01*
D42*
X121460000Y-104750000D02*
X122320000Y-104750000D01*
D40*
X123600000Y-89466046D02*
X123596977Y-89463023D01*
X124379227Y-100569727D02*
X124591345Y-100569727D01*
X125200000Y-99697500D02*
X125200000Y-100300000D01*
X130570000Y-90530000D02*
X130550000Y-90510000D01*
X122400000Y-102600000D02*
X121700000Y-103300000D01*
D41*
X129400000Y-81561372D02*
X129376048Y-81585324D01*
D40*
X132450000Y-97570000D02*
X132450000Y-97800000D01*
X121359477Y-92410523D02*
X121689477Y-92410523D01*
D41*
X129400000Y-80900000D02*
X129400000Y-81561372D01*
D40*
X121700000Y-103425000D02*
X121700000Y-103600000D01*
X130700000Y-102500000D02*
X130700000Y-102700000D01*
X126250000Y-102280000D02*
X126250000Y-102850000D01*
X123795000Y-101675000D02*
X123100000Y-101675000D01*
D41*
X129050000Y-83790000D02*
X129549036Y-83790000D01*
X123000000Y-80900000D02*
X123000000Y-81750000D01*
D40*
X131730978Y-86050000D02*
X132150000Y-86050000D01*
X127830000Y-90740000D02*
X127650000Y-90560000D01*
X130550000Y-90510000D02*
X130000000Y-90510000D01*
X130150000Y-86780000D02*
X129572895Y-86780000D01*
X131550000Y-90530000D02*
X131850000Y-90230000D01*
D41*
X122970000Y-82560000D02*
X122110000Y-82560000D01*
D40*
X125029030Y-100470970D02*
X124690102Y-100470970D01*
X121700000Y-103300000D02*
X121700000Y-103425000D01*
X120300000Y-97600000D02*
X120000000Y-97900000D01*
X128890000Y-84560000D02*
X129050000Y-84400000D01*
X129200000Y-100839066D02*
X129018854Y-100657920D01*
X131850000Y-90230000D02*
X131850000Y-89950000D01*
X121200000Y-92570000D02*
X121359477Y-92410523D01*
X125340000Y-103500000D02*
X125300000Y-103540000D01*
X130700000Y-102700000D02*
X130150000Y-103250000D01*
X130150000Y-103700000D02*
X130150000Y-103250000D01*
X129050000Y-84400000D02*
X129050000Y-83790000D01*
X124400000Y-103540000D02*
X125300000Y-103540000D01*
X123600000Y-90065000D02*
X123600000Y-89466046D01*
X129572895Y-86780000D02*
X129518170Y-86834725D01*
X124970000Y-91460000D02*
X124970000Y-90979503D01*
D41*
X126140045Y-83760000D02*
X126151561Y-83771516D01*
X122970000Y-84380000D02*
X122950000Y-84360000D01*
D40*
X128600971Y-101075803D02*
X129018854Y-100657920D01*
D41*
X123000000Y-81750000D02*
X123000000Y-82530000D01*
D40*
X123100000Y-101675000D02*
X123100000Y-101850000D01*
D41*
X123000000Y-82530000D02*
X122970000Y-82560000D01*
D40*
X129680000Y-90990001D02*
X129561757Y-90871758D01*
X120320000Y-97600000D02*
X120300000Y-97600000D01*
X131500000Y-86280978D02*
X131730978Y-86050000D01*
X122400000Y-102550000D02*
X122400000Y-102600000D01*
X129680000Y-91460000D02*
X129680000Y-90990001D01*
X122250000Y-104680000D02*
X122250000Y-104150000D01*
D42*
%TO.N,Net-(J1-PadA5)*%
X130150000Y-84610000D02*
X130150000Y-82458242D01*
X127950000Y-82200000D02*
X127450000Y-81700000D01*
X129910000Y-84850000D02*
X130150000Y-84610000D01*
X129891758Y-82200000D02*
X127950000Y-82200000D01*
X127450000Y-81700000D02*
X127450000Y-80900000D01*
X130150000Y-82458242D02*
X129891758Y-82200000D01*
%TO.N,Net-(J1-PadB5)*%
X121090000Y-82560000D02*
X121600000Y-82050000D01*
X121600000Y-82050000D02*
X121600000Y-81966970D01*
X124450000Y-80900000D02*
X124450000Y-82000000D01*
D40*
%TO.N,+5V*%
X132600000Y-80800000D02*
X132000000Y-81400000D01*
D41*
X124180000Y-84710000D02*
X125312500Y-84710000D01*
D40*
X132600000Y-79780000D02*
X132600000Y-80800000D01*
X125049152Y-82250814D02*
X125049152Y-82546652D01*
D41*
X126150000Y-82810000D02*
X125312500Y-82810000D01*
X122500000Y-85600000D02*
X121500000Y-86600000D01*
D40*
X130338483Y-81400000D02*
X130087576Y-81650907D01*
X133800000Y-78580000D02*
X132600000Y-79780000D01*
X132000000Y-81400000D02*
X130338483Y-81400000D01*
D41*
X126200000Y-84710000D02*
X126800000Y-84110000D01*
X123930000Y-84960000D02*
X123290000Y-85600000D01*
D40*
X131000000Y-85300000D02*
X130650000Y-84950000D01*
D41*
X126800000Y-84110000D02*
X126800000Y-83460000D01*
X123930000Y-84960000D02*
X124180000Y-84710000D01*
X121500000Y-86600000D02*
X121500000Y-87600000D01*
X126800000Y-83460000D02*
X126150000Y-82810000D01*
D40*
X125049152Y-82546652D02*
X125312500Y-82810000D01*
D41*
X123290000Y-85600000D02*
X122500000Y-85600000D01*
X125312500Y-84710000D02*
X126200000Y-84710000D01*
D42*
%TO.N,VBUS*%
X120233532Y-91343532D02*
X120233532Y-85458032D01*
D41*
X123930000Y-83517500D02*
X123687500Y-83760000D01*
X123800000Y-80900000D02*
X123800000Y-82430000D01*
X123930000Y-82560000D02*
X123930000Y-83517500D01*
X123800000Y-82430000D02*
X123930000Y-82560000D01*
D40*
X122949500Y-83700000D02*
X123627500Y-83700000D01*
D41*
X128600000Y-80900000D02*
X128600000Y-81600000D01*
D40*
X123627500Y-83700000D02*
X123687500Y-83760000D01*
D42*
X120233532Y-85458032D02*
X120025500Y-85250000D01*
X120490000Y-91600000D02*
X120233532Y-91343532D01*
%TO.N,Net-(D2-Pad2)*%
X120900000Y-88412500D02*
X120900000Y-84460000D01*
X121300000Y-88812500D02*
X120900000Y-88412500D01*
D40*
%TO.N,+3V3*%
X128150000Y-103540000D02*
X128150000Y-103474222D01*
X130150000Y-85820000D02*
X129725000Y-86245000D01*
D41*
X129030000Y-82810000D02*
X129050000Y-82830000D01*
D40*
X130880000Y-91210000D02*
X131300000Y-91210000D01*
X130570000Y-97100000D02*
X130410000Y-97260000D01*
X131500000Y-85300000D02*
X131500000Y-85786694D01*
X126800000Y-92822500D02*
X126800000Y-92010000D01*
X121280000Y-97430000D02*
X120950000Y-97100000D01*
X122762500Y-97260000D02*
X121620000Y-97260000D01*
X130520000Y-85820000D02*
X130100000Y-85820000D01*
X128564284Y-92110000D02*
X129980000Y-92110000D01*
X120900000Y-83450100D02*
X121275500Y-83825600D01*
X131500000Y-85786694D02*
X131286695Y-86000000D01*
X129887500Y-92822500D02*
X130610000Y-92100000D01*
X126800000Y-92010000D02*
X126800000Y-91530000D01*
X126250000Y-101351329D02*
X126952589Y-102053918D01*
X130950000Y-86000000D02*
X130825000Y-86125000D01*
X128100000Y-103540000D02*
X128100000Y-103450000D01*
X126250000Y-100950000D02*
X126400000Y-100800000D01*
X126870000Y-91460000D02*
X126870000Y-91078901D01*
X121880000Y-93530000D02*
X122010000Y-93660000D01*
X131000000Y-86800000D02*
X131000000Y-86300000D01*
X127150000Y-102500000D02*
X127140000Y-102500000D01*
X126250000Y-101320000D02*
X126250000Y-100950000D01*
X130610000Y-92100000D02*
X130960000Y-92100000D01*
X129637500Y-93660000D02*
X131250000Y-93660000D01*
X126800000Y-91530000D02*
X126870000Y-91460000D01*
X131300000Y-91240000D02*
X131300000Y-91210000D01*
X126870000Y-91078901D02*
X127058296Y-90890605D01*
X130960000Y-92100000D02*
X131550000Y-91510000D01*
X126400000Y-92822500D02*
X126400000Y-92210000D01*
X126400000Y-100800000D02*
X126400000Y-99697500D01*
D41*
X129570000Y-82830000D02*
X129600000Y-82800000D01*
D40*
X131550000Y-91490000D02*
X131300000Y-91240000D01*
X128100000Y-103450000D02*
X127150000Y-102500000D01*
X122010000Y-93660000D02*
X122762500Y-93660000D01*
D41*
X127587500Y-82810000D02*
X129030000Y-82810000D01*
D40*
X126400000Y-92210000D02*
X126600000Y-92010000D01*
X131746095Y-97826095D02*
X131020000Y-97100000D01*
X123090000Y-91510000D02*
X123100000Y-91500000D01*
X126250000Y-101320000D02*
X126250000Y-101351329D01*
X122400000Y-91510000D02*
X123090000Y-91510000D01*
X129570000Y-85820000D02*
X129550000Y-85800000D01*
X131300000Y-93610000D02*
X131350000Y-93610000D01*
X131000000Y-86300000D02*
X130825000Y-86125000D01*
X126952589Y-102312589D02*
X127140000Y-102500000D01*
X130600000Y-91490000D02*
X130880000Y-91210000D01*
X129637500Y-97260000D02*
X130410000Y-97260000D01*
X130150000Y-85820000D02*
X129570000Y-85820000D01*
X121200000Y-93530000D02*
X121880000Y-93530000D01*
X126600000Y-92010000D02*
X126800000Y-92010000D01*
X128400000Y-92822500D02*
X128400000Y-92274284D01*
X121200000Y-93530000D02*
X121690822Y-93039178D01*
X121690822Y-93039178D02*
X121852713Y-93039178D01*
X129980000Y-92110000D02*
X130600000Y-91490000D01*
X126952589Y-102053918D02*
X126952589Y-102312589D01*
X131286695Y-86000000D02*
X130950000Y-86000000D01*
X130825000Y-86125000D02*
X130520000Y-85820000D01*
X131020000Y-97100000D02*
X130570000Y-97100000D01*
X128150000Y-103474222D02*
X128419400Y-103204822D01*
X121280000Y-97600000D02*
X121280000Y-97430000D01*
X128800000Y-92822500D02*
X129887500Y-92822500D01*
X131746095Y-97882140D02*
X131746095Y-97826095D01*
X129725000Y-86245000D02*
X128962500Y-86245000D01*
X131350000Y-93610000D02*
X131650000Y-93310000D01*
X131250000Y-93660000D02*
X131300000Y-93610000D01*
D41*
X129050000Y-82830000D02*
X129570000Y-82830000D01*
D40*
X131550000Y-91510000D02*
X131550000Y-91490000D01*
X131040000Y-82050000D02*
X130600000Y-82050000D01*
X128400000Y-92274284D02*
X128564284Y-92110000D01*
X121620000Y-97260000D02*
X121280000Y-97600000D01*
D42*
%TO.N,/nRST*%
X128000000Y-99697500D02*
X128000000Y-99100000D01*
X128851771Y-98900000D02*
X129524511Y-99572740D01*
X129524511Y-99572740D02*
X129524511Y-100724511D01*
X129950498Y-101150498D02*
X129950498Y-101500000D01*
X128160000Y-102318909D02*
X128450499Y-102028410D01*
X129524511Y-100724511D02*
X129950498Y-101150498D01*
X128200000Y-98900000D02*
X128851771Y-98900000D01*
X129200000Y-102500000D02*
X128160000Y-102500000D01*
X128000000Y-99100000D02*
X128200000Y-98900000D01*
X128160000Y-102500000D02*
X128160000Y-102318909D01*
%TO.N,Net-(C6-Pad2)*%
X121700000Y-101675000D02*
X121853928Y-101675000D01*
X124824520Y-100795480D02*
X125163448Y-100795480D01*
X122728928Y-100800000D02*
X123880000Y-100800000D01*
X123880000Y-100800000D02*
X124350000Y-101270000D01*
X125163448Y-100795480D02*
X125600000Y-100358928D01*
X125600000Y-100358928D02*
X125600000Y-99697500D01*
X124350000Y-101270000D02*
X124824520Y-100795480D01*
X121853928Y-101675000D02*
X122728928Y-100800000D01*
%TO.N,Net-(C7-Pad2)*%
X124875480Y-102734520D02*
X123790480Y-102734520D01*
X123790480Y-102734520D02*
X123100000Y-103425000D01*
X125300000Y-102310000D02*
X124875480Y-102734520D01*
X123280000Y-104330000D02*
X123100000Y-104150000D01*
X123100000Y-104150000D02*
X123100000Y-103425000D01*
X123280000Y-104750000D02*
X123280000Y-104330000D01*
D40*
%TO.N,+1V1*%
X126000000Y-92822500D02*
X126000000Y-91530000D01*
X126800000Y-100980000D02*
X127170000Y-101350000D01*
X125930000Y-91290000D02*
X125500000Y-90860000D01*
D43*
X127943698Y-100576302D02*
X128374500Y-100576302D01*
D40*
X128720000Y-90937734D02*
X128777219Y-90880515D01*
X125930000Y-91460000D02*
X125930000Y-91290000D01*
X126000000Y-91530000D02*
X125930000Y-91460000D01*
X128000000Y-92822500D02*
X128000000Y-92180000D01*
D43*
X127170000Y-101350000D02*
X127943698Y-100576302D01*
D40*
X126800000Y-99697500D02*
X126800000Y-100980000D01*
X128720000Y-91460000D02*
X128720000Y-90937734D01*
X128000000Y-92180000D02*
X128720000Y-91460000D01*
D41*
%TO.N,Net-(D1-Pad2)*%
X122112500Y-84337500D02*
X121500000Y-84950000D01*
X122112500Y-83760000D02*
X122112500Y-84337500D01*
X121500000Y-84950000D02*
X121500000Y-85450000D01*
D42*
%TO.N,Net-(J7-Pad1)*%
X132050000Y-85300000D02*
X132050000Y-84450000D01*
X132050000Y-84450000D02*
X131260000Y-83660000D01*
%TO.N,/LED_DO*%
X129637500Y-95660000D02*
X131436924Y-95660000D01*
X131436924Y-95660000D02*
X131502914Y-95725990D01*
X132050000Y-86800000D02*
X132050000Y-87550000D01*
%TO.N,/9*%
X119645970Y-103380458D02*
X120300978Y-102725450D01*
X121815050Y-98434031D02*
X122189081Y-98060000D01*
X122189081Y-98060000D02*
X122762500Y-98060000D01*
X118560000Y-106520000D02*
X119645969Y-105434031D01*
X119645969Y-105434031D02*
X119645970Y-103380458D01*
X121318825Y-98434031D02*
X121815050Y-98434031D01*
X120300978Y-102725450D02*
X120300979Y-99451877D01*
X120300979Y-99451877D02*
X121318825Y-98434031D01*
%TO.N,/8*%
X120001467Y-98874961D02*
X120741908Y-98134520D01*
X121644764Y-98134520D02*
X122119284Y-97660000D01*
X120001467Y-102538533D02*
X120001467Y-98874961D01*
X120741908Y-98134520D02*
X121644764Y-98134520D01*
X118560000Y-103980000D02*
X120001467Y-102538533D01*
X122119284Y-97660000D02*
X122762500Y-97660000D01*
%TO.N,/7*%
X118560000Y-101440000D02*
X119701958Y-100298042D01*
X119525489Y-98096550D02*
X119525489Y-97569002D01*
X119701958Y-98273019D02*
X119525489Y-98096550D01*
X119525489Y-97569002D02*
X120468992Y-96625499D01*
X121381047Y-96860000D02*
X122762500Y-96860000D01*
X120468992Y-96625499D02*
X121146546Y-96625499D01*
X119701958Y-100298042D02*
X119701958Y-98273019D01*
X121146546Y-96625499D02*
X121381047Y-96860000D01*
%TO.N,/6*%
X121270608Y-96325989D02*
X121404619Y-96460000D01*
X118560000Y-98110919D02*
X120344930Y-96325989D01*
X120344930Y-96325989D02*
X121270608Y-96325989D01*
X118560000Y-98900000D02*
X118560000Y-98110919D01*
X121404619Y-96460000D02*
X122762500Y-96460000D01*
%TO.N,/5*%
X122752990Y-96050490D02*
X122762500Y-96060000D01*
X121394670Y-96026479D02*
X121418681Y-96050490D01*
X118560000Y-96360000D02*
X119762081Y-96360000D01*
X120505333Y-96026477D02*
X121394670Y-96026479D01*
X120095604Y-96026477D02*
X120505333Y-96026477D01*
X119762081Y-96360000D02*
X120095604Y-96026477D01*
X121418681Y-96050490D02*
X122752990Y-96050490D01*
%TO.N,/4*%
X120400000Y-95660000D02*
X118560000Y-93820000D01*
X122762500Y-95660000D02*
X120400000Y-95660000D01*
%TO.N,/3_SCL1*%
X119700000Y-93000000D02*
X118560000Y-91860000D01*
X118560000Y-91860000D02*
X118560000Y-91280000D01*
X119700000Y-94272142D02*
X119700000Y-93000000D01*
X122762500Y-95260000D02*
X120687858Y-95260000D01*
X120687858Y-95260000D02*
X119700000Y-94272142D01*
%TO.N,/2_SDA1*%
X119634508Y-90907097D02*
X119634510Y-90907095D01*
X122762500Y-94860000D02*
X121090000Y-94860000D01*
X120860000Y-94860000D02*
X120810000Y-94860000D01*
X120810000Y-94860000D02*
X120711428Y-94860000D01*
X118560000Y-89080716D02*
X118560000Y-88740000D01*
X119999510Y-94148082D02*
X119999510Y-92875938D01*
X120711428Y-94860000D02*
X119999510Y-94148082D01*
X119634508Y-92510936D02*
X119634508Y-90907097D01*
X119634510Y-90155226D02*
X118560000Y-89080716D01*
X121090000Y-94860000D02*
X120810000Y-94860000D01*
X121090000Y-94860000D02*
X120860000Y-94860000D01*
X119634510Y-90907095D02*
X119634510Y-90155226D01*
X119999510Y-92875938D02*
X119634508Y-92510936D01*
%TO.N,/1_RX0*%
X119950000Y-84654453D02*
X119550999Y-85053454D01*
X118560000Y-81120000D02*
X119950000Y-82510000D01*
X119934021Y-85829568D02*
X119934021Y-91872459D01*
X119550999Y-85446546D02*
X119934021Y-85829568D01*
X119934021Y-91872459D02*
X120299021Y-92237459D01*
X120735000Y-94460000D02*
X122762500Y-94460000D01*
X119550999Y-85053454D02*
X119550999Y-85446546D01*
X119950000Y-82510000D02*
X119950000Y-84654453D01*
X120299021Y-94024021D02*
X120735000Y-94460000D01*
X120299021Y-92237459D02*
X120299021Y-94024021D01*
%TO.N,/0_TX0*%
X120549502Y-84978455D02*
X120549502Y-90799488D01*
X121000000Y-91249986D02*
X121000000Y-91918438D01*
X120355480Y-84784433D02*
X120549502Y-84978455D01*
X119849510Y-79869510D02*
X119849510Y-81875938D01*
X120355480Y-82381908D02*
X120355480Y-84784433D01*
X120549502Y-90799488D02*
X121000000Y-91249986D01*
X121000000Y-91918438D02*
X120598531Y-92319907D01*
X120598531Y-93899959D02*
X120758572Y-94060000D01*
X120758572Y-94060000D02*
X122762500Y-94060000D01*
X118560000Y-78580000D02*
X119849510Y-79869510D01*
X120598531Y-92319907D02*
X120598531Y-93899959D01*
X119849510Y-81875938D02*
X120355480Y-82381908D01*
%TO.N,/A3*%
X130500000Y-94060000D02*
X130592366Y-94152366D01*
X129637500Y-94060000D02*
X130500000Y-94060000D01*
X132250000Y-91100000D02*
X133800000Y-89550000D01*
X132250000Y-93950000D02*
X132250000Y-91100000D01*
X130592366Y-94152366D02*
X132047634Y-94152366D01*
X133800000Y-89550000D02*
X133800000Y-88740000D01*
X132047634Y-94152366D02*
X132250000Y-93950000D01*
%TO.N,/A2*%
X132650000Y-94050000D02*
X132650000Y-92430000D01*
X132650000Y-92430000D02*
X133800000Y-91280000D01*
X129637500Y-94460000D02*
X132240000Y-94460000D01*
X132240000Y-94460000D02*
X132650000Y-94050000D01*
%TO.N,/A1*%
X132760000Y-94860000D02*
X133800000Y-93820000D01*
X129637500Y-94860000D02*
X132760000Y-94860000D01*
%TO.N,/A0*%
X131297857Y-95260000D02*
X129637500Y-95260000D01*
X131306368Y-95251489D02*
X131297857Y-95260000D01*
X133800000Y-96360000D02*
X132691489Y-95251489D01*
X132691489Y-95251489D02*
X131306368Y-95251489D01*
%TO.N,/22_SCK*%
X132350000Y-96550000D02*
X133800000Y-98000000D01*
X133800000Y-98000000D02*
X133800000Y-98900000D01*
X130351072Y-96860000D02*
X130661072Y-96550000D01*
X130661072Y-96550000D02*
X132350000Y-96550000D01*
X129637500Y-96860000D02*
X130351072Y-96860000D01*
%TO.N,/20_MISO*%
X132949021Y-100589021D02*
X133800000Y-101440000D01*
X130757146Y-98060000D02*
X131133570Y-98436426D01*
X129637500Y-98060000D02*
X130757146Y-98060000D01*
X132949021Y-100251877D02*
X132949021Y-100589021D01*
X131133570Y-98436426D02*
X132949021Y-100251877D01*
%TO.N,/23_MOSI*%
X129637500Y-96460000D02*
X130228221Y-96460000D01*
X130228221Y-96460000D02*
X130463720Y-96224501D01*
X130463720Y-96224501D02*
X132175499Y-96224501D01*
X132175499Y-96224501D02*
X132550000Y-95850000D01*
%TO.N,/21_nCS*%
X130783572Y-97660000D02*
X131640222Y-98516650D01*
X129637500Y-97660000D02*
X130783572Y-97660000D01*
X131640222Y-98516650D02*
X131884839Y-98516650D01*
%TO.N,/FLASH_nCS*%
X122197042Y-91015480D02*
X123286541Y-91015480D01*
X123899511Y-93547740D02*
X123899511Y-93649511D01*
X123600000Y-93200000D02*
X123675480Y-93275480D01*
X122500000Y-88590000D02*
X122500000Y-87382500D01*
X121955480Y-89134520D02*
X121955480Y-90773918D01*
X122500000Y-88590000D02*
X121955480Y-89134520D01*
X121955480Y-90773918D02*
X122197042Y-91015480D01*
X123675480Y-93275480D02*
X123675480Y-93323709D01*
X123600000Y-91328939D02*
X123600000Y-92822500D01*
X128100000Y-94350000D02*
X128800683Y-95050683D01*
X123286541Y-91015480D02*
X123600000Y-91328939D01*
X122500000Y-87382500D02*
X123637500Y-86245000D01*
X128800683Y-95050683D02*
X128800683Y-98397162D01*
X123675480Y-93323709D02*
X123899511Y-93547740D01*
X123600000Y-92822500D02*
X123600000Y-93200000D01*
X123899511Y-93649511D02*
X124600000Y-94350000D01*
X131800000Y-100700000D02*
X130500000Y-99400000D01*
X131800000Y-100790000D02*
X131800000Y-100700000D01*
X124600000Y-94350000D02*
X128100000Y-94350000D01*
D40*
%TO.N,/USB+*%
X130425991Y-87714041D02*
X130425991Y-88026982D01*
X125433386Y-81928648D02*
X125703249Y-82198511D01*
X125433386Y-80916614D02*
X125433386Y-81928648D01*
X126450000Y-80900000D02*
X126432387Y-80917613D01*
X125703249Y-82198511D02*
X126450000Y-82198511D01*
X125450000Y-80900000D02*
X125433386Y-80916614D01*
X130425991Y-88026982D02*
X130250000Y-88202973D01*
X126432387Y-80917613D02*
X126432387Y-82180898D01*
X126432387Y-82180898D02*
X126450000Y-82198511D01*
%TO.N,/USB-*%
X131100000Y-87700000D02*
X131100000Y-88052973D01*
X126950000Y-80900000D02*
X126950000Y-81697512D01*
X125950000Y-81681898D02*
X125932887Y-81699011D01*
X125950000Y-80900000D02*
X125950000Y-81681898D01*
X131100000Y-88052973D02*
X131250000Y-88202973D01*
X126950000Y-81697512D02*
X126948501Y-81699011D01*
D42*
%TO.N,Net-(R9-Pad2)*%
X126000000Y-100591072D02*
X125998928Y-100591072D01*
X126000000Y-99697500D02*
X126000000Y-100591072D01*
X125998928Y-100591072D02*
X125300000Y-101290000D01*
%TO.N,/SWDCLK*%
X126450000Y-98350000D02*
X125600000Y-98350000D01*
X127200000Y-99100000D02*
X127200000Y-99697500D01*
X126450000Y-98350000D02*
X127200000Y-99100000D01*
X125600000Y-98350000D02*
X125550000Y-98300000D01*
%TO.N,/SWDIO*%
X127450000Y-98350000D02*
X127450000Y-98850000D01*
X127600000Y-99000000D02*
X127600000Y-99697500D01*
X127450000Y-98850000D02*
X127600000Y-99000000D01*
%TO.N,/FLASH_SD1*%
X124000000Y-92822500D02*
X124000000Y-91300000D01*
X124000000Y-91300000D02*
X123075480Y-90375480D01*
X123075480Y-87975770D02*
X123536250Y-87515000D01*
X123075480Y-90375480D02*
X123075480Y-87975770D01*
X123536250Y-87515000D02*
X123687500Y-87515000D01*
%TO.N,/FLASH_SD2*%
X124300000Y-89310000D02*
X123785000Y-88795000D01*
X123785000Y-88795000D02*
X123600000Y-88795000D01*
X124300000Y-92160000D02*
X124300000Y-89310000D01*
X124400000Y-92822500D02*
X124400000Y-92260000D01*
X124400000Y-92260000D02*
X124300000Y-92160000D01*
%TO.N,/FLASH_SD0*%
X128780500Y-90065000D02*
X128462751Y-89747251D01*
X129000000Y-90065000D02*
X128780500Y-90065000D01*
X124800000Y-93410000D02*
X124565523Y-93644477D01*
X124800000Y-92822500D02*
X124800000Y-93410000D01*
%TO.N,/FLASH_SCK*%
X128488118Y-89097879D02*
X128475753Y-89097879D01*
X128790997Y-88795000D02*
X128488118Y-89097879D01*
X125200000Y-92822500D02*
X125200000Y-93810000D01*
%TO.N,/FLASH_SD3*%
X129165000Y-87525000D02*
X129650000Y-88010000D01*
X125600000Y-93410000D02*
X125850000Y-93660000D01*
X129650000Y-89282769D02*
X129500000Y-89432769D01*
X129650000Y-88010000D02*
X129650000Y-89282769D01*
X125600000Y-92822500D02*
X125600000Y-93410000D01*
D40*
%TO.N,/D+*%
X127200000Y-93650000D02*
X127074500Y-93775500D01*
X130549001Y-89521974D02*
X130549001Y-89810223D01*
X130250000Y-89222973D02*
X130549001Y-89521974D01*
X127200000Y-92822500D02*
X127200000Y-93650000D01*
%TO.N,/D-*%
X127600000Y-93625500D02*
X127750000Y-93775500D01*
X131250000Y-89750000D02*
X131198446Y-89801554D01*
X127600000Y-92822500D02*
X127600000Y-93625500D01*
X131250000Y-89222973D02*
X131250000Y-89750000D01*
D42*
%TO.N,/SWITCH*%
X132060000Y-82110000D02*
X132060000Y-82050000D01*
X133610000Y-83660000D02*
X132060000Y-82110000D01*
X130750000Y-104100000D02*
X130750000Y-103446140D01*
X133800000Y-83660000D02*
X133610000Y-83660000D01*
X130650000Y-104200000D02*
X130750000Y-104100000D01*
X130150000Y-104200000D02*
X130650000Y-104200000D01*
X130750000Y-103446140D02*
X130898515Y-103297625D01*
%TO.N,/15*%
X123600000Y-99697500D02*
X123600000Y-98900000D01*
%TO.N,Net-(C19-Pad1)*%
X125300000Y-104600000D02*
X125300000Y-104500000D01*
X129060000Y-103540000D02*
X129850000Y-102750000D01*
X128590000Y-104050000D02*
X129100000Y-103540000D01*
X127760000Y-104050000D02*
X128590000Y-104050000D01*
X127210000Y-104500000D02*
X126665480Y-105044520D01*
X127310000Y-104500000D02*
X127760000Y-104050000D01*
X127210000Y-104500000D02*
X127310000Y-104500000D01*
X126665480Y-105044520D02*
X125744520Y-105044520D01*
X129850000Y-102750000D02*
X129850000Y-102150000D01*
X125744520Y-105044520D02*
X125300000Y-104600000D01*
X124400000Y-104500000D02*
X125300000Y-104500000D01*
X129700000Y-102000000D02*
X129200000Y-102000000D01*
X129850000Y-102150000D02*
X129700000Y-102000000D01*
%TO.N,Net-(Q1-Pad3)*%
X129500000Y-104550000D02*
X129060000Y-104550000D01*
X130150000Y-104700000D02*
X129650000Y-104700000D01*
X129650000Y-104700000D02*
X129500000Y-104550000D01*
%TO.N,Net-(Q1-Pad4)*%
X131650000Y-104200000D02*
X131050000Y-104200000D01*
X131169022Y-102000000D02*
X130700000Y-102000000D01*
X131050000Y-104950000D02*
X131050000Y-104650000D01*
X128795978Y-105145978D02*
X130854022Y-105145978D01*
X131255480Y-102093918D02*
X131255480Y-102086458D01*
X131466082Y-102304520D02*
X131255480Y-102093918D01*
X131150000Y-103700000D02*
X131050000Y-103800000D01*
X131650000Y-103700000D02*
X131650000Y-102480978D01*
X131255480Y-102086458D02*
X131169022Y-102000000D01*
X131473542Y-102304520D02*
X131466082Y-102304520D01*
X131050000Y-104200000D02*
X131050000Y-104650000D01*
X131050000Y-103800000D02*
X131050000Y-104200000D01*
X128210000Y-104560000D02*
X128795978Y-105145978D01*
X131650000Y-102480978D02*
X131473542Y-102304520D01*
X131100000Y-104700000D02*
X131650000Y-104700000D01*
X131650000Y-103700000D02*
X131150000Y-103700000D01*
X130854022Y-105145978D02*
X131050000Y-104950000D01*
X131050000Y-104650000D02*
X131100000Y-104700000D01*
%TO.N,/BOOT*%
X131490000Y-101500000D02*
X131800000Y-101810000D01*
X130700000Y-101500000D02*
X131490000Y-101500000D01*
%TO.N,Net-(R10-Pad1)*%
X122500000Y-90490000D02*
X122500000Y-89610000D01*
%TO.N,/10*%
X119945480Y-103504520D02*
X120600489Y-102849511D01*
X119945480Y-105365480D02*
X119945480Y-103504520D01*
X121939112Y-98733541D02*
X122212653Y-98460000D01*
X121442886Y-98733542D02*
X121939112Y-98733541D01*
X120600489Y-102849511D02*
X120600489Y-99575939D01*
X121100000Y-106520000D02*
X119945480Y-105365480D01*
X120600489Y-99575939D02*
X121442886Y-98733542D01*
X122212653Y-98460000D02*
X122762500Y-98460000D01*
%TO.N,/VBUS_DETECT*%
X124000000Y-99171047D02*
X124150000Y-99021047D01*
X123600000Y-93671801D02*
X123600000Y-97250000D01*
X120440000Y-103760000D02*
X120450000Y-103750000D01*
X123600000Y-97250000D02*
X124150000Y-97800000D01*
X120440000Y-104750000D02*
X120440000Y-103760000D01*
X121550000Y-91600000D02*
X123375969Y-93425969D01*
X123375969Y-93447770D02*
X123600000Y-93671801D01*
X123375969Y-93425969D02*
X123375969Y-93447770D01*
X124000000Y-99697500D02*
X124000000Y-99171047D01*
X121510000Y-91600000D02*
X121550000Y-91600000D01*
X124150000Y-99021047D02*
X124150000Y-97800000D01*
%TO.N,/11*%
X120934520Y-105052958D02*
X121231562Y-105350000D01*
X122063172Y-99033053D02*
X121566947Y-99033053D01*
X122762500Y-98860000D02*
X122236225Y-98860000D01*
X122470000Y-105350000D02*
X123640000Y-106520000D01*
X121566947Y-99033053D02*
X120934520Y-99665480D01*
X121231562Y-105350000D02*
X122470000Y-105350000D01*
X120934520Y-99665480D02*
X120934520Y-105052958D01*
X122236225Y-98860000D02*
X122063172Y-99033053D01*
%TO.N,/18*%
X132350000Y-104969022D02*
X131873533Y-105445489D01*
X130710000Y-98860000D02*
X132350000Y-100500000D01*
X129637500Y-98860000D02*
X130710000Y-98860000D01*
X129794511Y-105445489D02*
X128720000Y-106520000D01*
X132350000Y-100500000D02*
X132350000Y-104969022D01*
X131873533Y-105445489D02*
X129794511Y-105445489D01*
%TO.N,/19*%
X130733572Y-98460000D02*
X129637500Y-98460000D01*
X132649510Y-105130490D02*
X132649510Y-100375938D01*
X132649510Y-100375938D02*
X130733572Y-98460000D01*
X132649510Y-105130490D02*
X131260000Y-106520000D01*
%TO.N,Net-(R11-Pad1)*%
X127190000Y-103500000D02*
X126190000Y-104500000D01*
X127210000Y-103500000D02*
X127190000Y-103500000D01*
%TD*%
M02*
